<?xml version="1.0" standalone="no"?>
<!DOCTYPE svg PUBLIC "-//W3C//DTD SVG 1.1//EN" "http://www.w3.org/Graphics/SVG/1.1/DTD/svg11.dtd" >
<svg xmlns="http://www.w3.org/2000/svg" xmlns:xlink="http://www.w3.org/1999/xlink" version="1.1">
<metadata></metadata>
<defs>
<font id="brother_deluxe_1350_fontRg" horiz-adv-x="1120" >
<font-face units-per-em="2048" ascent="1638" descent="-410" />
<missing-glyph horiz-adv-x="731" />
<glyph horiz-adv-x="0" />
<glyph unicode="&#xd;" horiz-adv-x="1024" />
<glyph unicode=" "  horiz-adv-x="731" />
<glyph unicode="&#x09;" horiz-adv-x="731" />
<glyph unicode="&#xa0;" horiz-adv-x="731" />
<glyph unicode="!" horiz-adv-x="651" d="M178 31q-8 14 -19.5 35.5t-22.5 45t-18 48t-7 43.5q0 51 30.5 95t77.5 76t100.5 49t100.5 17h10q20 -14 44 -38.5t44.5 -53.5t34.5 -55.5t14 -44.5q0 -2 -22.5 -40t-51 -82t-54 -81t-31.5 -37t-15.5 9.5t-9.5 13.5l25 22q-4 0 -12.5 1t-12.5 1t-12.5 -1t-10.5 -1t-12 -7 t-21.5 -15t-21.5 -15.5t-12 -7.5t-9.5 6t-14.5 14.5t-13 15.5t-8 9q-6 4 -23.5 12.5t-21.5 10.5zM156 395q10 -4 10 -11t-10 -11t-10 11t10 11zM211 946q-18 0 -24.5 -2t-11.5 -2t-13 4t-29 19q-2 10 -5 38.5t-7 61.5t-7 62.5t-3 41.5v11q0 14 6 37.5t14 49t15.5 49 t9.5 36.5q2 -4 10 -12.5t12 -10.5t6 -2q2 -2 6 -2q27 0 37.5 22.5t15.5 52.5t9 60.5t18 48.5q10 -27 31 -44t46.5 -25t53 -8t52.5 10q0 -35 11 -48.5t23.5 -19.5t23.5 -13t11 -30q0 -25 -12 -32t-12 -27t7 -37.5t16 -34t16.5 -35t7.5 -39.5q0 -57 -18.5 -123.5t-40 -133 t-39 -131t-17.5 -115.5q0 -4 12.5 -22.5t10.5 -22.5q-8 -35 -25.5 -41.5t-40 -5.5t-47.5 -5t-47 -41q-2 -4 -10.5 -12t-12.5 -10q-18 6 -29.5 39t-17.5 80t-9 102t-4 106.5t0 93.5t1 62zM178 760q-4 -10 -11 -10t-11 10q-2 4 2 6t9 2t9 -2t2 -6z" />
<glyph unicode="&#x26;" horiz-adv-x="1296" d="M874 164q-4 -31 -17 -50.5t-26.5 -37t-24.5 -37t-11 -49.5q-20 0 -27.5 9t-11.5 21.5t-9.5 21.5t-19.5 9q-2 0 -3 -1t-3 -1h-6l-23 -22q-2 -2 -4 -2h-8h-6q-2 0 -4 2q-4 2 -12.5 10t-10.5 12q-4 -31 -23.5 -46t-45 -20.5t-54 -4t-49.5 1.5h-20.5t-30.5 1t-30.5 1h-20.5 q-4 2 -12.5 10t-10.5 12q-37 55 -80 89t-81.5 70t-64.5 87t-26 141q0 39 7.5 57.5t17.5 31t22.5 26.5t22.5 45q2 2 1 26.5t2 55.5t12.5 60.5t31.5 39.5h4q2 0 3 1t3 1q18 0 26.5 -9t14.5 -21.5t13.5 -21.5t25.5 -9v239l-45 48q4 2 12.5 10t10.5 12v4q0 2 1 3t1 3 q0 20 -17.5 26.5t-38 19t-34 39t-2.5 87.5q0 2 7 8.5t15 14.5t15.5 14t7.5 8q2 4 -9.5 22.5t-13.5 22.5t-2 7v6v6q0 2 2 4q37 45 69.5 60.5t59.5 24.5t46.5 26.5t29.5 70.5q6 -2 21.5 -5t34 -7t34.5 -7t22 -3q49 -6 80 -32t52.5 -56.5t43 -57t52.5 -37.5q47 -16 70.5 -58 t23.5 -101q0 -39 -20.5 -83t-52 -83t-67.5 -67.5t-67 -39.5q-6 -2 -14 -10t-8 -12v-160q0 -2 8 -10t14 -13q27 -18 46.5 -44.5t40 -53t48 -45t70.5 -18.5q29 0 48.5 26.5t19.5 55.5v12l-46 45q-2 2 -2 4v6v8q0 2 2 4q4 4 22.5 12.5t23.5 10.5q6 4 19 17.5t27.5 27.5t28 27.5 t17.5 19.5l22 -47q20 16 39 46t29 46q59 -35 98 -82t39 -123q0 -43 -9 -63.5t-26.5 -29.5t-43 -12t-58.5 -9q-18 -4 -21.5 -15.5t-3.5 -24.5t-2 -27.5t-18 -22.5q-27 -12 -42.5 -14.5t-22.5 -5.5t-9 -13t-2 -37q0 -8 16.5 -28.5t38 -44t41 -42t25.5 -20.5q4 -2 22.5 11 t22.5 11q18 -6 32.5 -22.5t22.5 -37t12.5 -43t4.5 -36.5q0 -2 -1 -5t-1 -7v-8q-6 -14 -23.5 -40t-24.5 -28q-33 -12 -81 9.5t-94 56t-80 74.5t-40 65zM303 436q0 -102 35 -152.5t127 -74.5q4 -2 22.5 -13.5t22.5 -9.5q2 0 8 7.5t14.5 15.5t14.5 15t8 7q14 6 46 9.5 t61.5 12.5t48 30.5t4.5 62.5q0 2 -10.5 12.5t-22.5 21.5t-22.5 21.5l-12.5 12.5q-6 8 -43 45l-78 78t-74 73l-34 33q-10 0 -20.5 -11t-21.5 -25.5t-22.5 -31t-25.5 -24.5q-4 -2 -12.5 -10.5t-10.5 -12.5v-18t-1 -27.5t-1 -28v-18.5zM465 504q16 0 16 -22.5t-16 -22.5 t-16 22.5t16 22.5zM1124 551q-8 0 -12 -7t-4 -16.5t4 -16.5t12 -7t12.5 7t4.5 16.5t-4.5 16.5t-12.5 7zM389 1217v-64t2 -82t8.5 -85t20.5 -73h-23q4 4 21.5 12.5t23.5 12.5h11h12q4 -4 22.5 -15.5t22.5 -9.5q8 2 19.5 14.5t21.5 26t17 27.5t10 25q6 -4 23 -12.5t24 -10.5 q2 -2 11 -3t11 -1v209q0 2 -10 5t-24.5 7t-31 7t-26.5 3q-8 0 -31.5 1t-51.5 2t-51.5 2.5t-31.5 1.5zM283 1233q-16 0 -16.5 -22.5t16.5 -22.5q16 0 16 22.5t-16 22.5z" />
<glyph unicode="(" horiz-adv-x="845" d="M446 -270q0 35 -21.5 66.5t-51 61t-59 57.5t-44.5 56q-45 80 -82.5 170t-65.5 185.5t-43.5 192.5t-15.5 190q0 35 18.5 109.5t49.5 167.5t71 191.5t86 179.5t94 133t93 52h227q2 0 6.5 -13t8.5 -31.5t6 -38t2 -32.5q0 -12 -34 -41.5t-78 -68.5t-85 -87t-53 -97 q-6 -27 -19.5 -46.5t-27.5 -36t-26.5 -35t-16.5 -42.5q-12 -49 -17.5 -90t-7.5 -80t-2 -80v-92q0 -10 1 -36t1 -54.5t1 -55t1 -36.5q4 -6 12.5 -33t10.5 -35q8 -45 37 -119t69.5 -145.5t92 -123.5t106.5 -52q0 -4 -4 -8.5t-6 -6.5q-4 -4 -21.5 -13t-23.5 -9q6 -23 28.5 -27 t38.5 -4v-188q-23 0 -46 15t-21 44q-12 -18 -34.5 -31.5t-45.5 -13.5q-16 0 -25.5 5t-18.5 10t-23.5 10.5t-41.5 5.5zM453 289q-2 -10 -11.5 -10t-11.5 10t11.5 10t11.5 -10zM88 381q16 0 16 -22.5t-16 -22.5t-16 22.5t16 22.5z" />
<glyph unicode=")" horiz-adv-x="792" d="M381 -319q8 0 13 -7.5t5 -16.5t-5 -16.5t-13 -7.5t-12 7.5t-4 16.5t4 16.5t12 7.5zM84 -242q0 12 9 21.5t21.5 17.5t24 18.5t15.5 22.5q2 6 9 25.5t14 43t14.5 43t9.5 25.5q4 16 13 36t32 20v-56q4 4 12 22.5t10 22.5q8 35 16.5 43.5t19.5 8.5h23.5t30.5 18 q20 20 40 66.5t35.5 106t28.5 125t21.5 126.5t13.5 111.5t5 79.5h6q0 4 6 21t4 24q0 2 -7 8t-15.5 14t-15.5 14.5t-7 8.5q-2 4 11.5 22.5t11.5 22.5t-12.5 14t-22.5 20.5t-22.5 20.5t-10.5 14t3 20.5t8 36t8.5 36t3.5 20.5q-8 70 -56.5 123t-102.5 108.5t-98 121t-44 157.5 q8 0 27.5 -1t43 -2t43 -3t27.5 -2q2 0 11 -10.5t11 -14.5q2 -2 11.5 -2t11.5 2q86 -72 157.5 -161t122 -189t79 -211t28.5 -225q0 -10 -4 -16.5t-8 -12.5t-8.5 -14t-4.5 -23q0 -29 12.5 -51.5t12.5 -50.5q0 -37 -2 -90.5t-9 -108.5t-20.5 -105.5t-36.5 -82.5 q-2 -2 -12 -12.5t-22.5 -21.5t-22.5 -21.5t-12 -12.5q0 -2 4 -9t8 -14.5t8 -14.5t4 -9q-2 -4 -12 -13.5t-22.5 -20.5t-22.5 -21.5t-12 -12.5q-27 -39 -54.5 -91t-62.5 -98t-78 -78t-100 -32q-16 0 -44 5.5t-54.5 15.5t-45 25.5t-18.5 35.5zM451 567q16 0 16 -22.5t-16 -22.5 t-16 22.5t16 22.5zM496 977q-16 0 -16.5 -22.5t16.5 -22.5q16 0 16 22.5t-16 22.5zM268 1499q-6 2 -8 -2t-2 -9t2 -9t8 -2q10 4 10 11t-10 11z" />
<glyph unicode="+" horiz-adv-x="1069" d="M377 266q0 47 12 90t12 90q0 31 -26.5 51.5t-61 33t-72.5 17.5t-59 5h-10q-4 -2 -23.5 -11.5t-23.5 -11.5h-10q-16 0 -29.5 17.5t-25 38t-18.5 38t-7 19.5q-2 4 -2 6v6v7q0 2 2 6l22 22q2 2 8.5 11.5t14.5 20.5t14 21.5t8 14.5q10 0 41 1t39 1q45 0 74 -12.5t63 -12.5 l15 9q16 10 34.5 21t35 22.5t18.5 15.5q-6 63 -8 121.5t11 102.5t49 69.5t108 25.5q14 0 35.5 -16t31.5 -29l-12 -12t-10 -12q-2 -2 -2 -4v-7v-6q0 -2 2 -6t10 -12t12 -10v-205q0 -20 12.5 -29.5t29 -13.5t32.5 -4h27q23 0 35 4t20 9t15 9t22 4q14 0 47 -14t65.5 -35.5 t57 -46t24.5 -43.5q0 -41 -16 -66.5t-43 -42t-58.5 -22.5t-64.5 -6q-16 0 -24.5 4t-17.5 9t-19.5 9t-28.5 4q-53 0 -74.5 -12t-29 -35.5t-6.5 -58.5t-5 -78q0 -4 -11 -22.5t-11 -22.5t11 -22.5t11 -22.5t-3 -13t-8 -21.5t-8 -23t-3 -12.5q0 -6 9 -23.5t13 -21.5 q-14 -16 -44 -22t-61.5 -9t-56 -2t-30.5 1q0 29 -6.5 45t-17.5 29.5t-25.5 29.5t-30.5 43v8v0z" />
<glyph unicode="," horiz-adv-x="663" d="M254 33q0 25 -12.5 42t-30.5 31.5t-38.5 26.5t-35.5 25q-4 4 -13 12t-9 10v182l45 46q-4 2 -12.5 10t-10.5 12t-2 6v6v7q0 2 2 4q6 6 23.5 14t23.5 8h250q31 0 56.5 -44t44 -101.5t28.5 -109.5t10 -68v-64.5t-4 -25t-14 -24.5t-31 -63q-14 -33 -20 -67.5t-16.5 -64 t-32 -50t-66.5 -22.5q-16 0 -55 -2t-82 -3.5t-83 -2.5t-54 -1v168q0 33 21.5 39t48 7t48 10.5t21.5 46.5zM319 522h-22v23z" />
<glyph unicode="-" d="M236 866q8 -6 25.5 -23.5t25.5 -21.5l37 51q10 -18 31.5 -26t46 -9t50 2t42.5 7q20 2 31.5 11t20.5 20.5t19 20.5t29 13l6 -22q14 4 19.5 12t7.5 16.5t8 14.5t24 6q27 4 43.5 -6t34.5 -33q4 20 10.5 39.5t26.5 36.5q16 -10 27.5 -28.5t29.5 -35.5l185 -67l-70 -10 l21 -154q2 -10 -12.5 -27.5t-36 -38t-43 -39t-29.5 -32.5q-12 25 -60.5 35t-116 13t-147.5 0t-152.5 -7t-130 -6.5t-83.5 2.5q-2 4 -2 8v10q-4 6 -18.5 17.5t-31 23.5t-32 22.5t-21.5 16.5q35 61 79 98t83 82h12zM526 897q2 -6 -4 -11t-14 -7t-16.5 2t-10.5 14q0 8 6.5 13 t15.5 5t16 -4t7 -12zM885 963q4 -14 -16.5 -18.5t-28.5 13.5q0 8 8 14.5t16 7.5t14.5 -3t6.5 -14z" />
<glyph unicode="." horiz-adv-x="786" d="M209 66q-4 29 -18.5 56.5t-31 54t-29.5 53t-13 53.5q0 8 10 50t23.5 89t26.5 86t20 39q14 0 20 -8.5t8 -19.5t1 -23.5t-1 -20.5h29q0 8 8 22.5t19.5 29t22.5 25.5t18 15q2 0 24.5 1t36.5 1q53 0 107.5 -18.5t97.5 -53t70.5 -82.5t27.5 -110v-12q-16 -49 -32.5 -102.5 t-35.5 -102.5q-35 -8 -69.5 -23.5t-69.5 -31t-69.5 -26.5t-67.5 -11q-20 0 -34.5 16.5t-29 32.5t-29.5 25.5t-40 -4.5zM231 133q-16 0 -16 -22.5t16 -22.5t16 22.5t-16 22.5zM117 408q-2 -10 -10.5 -10.5t-12.5 10.5q-4 10 10.5 10t12.5 -10z" />
<glyph unicode="/" horiz-adv-x="1187" d="M12 -45q2 8 5 22.5t7.5 28.5t7.5 25.5t3 13.5q2 6 22.5 23.5t22.5 23.5q4 6 -5 23.5t-18 21.5q49 8 63.5 15.5t15.5 18.5t-1 29.5t15 49.5q2 4 12 14l21.5 21.5t21.5 20.5t12 13q25 33 56.5 96.5t68.5 127t77 110.5t81 47q0 12 5 49t13 77t18.5 72t22.5 36h12.5t22.5 -1 t21.5 -1t11.5 2t5 15.5t6 28.5t6 28.5t5 17.5q4 12 19.5 27.5t32 31t29.5 27.5t13 16q-2 0 -2 2v5v6l-22 22q-2 2 -2 4q-2 2 -2 6q0 16 15 40t35.5 48.5t40 47t25.5 36.5q2 4 0 23.5t0 22.5q2 2 12.5 5t22 6t21.5 6t12 5t2 15.5t-1 28.5t-1 29.5v18.5q6 47 15.5 60.5 t23.5 16.5t32.5 7t43.5 29q2 2 8 15.5t14 29.5t14.5 29.5t8.5 17.5q0 2 12 3t21 1q29 0 48 -9t34 -42q-4 -47 -6.5 -90t-13.5 -78t-34.5 -55.5t-70.5 -20.5q0 -10 -4.5 -49t-15.5 -77t-31.5 -61.5t-51.5 -0.5l23 -45q-35 -12 -45.5 -23.5t-13.5 -24t-7 -28.5t-26 -39 q-2 -2 -12.5 -5t-22 -6t-21.5 -6t-12 -5q-10 -10 -23.5 -54.5t-31 -91.5t-38 -82t-44.5 -22l-90 -273q-41 -8 -57.5 -15t-21.5 -19.5t-5 -31t-9 -48.5q-4 -23 -12 -23h-20.5t-26.5 -11t-31 -57q-8 -20 -20 -45.5t-24.5 -53t-20.5 -54.5t-8 -51h-76q0 -51 -1 -88t-11.5 -68 t-36 -58.5t-74.5 -60.5q-4 -2 -8 -2h-13q-47 0 -70.5 29t-23.5 76v12zM354 479h23v23z" />
<glyph unicode="0" horiz-adv-x="1345" d="M104 494q10 2 26.5 19t19.5 26q2 4 -9.5 22.5t-13.5 22.5v12v12q4 4 23.5 21.5t21.5 23.5q4 14 -4 34t-20.5 39t-24.5 35.5t-19 26.5q-2 4 -2 7v6q0 14 10.5 28.5t22.5 29.5t23.5 31.5t13.5 35.5q8 74 20.5 123t31 91t44 86t64.5 109q8 12 27.5 28.5t41 32t41 30 t27.5 24.5h27.5t41 1t41 1h27.5q74 0 138.5 -10t123 -34t111.5 -63.5t104 -99.5q8 -14 25.5 -53t36 -83t33 -83t18.5 -55q2 -4 2 -24.5t-1 -43t-1 -43v-24.5q2 -6 5 -22.5t6 -35t7.5 -35t6.5 -22.5q2 -4 12 -22.5t10 -22.5q0 -41 -22.5 -122t-59.5 -170t-82 -167t-88 -111 q-4 -4 -41 -16t-79 -27.5t-75.5 -34t-31.5 -34.5q-6 0 -31.5 -2t-36.5 -2q-72 0 -139.5 21.5t-128.5 59.5t-114.5 88t-94.5 107q-25 33 -33 63.5t-15 58.5t-20.5 54.5t-46.5 51.5zM309 608q0 -74 35 -144.5t90 -124.5t125 -87t137 -33q14 0 47 12.5t67 30t60.5 36.5t30.5 36 l45 205q20 0 37.5 21.5t30 50t18.5 57t6 43.5v10q-2 4 -12 22.5t-10 22.5t3 21.5t7 36t8 36t4 21.5v10v12q0 8 -3 27.5t-7 41t-7 41t-5 27.5q-27 0 -44.5 23.5t-31.5 54.5t-28.5 61.5t-32.5 43.5q-4 2 -15.5 -1t-23 -7.5t-21.5 -8.5t-14 -4q0 47 -13.5 90t-5.5 88 q-18 -37 -46.5 -51t-62.5 -20t-71 -8.5t-69 -10.5q12 -61 1.5 -81.5t-30 -22.5t-44 1t-40.5 -11q-4 -2 -10 -18.5t-13.5 -36t-14.5 -37t-9 -21.5q-4 -8 -20.5 -24.5t-24.5 -20.5q8 0 24.5 -9.5t20.5 -15.5q0 -2 2 -4v-4q0 -2 2 -2q0 -2 -1 -3t-1 -3q-2 -2 -2 -6 q-6 -4 -32 -13.5t-36 -9.5v-340zM969 698q16 0 16 -22.5t-16 -22.5t-16 22.5t16 22.5zM969 813q8 0 12 -7t4 -16.5t-4 -16.5t-12 -7t-12.5 7t-4.5 16.5t4.5 16.5t12.5 7z" />
<glyph unicode="1" horiz-adv-x="606" d="M217 203q0 59 12.5 115.5t12.5 115.5q0 20 -12.5 26.5t-12.5 28.5q0 14 7 33t16.5 37.5t16.5 36.5t7 31q0 4 -11 22.5t-11 22.5q0 2 -1 15t-1 30.5t-1 34t-1 26.5q0 14 2 43t2 33l22 23v182q4 2 12.5 10t10.5 12v4q0 2 1 3.5t1 3.5q0 8 -5 25.5t-13.5 35.5t-18.5 31.5 t-23 13.5q-18 0 -22 -12t-8 -26.5t-13.5 -26t-33.5 -7.5q-57 10 -86 41t-29 86v11q14 10 51 36.5t77 54t74.5 49t47.5 21.5q18 0 45.5 -9t53.5 -23.5t44.5 -33t18.5 -38.5q0 -2 -1.5 -4t-1.5 -4v-4l-22 -23v-12q0 -53 7 -108.5t16.5 -112t16.5 -112.5t7 -112v-36.5t-1 -44 t-1 -37v-17.5q0 -6 -3 -25.5t-8 -43t-8.5 -43t-3.5 -25.5t3.5 -28.5t8.5 -50t8 -50t3 -29.5v-13t1 -26.5t1 -30v-22.5v-71t-6 -98t-22.5 -88t-51.5 -38q-57 0 -92 10.5t-53.5 34t-23.5 59.5t-5 87zM264 512q-16 0 -16 -22.5t16 -22.5t16 22.5t-16 22.5z" />
<glyph unicode="2" horiz-adv-x="1347" d="M254 37q-39 25 -69.5 37t-51 28.5t-31 44t-10.5 82.5q0 66 21.5 132.5t56.5 127t80 113.5t94 94q2 2 14.5 9.5t26.5 14.5t28.5 13t22.5 8q2 2 16.5 5.5t30 6.5t28.5 7t15 6t9.5 12t14.5 21.5t13 21.5t8 13q2 2 23.5 -2.5t44.5 -3.5t39 11.5t8 39.5q12 -4 47 1t74 15 t69.5 23.5t36.5 27.5v18.5t1 28t1 27.5v18q0 39 -16 86t-46 86t-73 62.5t-94 15.5q-51 -6 -94 -28.5t-86 -47t-87 -43t-97 -18.5q-8 0 -22.5 8t-30 20.5t-27 23.5t-11.5 18q-6 39 15.5 78.5t54.5 73.5t71 60.5t64 36.5q2 2 15.5 2.5t29 -1t28.5 -1.5h17q4 2 11.5 21.5 t11.5 24.5h4q2 0 3 1t3 1t4 -1t4 -1h4q4 -2 23.5 -11.5t23.5 -11.5h9h14q6 0 29.5 4t50.5 7t50.5 7.5t29.5 4.5h24q27 0 76 -34t102.5 -78t98.5 -90t61 -71q14 -78 20.5 -133t6.5 -127q0 -12 -2 -34.5t-2 -24.5q-4 -20 -15.5 -29.5t-23.5 -13.5t-26.5 -9.5t-24.5 -15.5 q-4 -4 -11.5 -20.5t-11.5 -24.5q-23 -68 -65.5 -93.5t-96 -34.5t-112 -15t-113.5 -39q-4 -2 -13 -12.5t-20.5 -21.5t-21.5 -21.5t-13 -12.5q-29 -16 -51 -19t-37.5 -8.5t-23.5 -19.5t-8 -53q-4 0 -9.5 3t-7.5 5q-4 4 -13 21.5t-9 23.5q-12 -8 -23.5 -24.5t-20.5 -34 t-15.5 -32.5t-8.5 -22v-12v-10q0 -6 3 -18.5t6 -28t7.5 -27.5t6.5 -18q4 4 22.5 12t22.5 10h10q6 0 36 -9t66.5 -20.5t69.5 -22.5l45 -15q2 -2 4 -2h10h5q2 0 4 2q4 4 13 21.5t9 23.5q-2 -33 11.5 -40t31.5 -7q25 0 42.5 12t39.5 12h12q6 -4 23.5 -21.5t21.5 -23.5 q6 12 15.5 27.5t21 30t24.5 24.5t32 10q23 0 29.5 -10t10 -22.5t7.5 -23.5t20 -13q29 -6 57.5 -5t51 -3.5t37 -21.5t14.5 -60q0 -51 -42 -83t-100.5 -49.5t-121 -23.5t-101.5 -6q-23 0 -44 7t-43.5 15t-45 16.5t-49.5 8.5q-25 0 -86 1t-130 1t-130 -1t-86 -1zM1118 1333 q10 -4 10 -11t-10 -11q-6 -2 -8 2t-2 9t2 9t8 2z" />
<glyph unicode="3" horiz-adv-x="1280" d="M94 -225q0 20 1 37.5t6 33t14.5 30.5t25.5 36q2 -4 10.5 -12.5t12.5 -10.5t6 -2h6h6q2 0 6 2q63 31 139 43.5t154 25.5t149.5 36.5t125.5 77.5q18 18 49 54t60.5 76t51 78.5t21.5 63.5q0 4 -9 13.5t-14 9.5q49 8 60.5 47t11.5 78q0 8 -2 29.5t-2 27.5q-23 -4 -34 15.5 t-18 47t-15.5 55t-22.5 42.5q-4 -8 -21.5 -24.5t-23.5 -20.5q-4 -2 -6 -2h-6h-7q-2 0 -4 2q-8 4 -25.5 20t-21.5 25h-340l-45 -45q-4 2 -12 10l-12 12v10q0 68 28.5 111t70.5 73.5t90 58.5t85 65q2 2 9 12t14.5 22.5t13.5 21.5t8 13q4 4 12.5 13.5t10.5 9.5q4 0 22.5 -11.5 t22.5 -11.5q12 0 18 11.5t8 24.5t1 25.5t-1 14.5q0 43 -5 74.5t-21 76.5h-11q-20 0 -77.5 -11t-121 -24.5t-115.5 -24.5t-62 -9q-8 2 -34 11t-53.5 21.5t-50 24.5t-22.5 23q0 20 23.5 42.5t55 41t64.5 30t51 11.5q12 0 30 -7.5t35 -15.5t33.5 -15t26.5 -7q4 0 22.5 10 t22.5 12h13h12l45 -22h10h13l22 22h12h11l45 -22q4 -2 6 -2h6h6q2 0 4 2q8 4 25.5 21.5t21.5 23.5q8 -20 35 -33.5t58.5 -21t62.5 -10.5t49 -3q4 0 22.5 11.5t22.5 11.5q18 0 21.5 -17.5t3.5 -27.5q0 -29 -19.5 -42.5t-50.5 -3.5q-8 -72 -52 -121t-94 -89.5t-90 -81.5 t-40 -97q0 -10 3 -26.5t21 -16.5q4 0 23.5 10.5t23.5 12.5h11h12q66 -45 124 -84t101 -87t67.5 -112.5t24.5 -161.5q0 -66 -30.5 -143.5t-78.5 -151t-103.5 -138t-104.5 -101.5q-43 -33 -100.5 -57.5t-116 -47t-115.5 -46t-100 -54.5h-297q-12 0 -17.5 9.5t-6.5 21.5 t-1 23.5v13.5zM119 -43q16 0 16 -22.5t-16 -22.5t-16 22.5t16 22.5zM1188 594q18 0 18 -22.5t-18 -22.5q-16 0 -16 22.5t16 22.5zM983 641q-4 2 -7 -2t-3 -10t3 -10.5t7 -2.5q10 4 10 12.5t-10 12.5zM621 686q16 0 16 -22.5t-16 -22.5t-16 22.5t16 22.5zM711 846 q2 10 -11.5 10t-11.5 -10t11.5 -10t11.5 10zM598 1073q10 -4 10 -11t-10 -11t-10 10t10 12zM688 1186q16 0 16.5 -22.5t-16.5 -22.5q-16 0 -16 22.5t16 22.5zM711 1255q8 0 12 -7t4 -16t-4 -16.5t-12 -7.5t-12.5 7.5t-4.5 16.5t4.5 16t12.5 7zM825 1255h45v23h-45v-23z M233 1436q16 0 16.5 -22.5t-16.5 -22.5q-16 0 -16 22.5t16 22.5z" />
<glyph unicode="4" horiz-adv-x="1185" d="M674 76q0 4 4 24.5t8 43t7 43t3 24.5q0 43 -19.5 66.5t-49 35t-66.5 13.5t-69 2q-25 0 -38.5 -4.5t-22.5 -8.5t-18.5 -8t-23.5 -4q-33 0 -61.5 12.5t-63.5 12.5t-58.5 -13.5t-58.5 -13.5q-16 0 -32.5 18.5t-28.5 44t-20.5 53t-8.5 44.5q0 16 11.5 57t28 92.5t38 107.5 t42 103t37.5 80t28 39q-20 4 -22.5 22.5t-2.5 32.5q0 18 7 38t16.5 37t17.5 32.5t8 30.5q0 2 -1 4t-1 4v4q-2 2 -12 11t-10 11q0 4 10 22.5t12 22.5v7q0 2 1 4t1 4l-2 4v4q-4 6 -21.5 15.5t-23.5 9.5q27 20 40 49.5t19.5 62.5t10.5 65.5t13 58.5t28.5 42t56.5 16h14 q4 0 17.5 -3t28 -7t27.5 -7t18 -5v-20.5t1 -31t1 -30.5v-20q0 -76 -14.5 -148t-55.5 -137v-250q-18 -16 -36.5 -49t-18.5 -62q-35 0 -41 -33.5t-9.5 -76.5t-16.5 -85t-60 -59q0 -10 17 -27.5t28 -17.5q4 0 17 6.5t28.5 14.5t29 15t17.5 9h8h14q4 0 24.5 -4t43.5 -8t43 -7 t25 -3q27 0 46 22.5t23 44.5q18 -14 26.5 -19t16.5 -5t16.5 3t26.5 3q0 4 2 10t2 8q-2 4 -12 22.5t-10 23.5q0 8 9 25.5t13 21.5v250q8 0 24.5 9t20.5 13q0 2 2 4q0 2 1 4t1 4q-2 0 -2 2v4q-2 2 -2 5q-4 8 -20 24.5t-25 20.5q6 20 20.5 23t31 2t34 1t29.5 21q2 4 10 22.5 t13 22.5h4q2 0 3 1t3 1q20 0 34.5 -24.5t24.5 -56.5t15.5 -64.5t5.5 -49.5v-12q0 -18 -3 -63.5t-7.5 -96.5t-7.5 -96t-5 -64q6 -16 20.5 -41.5t36.5 -25.5h13q4 2 21.5 10t23.5 12q-4 -2 -4 -11t4 -11q4 -4 22.5 -13.5t22.5 -9.5q6 0 14 10.5t15 22.5q8 14 16 35 q4 -6 11 -25.5t14.5 -41t13.5 -42t6 -28.5q0 -6 -8 -32t-15 -36q-2 -2 -4 -2h-4q-29 0 -50 13.5t-54 13.5q-20 0 -48 -10.5t-53.5 -27t-43 -36.5t-17.5 -39q0 -41 21.5 -79t25.5 -83q0 -8 3 -27.5t7 -41t7.5 -41t5.5 -27.5l-45 -45h-160q-16 0 -25.5 16.5t-13.5 39t-5 46 t-1 35.5v23zM379 713q16 0 16 -22.5t-16 -22.5t-16 22.5t16 22.5zM741 780q-16 0 -16 -22.5t16 -22.5q18 0 18 22.5t-18 22.5z" />
<glyph unicode="5" horiz-adv-x="1314" d="M133 -188q2 -10 19.5 -19.5t25.5 -5.5q2 2 9.5 12.5t14.5 21.5t13 21.5t10 14.5q18 18 49 34.5t66 34t69.5 39t65.5 51.5h4q2 0 2 1t2 1t5.5 -1t5.5 -1h4q4 -4 22.5 -15t22.5 -9t14 12t20.5 22.5t20.5 22.5t14 12h12.5h21.5h21.5h12.5q10 2 27.5 10.5t17.5 12.5v113 q4 -6 21.5 -23.5t23.5 -21.5q4 -2 6 -2h6q49 0 74 34.5t40 81.5t31.5 92t47.5 68q4 2 23.5 10t23.5 13q2 4 -1 19t-7 33.5t-7 34t-3 21.5q-33 0 -43.5 12.5t-15.5 30.5t-13 40t-33 40t-75 30.5t-142 12.5q-29 0 -56.5 1t-53 -2t-50 -13.5t-47.5 -32.5l-22 22 q-4 -6 -13.5 -16t-19.5 -20.5t-20.5 -19.5t-16.5 -11q-20 -10 -29.5 0t-15.5 25.5t-12.5 29.5t-20.5 14q-2 0 -4 -1t-4 -1h-4q-4 -4 -12.5 -22.5t-10.5 -22.5q-4 4 -11 17.5t-14 28t-12.5 26.5t-7.5 18q-2 4 -2 9v12q0 4 1 13t1 11q0 4 4 17.5t7.5 29t7.5 29t4 17.5v10v12 q-2 4 -13.5 22.5t-9.5 22.5q2 10 18.5 26.5t26.5 18.5q-4 2 -12 10.5t-10 12.5t-2 6v6v6q0 2 2 6l22 23v10q0 23 -5 41.5t-11 37.5t-11 42t-5 51h51q0 18 3 28.5t3 17.5t-5 16.5t-20 27.5q35 0 47.5 11.5t18.5 23.5t11 23.5t26 11.5q18 0 25.5 -13.5t29.5 -13.5q4 0 13.5 1 t11.5 1t12 4.5t21.5 8.5t21.5 7t12 3q4 0 13.5 -8.5t9.5 -14.5q12 18 34.5 31.5t45.5 13.5q35 0 61.5 -12t67.5 -12q27 0 42 8t26 17.5t22.5 17.5t29.5 8q0 -2 2 -2h5h6q2 -4 12 -14.5t21.5 -22.5t20.5 -21.5t13 -11.5q12 -6 42 -7t61.5 -6t55.5 -16.5t24 -37.5 q0 -4 -11.5 -22.5t-11.5 -22.5t10.5 -23.5t12.5 -23.5q0 -4 2 -15.5t2 -13.5q-18 0 -28.5 5t-19 11t-16.5 11.5t-20 5.5q-2 0 -3 -1t-3 -1q-2 -2 -5 -2q-4 -2 -13 -9.5t-20.5 -15.5t-21.5 -14t-14 -6q-10 0 -27.5 17t-17.5 28q-8 -12 -30.5 -28.5t-37.5 -16.5q-4 0 -20.5 9 t-24.5 13q-4 2 -12 12.5t-12 10.5t-22.5 -10.5t-22.5 -12.5h-11q-14 0 -22 8t-13.5 19.5t-10.5 24t-11 18.5h-6h-4q-2 0 -2 2q-2 0 -3 -1t-3 -1h-5q-6 -8 -14 -34t-8 -36q-8 8 -34 25.5t-36 21.5h-4h-4q-2 0 -2 2q-14 0 -27.5 -10t-29 -23.5t-32.5 -24.5t-36 -13 q4 -49 1 -83t-8 -64t-10 -62.5t-5 -77.5v-8q4 -8 20 -24.5t25 -20.5l45 45q18 -29 25 -38t12.5 -9t14.5 4t30 4q0 6 -6.5 19t-8.5 25.5t7.5 18.5t39.5 -2q31 -8 37 -19.5t6 -23.5t2 -25.5t23 -23.5q2 8 5 34.5t8 55.5t15.5 50.5t28.5 21.5q2 0 3 -1t3 -1h5q2 -2 9 -12.5 t14 -22.5t13.5 -21.5t8.5 -11.5t12 -2t22.5 1t21.5 1h13q98 -33 180 -87t138 -140q4 -6 12 -14.5t10 -8.5q8 0 25.5 8.5t21.5 14.5q-31 -51 -38 -101.5t-9 -100.5t-9 -102.5t-36 -105.5q-31 -57 -70.5 -101t-85 -81t-92.5 -69.5t-92 -67.5q-4 -2 -12 -21.5t-12 -23.5 q-29 -39 -86.5 -63.5t-119 -46t-112.5 -43t-67 -52.5h-297l-23 22zM748 -188q-2 -10 -11.5 -10.5t-11.5 10.5q-2 10 11.5 10t11.5 -10zM862 289v-23l-22 23h22zM862 676q16 0 16.5 -22.5t-16.5 -22.5q-16 0 -16 22.5t16 22.5zM612 698q16 0 16.5 -22.5t-16.5 -22.5 q-18 0 -18 22.5t18 22.5zM293 903q-10 4 -10 -11t10 -11t10 11t-10 11zM520 971q16 0 16.5 -22.5t-16.5 -22.5q-16 0 -16 22.5t16 22.5zM293 1198q-27 -12 -27 -45h27v45z" />
<glyph unicode="6" horiz-adv-x="1222" d="M115 373q0 2 2 4l22 22v13q0 41 -12 77.5t-12 79.5q0 10 1 41t1 39q4 2 12 10.5t10 12.5v6q0 2 1 3t1 3q-2 0 -2 2v4v6l-22 23q-2 2 -2 4v6v6q0 2 2 6q20 41 26.5 75t8.5 68t2 69.5t8 82.5q2 2 7 14.5t13 27t15.5 28.5t11.5 22q4 4 11 13.5t11 9.5q39 12 54.5 27.5 t21.5 35t12.5 44t24.5 53.5q12 16 16.5 19t9.5 2t14 -3t30 4q16 4 19 11.5t2 16.5t-3 19.5t4 20.5q12 25 45 43t72 33.5t76 30t57 30.5h295v-57q-4 0 -21.5 -4t-23.5 -9q-2 0 -8 -7t-14.5 -15t-14.5 -15.5t-8 -7.5q-6 -2 -22.5 -3t-35 -1t-35 1t-22.5 3q2 -20 -36 -45.5 t-84 -48t-87 -41t-43 -24.5q-2 -4 -5 -17.5t-6 -29t-6 -28.5t-5 -15t-11.5 -2.5t-21.5 1t-22.5 1.5h-12.5q-12 -6 -31.5 -39t-39 -72t-33 -76t-13.5 -49q0 -6 1.5 -20.5t1.5 -16.5q2 -12 5 -31.5t7 -38t7 -31.5l3 -14h98q0 14 -2 27.5t0 23t11.5 14.5t29.5 5q10 0 27.5 -3 t17.5 -22v-204q0 -4 -9 -13.5t-13 -9.5q-27 0 -45.5 22.5t-22.5 45.5q-20 -16 -37.5 -54t-30 -81t-19.5 -85t-7 -69t29.5 -67t63.5 -80.5t57.5 -76.5t11.5 -55q8 -2 27.5 -6t41 -7t41 -6t27.5 -3h10h13q10 2 36.5 11t30.5 11q6 2 14.5 11.5t8.5 11.5q0 6 -8.5 23.5 t-14.5 21.5h12h11q6 -2 23.5 -10t23.5 -12l157 159v15q0 6 1.5 13t1.5 11q0 33 -8.5 89.5t-28 109.5t-50 92t-73.5 39q-16 0 -22.5 -8t-9.5 -18.5t-8 -18.5t-18 -8q-2 0 -6 1t-6 1q-20 37 -38.5 77.5t-28.5 81.5q-20 -6 -24.5 -22t-7.5 -32.5t-14.5 -29t-46.5 -12.5v141 q0 4 18.5 12.5t28.5 10.5q2 0 28 1t40 1q92 0 175 -40t145.5 -106.5t99.5 -151.5t37 -173q0 -10 -1 -30.5t-1 -22.5q0 -4 -11.5 -22.5t-11.5 -22.5t11.5 -23.5t11.5 -23.5q0 -10 -20.5 -36t-45 -52.5t-46 -47t-23.5 -22.5q-10 -10 -34 -32.5t-51.5 -48.5t-52 -48.5 t-34.5 -30.5v68q-16 -27 -42 -59.5t-59 -32.5q-39 0 -67.5 13t-69.5 13q-29 0 -60.5 -1t-54.5 -23q-41 45 -103.5 97t-120.5 110.5t-100 123t-42 134.5v8zM1073 57q16 0 16.5 -22.5t-16.5 -22.5q-16 0 -16 22.5t16 22.5zM276 82q8 0 12.5 -7t4.5 -16.5t-4 -16.5t-13 -7 q-8 0 -12 7t-4 16.5t4 16.5t12 7zM1006 422q-18 0 -18.5 -22.5t18.5 -22.5q16 0 16 22.5t-16 22.5zM846 537q16 0 16 -22.5t-16 -22.5t-16 22.5t16 22.5zM117 924q8 0 12 -7.5t4 -16.5t-4 -16t-12 -7t-12.5 7t-4.5 16t4.5 16.5t12.5 7.5zM276 1219q16 0 16.5 -22.5 t-16.5 -22.5q-16 0 -16 22.5t16 22.5zM1051 1446q10 -4 10 -11.5t-10 -11.5t-10 11.5t10 11.5z" />
<glyph unicode="7" horiz-adv-x="1241" d="M299 -98q23 16 36 55t22.5 90t16.5 108.5t20.5 109.5t32.5 94t54 65q14 8 23.5 27.5t15.5 42t8 44t2 37.5q20 0 54 26t70 60.5t63.5 70.5t36.5 56q10 23 25.5 42.5t30.5 38t26.5 41t11.5 51.5t-6 46t-41 31q18 4 38.5 18.5t39 33t34 36t23.5 27.5q-23 16 -41 38.5 t-27 51.5q-29 -4 -46 -21.5t-21 -45.5q-4 4 -13.5 14t-20.5 20.5t-21.5 19.5t-14.5 13h-4h-4q-2 0 -2 2q-12 0 -17.5 -8t-8.5 -17.5t-9 -16.5t-20 -7q-4 0 -13.5 1t-11.5 1q-4 2 -22.5 12.5t-22.5 10.5q-10 0 -37 1t-55.5 1t-54 -1t-35.5 -1l-23 22q-12 -14 -27.5 -36.5 t-31 -46t-25.5 -47t-10 -40.5v-6q0 -2 2 -6t10 -12.5t13 -10.5q-4 -2 -12.5 -10t-10.5 -12q-4 -6 -14.5 -22.5t-20.5 -34t-20.5 -34t-12.5 -22.5q-4 -4 -17 -6t-17 -2q-10 0 -27.5 17.5t-34 41t-29 47t-12.5 37.5q0 31 4 87.5t15.5 117t29 111.5t43.5 71q10 4 39 11.5 t61.5 14.5t62.5 12l42 7q2 0 15.5 1.5t17.5 1.5q37 0 63.5 -13.5t61.5 -13.5t58.5 13.5t56.5 13.5t61.5 -13.5t62.5 -13.5q35 0 68 13.5t70 13.5q27 0 45 -12.5t45 -12.5h12q4 2 22.5 10t22.5 12q-14 -23 -2 -35t32.5 -20t40 -15t19.5 -20q0 -8 -8 -24.5t-14 -20.5h51 q0 -49 -9 -105t-23.5 -113.5t-32 -113t-31.5 -100.5q-23 -70 -69 -134t-101.5 -129t-113.5 -128t-106.5 -129t-79 -134.5t-30.5 -142.5q0 -4 3 -21t8 -35.5t8 -36t3 -21.5q0 -6 -3 -25.5t-7 -43t-8 -43t-4 -25.5v-12.5v-21.5v-21.5v-12.5q-4 -4 -12.5 -13.5t-12.5 -9.5h-204 q-8 31 -22.5 73t-45.5 65zM664 -145q10 -4 10 -11.5t-10 -11.5q-6 -2 -8.5 2t-2.5 9t2.5 9.5t8.5 2.5zM686 289q10 -4 10 -12.5t-10 -12.5q-10 -2 -10 12.5t10 12.5zM1073 856q16 0 16.5 -22.5t-16.5 -22.5q-16 0 -16 22.5t16 22.5zM231 1425q-16 0 -16 -22.5t16 -22.5 t16 22.5t-16 22.5z" />
<glyph unicode="8" horiz-adv-x="1296" d="M80 303q0 20 5 14t12 -10t12.5 8.5t5.5 71.5q-4 0 -5 -3t-6 -1q-4 2 -12 10t-10 13q33 35 46 75.5t20.5 83.5t16.5 84t32 76q2 2 11 5t21.5 6t22.5 6t12 6q45 35 76 93t31 105q-25 0 -38.5 -7t-20.5 -9t-12 6t-13 39q-2 6 -5 24.5t-7.5 40t-7.5 42t-3 30.5v33 q0 37 20.5 100.5t55.5 125t80 106.5t94 45h320q2 0 10 -9.5t12 -13.5q2 -4 10 -24.5t13 -22.5h16t29.5 1t29 1t15.5 -2q6 -4 22.5 -50t36 -102.5t41 -105.5t37.5 -59q-4 0 -22.5 -9.5t-22.5 -13.5q-2 -2 -2 -4v-8v-6q0 -2 2 -4q2 -4 10 -12.5t12 -12.5q-6 -4 -23.5 -20.5 t-21.5 -24.5v-10v-13q2 -4 10.5 -22.5t12.5 -22.5q-27 6 -41 -12t-20.5 -45t-6.5 -53.5v-38.5q0 -2 15.5 -23.5t38 -55.5t50 -76t50 -85t38 -84t15.5 -71q0 -27 -7 -69t-19.5 -87t-30 -84t-37.5 -57q-23 -23 -45.5 -41.5t-38.5 -40t-26.5 -47t-10.5 -64.5h-18.5t-25.5 3 t-24.5 10.5t-15.5 19.5l-45 -115q-2 -2 -4 -2h-6h-8q-2 0 -4 2t-8.5 9.5t-13.5 15.5t-14 15t-10 7q-25 4 -53 -6t-54 -25.5t-46.5 -28.5t-28.5 -13q-10 0 -14 2q-4 0 -8 2t-12.5 22.5t-12.5 24.5q-4 2 -20.5 5t-36 6t-35.5 6t-21 5q-2 0 -10 8.5t-12 14.5q-23 31 -49.5 54.5 t-56 45t-60.5 46t-61 59.5q-18 20 -30.5 42.5t-25 47t-26 48t-33.5 44.5q-2 2 -2 4v6zM1083 88q8 0 12.5 -7t4.5 -16.5t-4 -16.5t-13 -7q-8 0 -12 7t-4 16.5t4 16.5t12 7zM307 342q0 -2 2 -4q4 -4 23.5 -11.5t21.5 -11.5q4 -4 1 -22.5t-1 -22.5q2 -10 9.5 -24.5t14.5 -28.5 t13 -25.5t10 -13.5q2 -2 15.5 -2t29 1t28.5 1h18q27 -10 28.5 -22.5t8 -22.5t33 -17t100.5 -7h20t30.5 1t31 1h20.5q2 4 9 14t14.5 20.5t13.5 19.5t10 13q8 12 27.5 16.5t39 7.5t34 9t14.5 22q0 2 -1 4.5t-1 4.5v4q-2 4 -11.5 23.5t-11.5 23.5v10v12q0 4 4 24.5t8.5 43.5 t7.5 43t3 25q0 57 -18.5 110t-52.5 95t-82 67t-109 25h-11q-4 -2 -22.5 -12.5t-22.5 -10.5h-17.5t-28.5 1t-29.5 1t-16.5 -2q-16 -10 -20.5 -30.5t-8.5 -37t-16 -25.5t-45 1q-16 -35 -46 -83t-69 -75q29 -14 39 -29.5t10 -39.5q0 -16 -8 -21.5t-17 -9.5t-17.5 -9.5 t-8.5 -17.5v-6zM821 295q2 0 6 -1t7 -1l-46 -70v13v10q4 10 11.5 27.5t11.5 19.5h4q2 0 3 1t3 1zM834 610v-22h-23v22h23zM696 702q10 -4 10.5 -11t-10.5 -11q-10 -4 -10 10t10 12zM389 1116q0 -4 4 -2t8 -2q55 -37 67.5 -48t11.5 -18.5t0 -19.5t34 -51l22.5 -22.5l35 -35 l35 -35l22.5 -22.5q10 31 28.5 47.5t36 29.5t30.5 30.5t13 48.5q39 0 66.5 -3t44 6t24 36.5t7.5 89.5v12q0 8 -3.5 27.5t-7.5 41t-7 41t-5 27.5q-4 -4 -22.5 -12t-22.5 -12h-12q-12 0 -23.5 18.5t-29 40t-43 39.5t-64.5 18q-2 0 -3 -1t-3 -1h-4q-4 -4 -12.5 -22.5 t-10.5 -22.5q-4 -6 -12 -14t-10 -8q-47 -16 -67.5 -49t-34 -67t-32 -59.5t-61.5 -25.5zM584 975q10 -4 10 -11.5t-10 -11.5t-10 11.5t10 11.5zM696 1270q16 0 16.5 -22.5t-16.5 -22.5q-16 0 -16 22.5t16 22.5z" />
<glyph unicode="9" horiz-adv-x="1241" d="M223 -121q0 37 38 59.5t88 39t99.5 29.5t71.5 32q8 6 35 32.5t62.5 63.5t75.5 79t73 79t54.5 64.5t21.5 33.5q0 14 -8.5 22.5t-17.5 15.5t-17 16.5t-8 25.5q0 4 2 12.5t2 10.5q4 -4 21.5 -12.5t23.5 -10.5q4 0 11 2t11 2v66q-4 -8 -21.5 -17.5t-23.5 -7.5q-4 2 -10 8 l-14.5 14.5t-14.5 15.5t-8 9t-11 -3t-11 -5v-61q-61 0 -86 -10.5t-34.5 -24t-15.5 -24.5t-34 -11h-7q-2 0 -6 2q-4 4 -11 23.5t-11 21.5t-20.5 5t-36 6t-36 6.5t-20.5 5.5t-11 22.5t-11 24.5q-16 10 -41 18t-50.5 15.5t-51 15.5t-40.5 18q-29 18 -54.5 62.5t-43.5 95.5 t-29.5 102.5t-11.5 85.5q0 14 16.5 64.5t36 107t39 104.5t25.5 60q12 23 27.5 33t33 18.5t36.5 21.5t38 42q2 4 10 12t12 10l25 -22q18 27 48 44t63.5 27.5t67.5 14.5t59 4h12q4 -2 22.5 -12t22.5 -10q2 0 11 10t11 12h7q2 0 3 1t3 1q27 0 60.5 -28.5t70.5 -62.5t76 -63.5 t77 -29.5q8 -41 28 -80t38 -79t32.5 -80t14.5 -79q0 -10 -9 -35.5t-13 -33.5h8q0 -8 5 -33t9 -35q0 -2 7 -8t15.5 -14.5t15.5 -14.5t7 -8q2 -4 -6 -22.5t-16 -22.5q-4 -4 -17.5 4t-19.5 8q0 -14 -5.5 -23t-5.5 -15.5t9.5 -11.5t38.5 -9q-10 -2 -22.5 -55.5t-26 -121 t-24.5 -129t-18 -79.5q-4 -8 -23.5 -38t-48 -71t-62 -86t-66.5 -86t-58.5 -69.5t-37.5 -36.5q-6 -4 -23.5 -12.5t-22.5 -10.5q-39 -10 -50 -29.5t-17 -38t-18.5 -32.5t-51.5 -14h-295q-29 0 -38 23.5t-9 43.5zM543 631q-16 0 -16.5 -22.5t16.5 -22.5q16 0 16 22.5t-16 22.5z M248 973q31 -49 36 -76t8 -46.5t14 -41t54 -64.5q47 -47 91.5 -58t88.5 -11t89 -5t96 -40q43 51 81 85t65.5 70.5t44 84t16.5 126.5q0 66 -18.5 109t-73.5 72q-4 2 -12.5 10t-10.5 12t0 22.5t0 22.5q-14 20 -31.5 24.5t-36 6.5t-36 7t-33.5 30q-2 4 -10 12t-13 10 q0 -4 -9 -21.5t-13 -23.5q-4 -2 -6 -2h-6h-7q-2 0 -4 2q-4 4 -23.5 22.5t-23.5 22.5q-2 0 -4 2h-4q-2 0 -2 2q-2 0 -3 -1t-3 -1q-2 -2 -6 -2q-4 -4 -12.5 -22.5t-10.5 -22.5q-4 -4 -12 -13t-10 -9q-23 -6 -42.5 -8.5t-32.5 -9.5t-18.5 -23.5t3.5 -48.5q-41 12 -65 -10.5 t-39 -59.5t-26.5 -76t-29.5 -59zM360 676q-16 0 -16 -22.5t16 -22.5q18 0 18 22.5t-18 22.5zM840 836q16 0 16 -22.5t-16 -22.5t-16 22.5t16 22.5zM360 858q18 0 18.5 -22.5t-18.5 -22.5q-16 0 -16 22.5t16 22.5zM430 1335v25h-22z" />
<glyph unicode=":" horiz-adv-x="698" d="M160 111q-2 0 -3 -1t-3 -1h-7q-4 -4 -13 -21.5t-9 -24.5q4 25 1 44.5t-9 38t-11.5 38t-5.5 41.5q0 14 12.5 46t31 65t39 59.5t34.5 32.5h12.5t21.5 -1t21.5 -1t12.5 2q29 12 36 28.5t7 33t2 31t22 20.5q27 -41 52.5 -54.5t48 -21.5t43 -18.5t39.5 -43.5q2 -4 12 -24.5 t20.5 -46t20.5 -50t16 -36.5v-6v-4q0 -2 2 -3q0 -27 -28.5 -63.5t-68.5 -71.5t-84 -59.5t-73 -24.5q-33 0 -62.5 15.5t-54 33t-44 33t-31.5 15.5zM352 451q-8 0 -12 -7.5t-4 -16.5t4 -16.5t12 -7.5t12.5 7.5t4.5 16.5t-4.5 16.5t-12.5 7.5zM145 928q0 47 5.5 83t44.5 76 q6 -4 24.5 5.5t41 23.5t45 26.5t36.5 12.5q51 0 98 -22.5t82 -59.5t51.5 -86t6.5 -104q0 -4 -10.5 -17.5t-22.5 -29t-22.5 -28.5t-12.5 -17t-6 -13.5t-4 -13.5q-43 0 -86 -21.5t-64 -64.5l23 -23q-4 -2 -16.5 -4t-16.5 -2q-27 0 -33 3t-7 11.5t-7 22.5t-33 37 q-35 27 -57.5 40t-35.5 29.5t-18.5 46.5t-5.5 89zM330 1042q-4 2 -7.5 -2t-3.5 -10t3.5 -10t7.5 -2q10 4 10 12t-10 12z" />
<glyph unicode="=" horiz-adv-x="1316" d="M375 293q-4 2 -22.5 -9.5t-22.5 -13.5q-2 0 -10.5 -1t-12.5 -1h-14q-4 0 -8 2q-8 2 -27.5 11.5t-41 20.5t-41 21.5t-28.5 14.5q0 4 -1 17.5t-1 17.5q0 25 20.5 60.5t48.5 68.5t56.5 55.5t44.5 22.5q0 -45 19.5 -62.5t49.5 -19.5t64.5 3t63.5 5v51q25 0 47.5 -15.5 t20.5 -43.5h194v67q23 -6 37 -25.5t20 -41.5q6 0 32 -1t36 -1q47 0 64.5 11t22.5 23.5t7 23.5t19 11q29 0 51 -27.5t41 -39.5q2 -2 11 -1t11 1q10 -2 36 -10.5t32 -12.5q0 -8 1 -29.5t1 -27.5q0 -43 -4 -73t-21 -75q-2 0 -10 -1t-12 -1q-23 0 -30 12.5t-27 12.5 q-35 0 -63 -12.5t-73 -12.5q-10 0 -40.5 1t-38.5 1q-2 4 -10.5 12.5t-12.5 10.5h-6h-4q-2 0 -2 2q-2 0 -3 -1t-3 -1h-5q-4 -2 -12 -11.5t-12 -11.5h-10h-13q-4 2 -22.5 12.5t-22.5 10.5q-2 0 -11 -10.5t-11 -12.5q-4 -4 -22.5 -12t-22.5 -10h-13h-10q-4 4 -22.5 23.5 t-24.5 21.5q-4 2 -22.5 -10.5t-22.5 -12.5q-2 0 -12 4.5t-21.5 8.5t-21.5 7t-13 3q-2 0 -9 -7t-14 -14.5t-13.5 -14.5t-8.5 -9q-4 -2 -6 -2q-2 -2 -4 -2h-2q-4 0 -6 2q-2 0 -4 2q-4 4 -22.5 23.5t-24.5 21.5zM422 633q16 0 16 -22.5t-16 -22.5q-18 0 -18 22.5t18 22.5z M422 680q8 0 12 -7t4 -16.5t-4 -16.5t-12 -7q-10 0 -14.5 7t-4.5 16.5t4.5 16.5t14.5 7zM125 805q0 43 19.5 78t52 61.5t73.5 40.5t82 14q4 0 7 -1t8 -1h8q4 0 17.5 -7t28.5 -15t28.5 -15.5t17.5 -7.5t22.5 10.5t22.5 12.5h20q78 0 152 -12.5t152 -12.5q57 0 93 13.5 t83 13.5q25 0 57.5 -13.5t60 -35t47 -48t19.5 -53.5q0 -12 -22.5 -33.5t-52 -42t-57.5 -36t-38 -15.5q-6 0 -20.5 1t-16.5 1q-4 0 -22.5 11.5t-22.5 11.5q-2 0 -11 -10t-11 -13h-13h-10l-45 23h-12h-11q-4 -2 -23.5 -11t-23.5 -12h-10q-14 0 -40.5 5.5t-55.5 12.5t-56.5 14 t-41.5 14q0 -4 -8.5 -22.5t-14.5 -23.5q-2 -2 -4 -2h-4h-8q-4 0 -6 2l-46 23h-12h-10q-4 -2 -22.5 -12.5t-22.5 -10.5t-23.5 11.5t-23.5 11.5t-22.5 -10t-22.5 -13q-2 0 -11.5 -1t-13.5 -1q-14 0 -38.5 13.5t-52.5 30t-52.5 30.5t-36.5 19v12z" />
<glyph unicode="?" horiz-adv-x="1067" d="M287 143q0 20 4 49t11 60t15.5 58.5t16.5 49.5q4 -6 21.5 -15t25.5 -7q4 2 20.5 19.5t24.5 25.5v10v13q0 4 -4 21t-7 35.5t-7.5 36t-4.5 21.5v10q0 72 28 125.5t68 93t88 70.5t88 56.5t67.5 48t27.5 49.5q0 39 -5 67.5t-22 71.5q-20 -12 -47.5 3t-58.5 35.5t-62.5 39 t-58.5 12.5q-4 0 -14 -6t-21.5 -13t-20.5 -14.5t-11 -11.5l-23 23q-6 0 -13 -30t-17.5 -68t-26 -75.5t-35.5 -54.5q-4 -2 -17.5 -15t-29 -29.5t-28.5 -31t-15 -16.5t-4 -2h-9h-6q-2 0 -4 2q-41 20 -70.5 27.5t-50 19t-31 38t-10.5 87.5q0 6 1 27.5t1 30.5q4 0 22.5 24.5 t46.5 61t63.5 82t74.5 85t80 70.5t78 39h15.5h28.5h28.5h17.5q6 2 19.5 8t28 13.5t27.5 14.5t17 11q-10 -8 -6 -16t17.5 -15.5t35 -15.5t45.5 -14q55 -16 136 -31q14 -10 31.5 -34.5t35 -53.5t29.5 -55.5t16 -38.5q23 12 36 -8.5t13 -36.5q0 -35 -14 -38t-41 -3q0 -45 3 -76 t4 -57.5t-4 -54t-19 -66.5q-8 -20 -20.5 -39t-25 -37t-20.5 -38.5t-8 -45.5h-61v23q-29 -12 -36 -35t-11.5 -44.5t-17.5 -38t-54 -16.5q0 -49 -18.5 -77.5t-42 -47t-42 -29.5t-18.5 -26q31 0 53.5 10.5t50.5 10.5q20 0 40 -23.5t36.5 -54.5t26.5 -61.5t10 -45.5 q0 -66 -26.5 -117t-70.5 -85.5t-100.5 -54t-115.5 -19.5q-16 0 -45 15.5t-56.5 39t-47 49t-19.5 45.5zM494 475q-8 0 -12.5 -7t-4.5 -16.5t4 -16.5t13 -7q8 0 12 7t4 16.5t-4 16.5t-12 7zM608 907l-22 -22v22h22zM334 930q18 0 18 -22.5t-18 -22.5q-16 0 -16 22.5t16 22.5z M381 952q16 0 16 -22.5t-16 -22.5t-16 22.5t16 22.5zM563 1112q8 0 12.5 -7t4.5 -16.5t-4.5 -16.5t-12.5 -7q-10 0 -14 7t-4 16.5t4 16.5t14 7zM903 1270q-16 0 -16 -22.5t16 -22.5t16 22.5t-16 22.5z" />
<glyph unicode="A" horiz-adv-x="1218" d="M86 2q-29 39 -38 61.5t-9 61.5q0 33 8 49t22.5 27.5t30 21.5t31.5 29q16 20 25.5 43.5t17.5 46.5t18.5 41t30.5 29q4 2 12.5 10t10.5 12v4q0 2 1 4t1 4q-2 0 -2 3v4v4l-23 22v13q0 29 8.5 85t25.5 115.5t43 108.5t60 65v250q4 2 12.5 10.5t10.5 12.5q4 8 12 22.5 t15.5 28.5t12.5 26.5t5 14.5q0 4 -10 22.5t-12 22.5q-2 2 -3 6v8q0 4 9.5 12.5t21.5 18.5t23.5 22.5t15.5 24.5q8 20 11 33.5t34 13.5q68 0 128.5 -29.5t98.5 -87.5q10 -14 22.5 -36.5t24 -44t18.5 -37t5 -17.5l-22 -24q6 -20 28.5 -24.5t38.5 -4.5v-16h-12 q0 -174 27.5 -348.5t99.5 -333.5q16 -35 50 -75t68.5 -81t61.5 -80t27 -74q0 -31 -4 -59.5t-45 -40.5h-34t-51.5 -1t-52 -1h-32.5h-128.5t-102.5 11.5t-86 40t-81 87.5q6 20 36 24.5t62.5 13.5t59.5 34t27 86q0 6 -2.5 23.5t-2.5 23.5q4 -29 -9 -40t-36 -11q-16 0 -24 12 t-14.5 26.5t-11.5 26t-17 9.5l-137 -23q0 -10 -9.5 -35.5t-13.5 -34.5q-6 -10 -16 -10q0 16 -3 43t-26 37q-18 -8 -21.5 -20.5t-3.5 -26.5q0 -39 18.5 -60.5t40 -41t40 -43t18.5 -62.5q0 -41 -19.5 -63.5t-49 -32.5t-66.5 -12t-72 -2q-12 0 -43.5 3t-68.5 6t-70 7t-45 6z M156 70q-18 0 -18.5 -22.5t18.5 -22.5q16 0 16 22.5t-16 22.5zM598 934q-49 0 -71.5 -34t-30 -81t-5 -96t2.5 -80q0 -14 1 -42t1 -30l22 -22q8 18 18.5 36.5t28.5 30.5q16 -10 21.5 -23t5.5 -30q41 0 63.5 29t22.5 70q0 2 -3 12t-7 21.5t-8.5 21.5t-4.5 12q-2 12 -8 41 t-14 61.5t-14.5 61.5t-8.5 41h-12zM928 707q-4 -10 -11.5 -10.5t-11.5 10.5q-2 6 2 8t9.5 2t9.5 -2t2 -8zM588 799q-2 -10 -11.5 -10.5t-11.5 10.5q-4 10 10.5 10t12.5 -10zM700 844q-16 0 -16 -22.5t16 -22.5t16 22.5t-16 22.5zM313 1004q10 -4 10.5 -11.5t-10.5 -11.5 q-10 -4 -10 10.5t10 12.5zM610 1071q-16 -12 -27.5 -30.5t-17.5 -36.5h45v67z" />
<glyph unicode="B" horiz-adv-x="1286" d="M66 141q0 59 4 74.5t15 13.5t28.5 -7t44.5 11q2 2 9 12.5t14 22t13.5 21.5t10.5 12q4 4 17.5 -6t17.5 -10q0 6 2 25.5t4 41t3 39t1 23.5q0 4 -10.5 12t-12.5 12q-2 2 -2 4v7v6q0 2 2 6q25 49 36 109.5t14.5 124t0 127t-5.5 116.5q20 20 22.5 43t2.5 47q0 20 -2 53t-7 68 t-14.5 64.5t-23.5 43.5l-68 -47q-53 35 -63 72t-10 88q0 10 1 36t3 32q4 6 21.5 15t23.5 9t18 -3t27.5 -6t28 -8t18.5 -7q2 6 10 24.5t12 22.5h4q2 0 2.5 1t2.5 1t5 -1t5 -1h4q4 -2 22.5 -12.5t22.5 -10.5q4 -2 17.5 -2t28.5 1t28.5 1h17.5q2 -2 8 -9t14.5 -15t14.5 -15.5 t8 -7.5q4 -2 22.5 10.5t22.5 12.5q2 2 12.5 2t22.5 -1t21.5 -1h13.5q2 2 8 9t13.5 15t13.5 15.5t10 7.5q2 0 15.5 -7.5t28.5 -16.5t28.5 -16t17.5 -7q2 0 9 7t14.5 15t13.5 16.5t8 8.5t12.5 -3t22.5 -7.5t21.5 -8.5t13.5 -4q8 -4 33.5 -4t33.5 4q57 -47 91 -95t56.5 -99 t44 -104.5t58.5 -110.5q-25 -31 -38 -53.5t-20 -43t-9 -43t-2 -51.5q0 -20 3 -50t11 -59.5t21.5 -53t33.5 -33.5l-22 -23q57 -39 75.5 -97.5t18.5 -119.5q0 -55 -20.5 -107.5t-54.5 -100.5t-75 -91t-80 -76q-23 8 -42 1t-37.5 -18t-38 -21.5t-41.5 -10.5q-35 0 -61.5 14.5 t-63.5 14.5q-25 0 -45.5 -4t-40 -10.5t-40 -10.5t-46.5 -4q-39 0 -64.5 13.5t-60.5 13.5h-10q-4 -4 -23.5 -14.5t-24.5 -10.5q-4 0 -22 12.5t-23 12.5q-43 4 -88 1t-80.5 2t-59 28.5t-23.5 80.5zM455 324q14 -8 20 -26.5t11.5 -38t12.5 -35t23 -15.5h160q14 0 18.5 8 t4.5 19.5t-3.5 20.5t-3.5 13q2 0 14.5 5.5t14.5 3.5l45 -46q4 -2 6 -2q2 -2 6 -2h2q2 0 5 2q2 0 6 2q4 4 21.5 23.5t23.5 22.5q4 2 22.5 -9.5t22.5 -13.5q2 -2 4 -2h10h4q2 0 4 2t5.5 12.5t6.5 22.5t6 21.5t5 11.5q31 31 49 36t28.5 14t13.5 35.5t3 96.5v18.5t-1 26.5 t-1 27.5v17.5q-2 4 -10 12t-13 10q-4 0 -6 3h-4q-2 0 -2 2q-2 0 -3 -1t-3 -1q-2 -2 -6 -3q-4 -2 -12.5 -10t-10.5 -12q-10 29 -22 43t-29.5 20.5t-37 7.5t-40.5 1q-31 0 -48 -3t-30.5 -6.5t-29 -6.5t-39.5 -3q0 4 3 8.5t1 8.5t-11 13t-12 9h-159q0 -6 -3 -22.5t-7.5 -35 t-7.5 -34.5t-5 -23q-2 -4 -12 -22.5t-10 -22.5t7 -13t15 -20.5t15.5 -21.5t7.5 -12t1 -19.5t1 -27.5q0 -29 -5 -53.5t-42 -36.5zM592 346l-25 -22v22h25zM842 346q10 -4 10 -11t-10 -11t-10 11t10 11zM977 414q-14 -27 -45 -27v27h45zM545 528q0 2 -1 5.5t-1 7.5v6q0 2 2 4 q2 4 10 12t12 10zM864 573v-22l-22 22h22zM475 1016q0 -55 19.5 -82t48 -36t63.5 -6t65.5 5t52 -1t26.5 -26l47 91h4q2 0 2 1t2 1q0 -2 2 -2h6h6l45 -23q2 -2 4 -2h11q8 0 21 26.5t25.5 60.5t21.5 65.5t9 41.5q0 8 -1 30t-1 28q-35 10 -64.5 38.5t-47.5 53.5 q-16 -12 -27.5 -30.5t-17.5 -39.5q-4 8 -21.5 25.5t-25.5 21.5h-5h-4q-2 0 -2 3q-2 0 -3 -1.5t-3 -1.5h-6q-2 -2 -12 -10t-21.5 -16t-21.5 -14.5t-13 -6.5q-4 0 -14 7.5t-20.5 16.5t-20.5 16t-12 7q-45 -6 -68.5 -32.5t-35 -62.5t-12.5 -75.5t-1 -70.5zM545 961 q10 -4 10 -11.5t-10 -11.5t-10 11.5t10 11.5zM682 1075q8 0 12 -7t4 -16.5t-4 -16.5t-12 -7t-12 7t-4 16.5t4 16.5t12 7z" />
<glyph unicode="C" horiz-adv-x="1148" d="M354 98q-8 2 -25.5 -7t-21.5 -15q8 10 -10 34.5t-44 53.5t-50.5 55.5t-30.5 38.5q-59 117 -88 260.5t-29 282.5q0 113 17.5 189.5t46 140t65.5 129t78 157.5q2 -4 10.5 -12t12.5 -10t6 -2h6q4 0 26.5 14t47 31.5t47 32t26.5 16.5h21.5t36 -1t36 -1t21.5 2q2 0 9 7 l14.5 14.5t13.5 14.5t8 9h4q2 0 3 1t3 1q0 -2 2 -2h5h6q27 -16 51 -32.5t50 -31t54.5 -22.5t63.5 -8h4q2 0 4 2l45 92q14 -29 33.5 -42t40 -20.5t40 -13.5t36 -20.5t25.5 -42t9 -78.5q0 -47 -20.5 -95.5t-26.5 -97.5q-6 -41 -8 -74.5t-14.5 -58t-40 -38t-84.5 -13.5 q-4 0 -17.5 1t-17.5 1q-20 45 -44 101.5t-56.5 103.5t-74.5 79.5t-97 32.5q-20 0 -55 -5t-69 -17t-58.5 -31.5t-24.5 -48.5v-6q0 -2 2 -4l22 -23v-6v-4q0 -2 2 -2q0 -2 -1 -3t-1 -3v-4q-23 -35 -43 -76t-36.5 -84t-25.5 -86t-9 -82q0 -41 5 -71.5t10 -59.5t8 -59.5t-1 -73.5 q29 4 44.5 -17.5t21.5 -52t6 -62.5t-2 -50q23 -6 55.5 -14.5t67.5 -14.5t68.5 -11t58.5 -5q18 0 54 24.5t74 58t66.5 67.5t32.5 54q0 2 -2 19.5t-2 37t5 36t22 20.5h12h21.5h21.5h12q6 2 16.5 12.5l20.5 20.5t19.5 20.5t13.5 16.5q27 -33 41 -57.5t20 -47t7 -48.5t1 -58 q0 -80 -41 -160t-105.5 -145.5t-145 -106.5t-160.5 -41q-23 0 -54.5 2t-64.5 7t-62.5 14.5t-50.5 25.5q-2 2 -8 9.5t-13 14.5t-14.5 14t-9.5 7zM444 371q-2 -10 -11 -10.5t-11 10.5q-2 10 11 10t11 -10zM582 371h-23v22zM694 393q16 0 16.5 -22.5t-16.5 -22.5 q-16 0 -16 22.5t16 22.5zM444 485q8 0 12.5 -7t4.5 -16t-4 -16.5t-13 -7.5q-8 0 -12 7.5t-4 16.5t4 16t12 7zM649 463q-2 -10 -11 -10t-11 10t11 10t11 -10z" />
<glyph unicode="D" horiz-adv-x="1306" d="M90 104q0 78 55.5 129.5t126.5 65.5l11 365l8 67v342q4 2 14 10.5t12 12.5v8v14q-2 8 -5 22.5t-7 29t-7 25.5t-3 13q-2 6 -10.5 14.5t-12.5 8.5t-22.5 -10.5t-22.5 -12.5t-6 -2h-6q-10 0 -22.5 9.5t-25.5 21.5t-26.5 24.5t-27.5 16.5q-2 16 2 50t14 69t30.5 60.5 t53.5 25.5q37 0 68.5 -13.5t70.5 -13.5q35 0 58.5 13.5t54.5 13.5h12q4 -4 22.5 -12.5t22.5 -12.5h13h10q4 4 22.5 14.5t22.5 10.5t12 -12.5t12 -12.5q4 -2 9 -2h14q12 0 19.5 4t13.5 10.5t14 10.5t21 4q33 0 81 -20.5t101 -53.5t106.5 -75t97.5 -85t74.5 -84t38.5 -71 q6 -20 13.5 -74.5t15.5 -116t13 -118t5 -78.5q0 -96 -28.5 -195.5t-82 -186.5t-129 -156t-169.5 -99q-37 -12 -81 -12.5t-79 -10.5q-2 -2 -12.5 -9t-21.5 -15.5t-21.5 -15.5t-12.5 -7q-4 0 -14 7t-20.5 16.5t-20.5 16.5t-14 7q-10 0 -27.5 -18.5t-17.5 -28.5q-10 0 -40 -1 t-40 -1q-23 0 -76 8t-110.5 22.5t-100.5 34t-43 39.5zM528 311q27 0 42.5 -9t27.5 -21.5t24.5 -21.5t34.5 -9q82 0 145.5 51t108.5 126t69 158t24 148q0 8 -1.5 22.5t-1.5 29t-1 25.5l-1 11q0 2 -4 12.5t-8 22.5t-7 21.5t-3 13.5q2 8 19.5 17.5t27.5 4.5q-14 35 -30.5 72 t-51.5 37q0 27 2 41t5 23.5t5 17.5t2 24q0 12 -10 19.5t-22.5 14.5t-23.5 17.5t-13 28.5q-16 0 -53 11.5t-76 24.5t-72 24.5t-39 11.5q-18 0 -43.5 -18.5t-48.5 -44t-39 -53t-16 -46.5v-364l-23 -23q6 -4 23.5 -21.5t21.5 -23.5v-10v-12q0 -4 -8 -18.5t-16.5 -32t-15.5 -33 t-7 -19.5q0 -27 8.5 -57.5t18.5 -63t18 -65.5t8 -64zM842 1163q16 0 16 -22.5t-16 -22.5t-16 22.5t16 22.5zM819 1186q16 0 16.5 -22.5t-16.5 -22.5q-18 0 -18 22.5t18 22.5zM90 1323q16 0 16 -22.5t-16 -22.5t-16 22.5t16 22.5z" />
<glyph unicode="E" horiz-adv-x="1298" d="M291 -23q16 0 16 -22.5t-16 -22.5t-16 22.5t16 22.5zM61 137q0 8 1 35t1 33q53 8 64.5 15t17 12.5t22.5 7.5t83 2q0 76 10 149.5t22.5 147t22.5 147.5t10 148q0 10 -1 30.5t-1 24.5t-11 22.5t-11 22.5q0 10 15.5 16t34.5 10.5t37.5 8.5t27.5 10q-10 0 -29 5t-37 14.5 t-32.5 21.5t-16.5 27q0 6 5 22t12 34.5t15.5 35t12.5 22.5q-14 -14 -31.5 9.5t-34 59.5t-30 70.5t-17.5 42.5q-16 -12 -27.5 -30.5t-17.5 -38.5q-23 29 -36 55.5t-13 61.5q0 12 18.5 25.5t42 22.5t46 14t32.5 3q2 0 15.5 -7t29 -15.5t28.5 -15.5t17 -7q16 -2 39 4t47.5 15.5 t47 17.5t38.5 8h11q10 -4 35.5 -20.5t33.5 -24.5q6 18 17.5 37.5t27.5 30.5l45 -45l45 45l93 -90q8 16 29.5 29.5t46 21.5t50 12t44.5 4q74 0 116.5 -36t65 -90t29 -118.5t6.5 -121.5v-55.5t-6.5 -58.5t-22.5 -46.5t-51 -18.5q-6 0 -29.5 20.5t-51.5 46.5t-49.5 52.5 t-21.5 38.5q0 10 2 27.5t2 19.5q0 4 11.5 22.5t11.5 22.5t-11.5 22.5t-11.5 22.5q-4 8 1.5 35t5.5 33h-281q-4 -4 -22.5 -12.5t-22.5 -10.5h-12h-11q-10 2 -35.5 10.5t-31.5 12.5q16 -31 4 -60.5t-51 -29.5q-6 0 -23.5 9t-21.5 13v-27.5t-1 -41t-1 -41v-27.5q0 -53 1 -113.5 t23 -113.5q10 31 19.5 43t21.5 16t30.5 2t47.5 -2q0 63 45 105.5t111 42.5q4 0 12 -1t10 -1q4 -6 11.5 -21.5t14.5 -34t13 -35t6 -22.5q0 -4 -10 -22.5t-12 -22.5v-10v-15l22 -180v-12q0 -45 -3 -74t-15.5 -46t-35 -23.5t-61.5 -6.5q-8 0 -34.5 1t-32.5 1q-16 25 -26.5 54.5 t-18.5 58.5q-8 0 -29.5 1t-28.5 1q-6 0 -18 1t-24.5 0t-23.5 -7t-13 -19q0 -10 -1 -44.5t-1 -45.5q0 -70 10 -134t10 -132q20 0 32.5 7t24 16.5t23.5 17.5t35 8q0 -18 4 -32.5t22 -24.5q2 10 22.5 19.5t47.5 15.5t52.5 10t37.5 4q25 0 44.5 -14.5t45.5 -14.5q4 0 12.5 2 t10.5 2q2 12 12 41t20.5 62t20.5 61.5t16 40.5q12 27 32 38t43.5 19.5t45 19.5t37.5 36q31 -16 45 -43t20.5 -58.5t6.5 -65.5v-60q0 -76 -12.5 -142.5t-45 -116t-88 -78t-141.5 -28.5h-12q-4 2 -22.5 12.5t-22.5 10.5q-2 0 -12.5 -3.5t-21.5 -8.5t-21.5 -8t-12.5 -3 q-4 0 -23.5 11.5t-23.5 11.5t-22.5 -10.5t-22.5 -12.5h-21q-53 0 -108 7t-110.5 15.5t-110 15.5t-105.5 7q-27 0 -45 -22.5t-22 -45.5q-23 35 -47.5 45.5t-45 19.5t-34 27.5t-13.5 67.5zM928 387q16 0 16 -22.5t-16 -22.5t-16 22.5t16 22.5zM610 569q-2 -10 -11 -10t-11 10 q-4 10 10 10t12 -10zM633 707h22v22h-22v-22zM358 911q-8 0 -12 -7t-4 -16t4 -16.5t12 -7.5t13.5 7.5t5.5 16.5t-5.5 16t-13.5 7zM588 1024h-25l25 23v-23zM793 1229q16 0 16 -22.5t-16 -22.5q-18 0 -18 22.5t18 22.5zM496 1274q-6 2 -8.5 -2t-2.5 -9.5t2 -9.5t9 -2 q10 4 10 11.5t-10 11.5zM358 1366q4 10 -10 10t-12 -10t11 -10t11 10zM473 1389q-10 4 -10 -11.5t10 -11.5t10 11.5t-10 11.5z" />
<glyph unicode="F" horiz-adv-x="1312" d="M94 23q-12 47 -18 78.5t-6 72.5q0 8 6 25.5t14 34t18.5 29.5t20.5 13q0 -2 2 -2h4h4q4 -2 12.5 -10t10.5 -12q-4 18 2 36.5t20.5 30t33 13.5t36.5 -13q18 74 28.5 166.5t13.5 187.5t3 184v159v8q-2 6 -8 20.5t-14.5 31t-14.5 30.5t-8 20h68q-10 23 -22.5 58t-27 67.5 t-32 56t-37.5 23.5q0 -14 -5 -24.5t-24 -10.5q-2 0 -5 1t-7 1q-29 37 -38 61.5t-9 63.5q0 33 9 42.5t24.5 9.5t37 -2.5t45.5 8.5q2 0 9.5 7t14.5 14t13 14.5t8 9.5h9h14l68 -23q10 -4 28.5 -7t37 -7t32.5 -6t16 -2t12.5 3t21.5 7t21.5 8t12.5 4t11 1t15 1q18 0 27.5 -4 t20 -10t25 -10t38.5 -4q10 0 36 2t32 2q0 4 9 22.5t13 22.5h6q2 0 3 1t3 1q0 -2 3 -2h4h6q29 -29 53.5 -36t44 -9t34.5 -9.5t25 -37.5q2 8 20.5 17t42 16.5t44 11.5t31.5 4q4 0 12 -1t10 -1q61 -18 95 -62.5t48.5 -99.5t16.5 -114.5t2 -110.5q0 -59 -20.5 -88t-83.5 -29 q-51 0 -78 20.5t-40.5 51t-16.5 67.5t-8 67.5t-17 51t-43 20.5q-16 0 -25.5 -4t-17.5 -10t-16.5 -10t-22.5 -4q-16 0 -31.5 8t-30 17.5t-31 17.5t-36.5 8q-31 0 -31 -8t-1 -18.5t-20.5 -24t-91.5 -21.5q-6 0 -18 -3t-27.5 -7t-28 -7t-18.5 -5q0 -2 -1 -5t-1 -5v-9q0 -2 2 -4 q4 -4 22.5 -11t22.5 -11q0 -4 2 -6v-5q0 -2 2 -2q0 -2 -1 -3t-1 -3q-2 -2 -2 -4l-45 -45q-2 -4 -2 -6v-6v-6q0 -2 2 -6l23 -23q4 -6 11 -21.5t14.5 -34t13.5 -34.5t8 -23q2 0 5 -1t5 -1h6q2 0 6 2q6 4 23.5 21.5t22.5 23.5l22 -22l23 67h-68v70q0 2 13.5 6t30.5 7t36.5 6.5 t32.5 3.5q14 0 38.5 -4.5t49 -13.5t45 -21.5t26.5 -30.5q-4 -2 -12 -10t-10 -13q-2 -2 -2 -4v-6v-6q0 -2 2 -6t10 -12.5t12 -10.5v-33.5t1 -51t1 -52v-33.5q0 -16 3.5 -66t-2 -104.5t-22.5 -96.5t-56 -42q-57 0 -90 19.5t-57.5 47t-50.5 60.5t-69 58q2 -8 2 -28v-41.5v-41 t-2 -27.5q0 -2 -10 -11t-12 -11v-13v-10q0 -4 4 -13t7 -21.5t7 -22.5t4 -12v-11v-12l-22 -68v-12v-10q2 -4 10 -12.5t12 -10.5q10 14 33 29.5t37 15.5q12 0 22.5 -17t17.5 -40.5t14 -46t14 -33.5q0 8 9 24.5t13 20.5q4 10 8 11q0 -39 10.5 -54.5t21.5 -21.5t21.5 -13.5 t10.5 -31.5q0 -35 -33 -56.5t-77 -36t-88 -19.5t-66 -5q-68 0 -119 5t-100.5 10t-102.5 8.5t-123 -0.5zM596 365q16 0 16 -23t-16 -23q-18 0 -18 23t18 23zM526 457q-8 0 -12 -7.5t-4 -16.5t4 -16t12 -7t12.5 7t4.5 16t-4.5 16.5t-12.5 7.5zM618 479q8 0 12.5 -7t4.5 -16.5 t-4 -16.5t-13 -7q-8 0 -12 7t-4 16.5t4 16.5t12 7zM254 752q16 0 16 -22.5t-16 -22.5t-16 22.5t16 22.5zM754 1161q16 0 16 -22.5t-16 -22.5t-16 22.5t16 22.5zM618 1251q4 6 -11 8.5t-34.5 2.5t-35 -2.5t-11.5 -8.5q6 -4 18.5 -7t28 -3t27.5 3t18 7z" />
<glyph unicode="G" horiz-adv-x="1271" d="M55 729v28.5t1 37t1 32v15.5q0 10 3 25.5t7.5 30.5t7.5 25.5t5 10.5h39q0 4 5 11t1 11l-45 45q-2 2 -2 5v6v8q0 2 2 4q6 4 23.5 13.5t21.5 9.5q4 12 11 40.5t14.5 61.5t13.5 61.5t8 40.5v12.5v21.5v21.5v12.5q2 6 10 15t13 9q4 0 22.5 -12t22.5 -12q2 0 10 9t12 15 q2 2 8 16.5t13.5 30t13.5 29t10 15.5t17.5 -2.5t29 -8.5t28.5 -8t17 -4q2 0 18.5 25.5t26.5 42.5q4 6 12.5 23.5t10.5 21.5q2 -8 19.5 -25.5t25.5 -19.5q2 0 12.5 3t22.5 7t21.5 8t13.5 4h15h28.5h29h17.5q2 0 8 4t14 8.5t14.5 8.5t8.5 2t9 -12.5t14.5 -21.5t13.5 -21.5 t10 -12.5q2 -2 15.5 -2t28.5 1t28.5 1h17.5q20 -6 36.5 -18.5t33 -23.5t35 -19.5t47.5 -8.5q20 0 39.5 5.5t13.5 42.5q16 -27 30.5 -61t14.5 -64q0 -45 -11.5 -70t-23.5 -41t-23.5 -32.5t-11.5 -45.5q0 -33 12.5 -56.5t12.5 -51.5v-11l-23 -22q-2 -4 -2 -6v-6v-6q0 -2 2 -5 q2 -4 10.5 -12t12.5 -10q-4 -4 -13.5 -10t-19.5 -13.5t-20.5 -14.5t-14.5 -9q-10 -4 -26.5 -13.5t-20.5 -9.5q-43 6 -74.5 52.5t-54 105.5t-34 120.5t-11.5 100.5q-23 0 -39 -6t-30.5 -8t-26.5 7t-25 38q10 -72 -45 -72q-18 0 -33.5 10.5t-11.5 38.5q-20 -41 -58 -54 t-78 -23.5t-73 -31t-43 -73.5q-2 -8 -5 -38t-7 -64.5t-7 -64.5t-3 -38q0 -6 -3 -22.5t-7.5 -35t-7.5 -33.5t-5 -21q18 -8 21.5 -19.5t3.5 -27.5q0 -23 -12.5 -39.5t-12.5 -38.5q0 -37 26.5 -101.5t66.5 -126t85 -106.5t84 -45q31 0 83 19.5t102.5 51t87.5 70.5t37 78 q0 45 -39 68.5t-87.5 39t-87 33t-38.5 51.5q0 2 11 11.5t11 11.5q2 10 5 33.5t3 29.5q29 0 51.5 15.5t55.5 15.5q20 0 32.5 -8t21.5 -17.5t19.5 -17.5t26.5 -8h2q2 0 4 2q2 0 6 2q4 4 13.5 21.5t9.5 23.5l45 -45q-4 18 2 28.5t16.5 14.5t23.5 4h22q27 0 51 -7t47.5 -16.5 t47.5 -16.5t52 -7h13l21 10.5t24 12.5q0 -55 -14.5 -82t-34 -44.5t-39 -38t-27.5 -63.5q0 -4 10 -23.5t12 -23.5v-10q0 -45 -12 -86t-12 -88q0 -41 12 -68.5t12 -62.5v-25q0 -6 -3 -22.5t-7 -35t-7 -34.5t-5 -22q-4 8 -21.5 16t-23.5 6q-2 0 -8.5 -7t-14.5 -15.5t-14 -15.5 t-8 -7t-13.5 3t-25.5 6t-29.5 7t-23.5 7q-4 2 -22.5 12t-22.5 10q-23 0 -40.5 -9t-34 -20.5t-31.5 -22.5t-32 -16q-23 -6 -43 -4t-39.5 4.5t-38 -1t-36.5 -21.5h22q-6 14 -45 32.5t-87 37t-95 36t-70 29.5q-25 14 -40 38t-27.5 49.5t-22.5 51t-22 43.5q-37 55 -64 106.5 t-43 105t-24.5 112.5t-8.5 133zM739 319q-8 0 -12 -7t-4 -16t4 -16.5t12 -7.5t13.5 7.5t5.5 16.5t-5.5 16t-13.5 7zM489 387q16 0 16.5 -22.5t-16.5 -22.5q-16 0 -16 22.5t16 22.5zM1059 524q-10 4 -10 -12t10 -12t10 12t-10 12zM627 569q10 -4 10 -11t-10 -11t-10 10t10 12 zM649 729q-8 0 -12 -7t-4 -16.5t4 -16.5t12 -7t12.5 7t4.5 16.5t-4.5 16.5t-12.5 7zM467 752q8 0 12 -7.5t4 -16.5t-4 -16t-12 -7t-12 7t-4 16t4 16.5t12 7.5zM831 842q10 -4 10.5 -11.5t-10.5 -11.5q-10 -4 -10 11.5t10 11.5zM354 1092q10 -4 10.5 -11.5t-10.5 -11.5 q-6 -2 -8 2t-2 9t2 9.5t8 2.5zM1059 1139q8 0 12 -7.5t4 -16.5t-4 -16t-12 -7t-12.5 7t-4.5 16t4.5 16.5t12.5 7.5zM262 1274q2 10 -11 10t-11 -10t11 -10t11 10z" />
<glyph unicode="H" horiz-adv-x="1247" d="M131 45q-8 2 -34.5 -6t-33.5 -16v141q49 0 72 14.5t30 37t6 47t1 47t13.5 36.5t45.5 14q0 35 2.5 54.5t5.5 35t6 32t3 44.5q0 20 -8.5 31.5t-17.5 22t-16 20.5t-7 27q0 35 7 73.5t16 79.5t16.5 82t7.5 82q0 31 -1 54.5t-3 48t-6.5 51t-12.5 63.5q-6 2 -23.5 10.5 t-21.5 12.5q-2 2 -2 4q-2 2 -2 6v2q0 2 2 4q0 2 2 6q4 4 21.5 12.5t23.5 10.5q-10 20 -29.5 27.5t-39 15.5t-34 22.5t-14.5 51.5q0 27 24 49t57.5 37.5t68.5 21.5t57 2q6 -2 23.5 -21.5t21.5 -23.5q4 -2 7 -2h6q18 0 26.5 13.5t32.5 13.5q2 0 5 -1t7 -1h9q4 -2 11 -23.5 t11 -21.5q6 0 17.5 2t23.5 5t23.5 7t15.5 8v-57h109q0 -37 -26 -55.5t-59.5 -24.5t-69.5 -4t-56 4q8 -4 16 -30.5t6 -37.5q-2 -6 -10 -17t-19.5 -21.5t-21.5 -18.5t-16 -10l22 -25l-45 -45l45 -45q-10 -2 -26.5 -19.5t-18.5 -25.5q-2 -12 7 -42t24.5 -61.5t33 -56 t33.5 -24.5h11q2 0 4 2q4 2 22.5 12t22.5 10t23.5 -11t23.5 -11q2 0 15 3t28.5 8t29 8t17.5 3h31.5t49 -2t49 -3t34.5 -1q0 39 7 52.5t16 22.5t17.5 22.5t8.5 50.5q-4 0 -4 -3.5t-4 -1.5t-11.5 10.5t-11.5 12.5q-4 8 -13 25.5t-9 19.5t7 8t15 14.5t15.5 14.5t7.5 8 q2 4 -10.5 22.5t-12.5 22.5q-8 41 -5 52.5t5 17.5t-1 17t-21 50q-12 20 -35 22.5t-46.5 3.5t-41 9t-17.5 45q0 31 18.5 42t43 12t48 -4t36.5 -5l-3 14q-3 13 -4 27.5t3 26.5t20 12q25 0 47.5 -14.5t46 -30.5t50 -30.5t61.5 -14.5q2 0 10 8t12 15q2 4 10.5 22.5t12.5 22.5h4 q2 0 3 1t5 1q14 0 25.5 -11.5t19 -27t11.5 -31.5t4 -29q0 -2 -1 -4t-1 -6q-2 -4 -2 -8l-136 -68v-153q-41 0 -71.5 -8.5t-30.5 -42.5h84q0 -4 -2 -11.5t-2 -11.5l-23 -45v-12q0 -12 4.5 -19.5t8.5 -14.5t8 -17.5t4 -28.5q0 -8 -1 -25.5t-1 -19.5q0 -4 -11.5 -22.5 t-11.5 -22.5t11.5 -22.5t11.5 -22.5t-8 -14.5t-16.5 -20.5t-15.5 -20.5t-7 -14.5q0 -10 18.5 -27.5t28.5 -17.5q-4 -2 -12.5 -10.5t-10.5 -12.5v-12v-10q2 -4 12.5 -22.5t10.5 -22.5t-3 -13.5t-7 -21.5t-8.5 -22.5t-4.5 -12.5t-2 -11t-2 -13q0 -8 2 -13q0 -4 2 -8 q0 -2 7.5 -12t14.5 -21.5t14 -21.5t9 -12v-13q0 -23 -12 -40t-12 -40q0 -20 25.5 -45.5t56 -51t56.5 -48.5t26 -37q0 -4 -2 -12t-2 -10q-6 -2 -21.5 -8.5t-34 -14.5t-35 -14t-22.5 -8h-12h-11q-4 2 -12 10t-10 12l-23 -45q-4 -2 -24.5 -4t-32.5 -2q-33 0 -76 3t-84 13 t-75.5 29.5t-49.5 50.5q86 31 125 101.5t49.5 156.5t5 176t-5.5 158h-129q-6 -18 -17 -36.5t-28 -31.5q-29 10 -22.5 26.5t6.5 37.5q-55 0 -81 -6t-42 -20.5t-33.5 -35t-54.5 -47.5v-182q-18 -4 -22.5 -22.5t-3.5 -38t6 -36.5l6 -18h47q0 -16 8 -36.5t22.5 -36t33 -21.5 t38.5 4q-4 -2 -12 -10t-10 -12t-2 -6v-7v-6q0 -2 2 -4l47 -47v-4v-4q0 -2 2 -2q0 -2 -1 -6t-1 -6q-27 -16 -47.5 -25.5t-39 -14.5t-38 -6.5t-45.5 -1.5q-10 0 -33 1.5t-27 1.5q-2 0 -12 4t-21.5 8t-21.5 7t-12 3t-9.5 -7t-14.5 -14.5t-13 -14.5t-8 -9q-4 -2 -6 -2h-7h-6 q-2 0 -4 2q-4 2 -17 9t-28.5 14.5t-29 14.5t-17.5 7zM678 182q10 -2 10 -11t-10 -11t-10 11t10 11zM1155 272q16 0 16 -22.5t-16 -22.5t-16 22.5t16 22.5zM768 365q10 -4 10 -11.5t-10 -11.5t-10 10.5t10 12.5zM473 705q-16 0 -16 -23t16 -23t16 23t-16 23zM655 887v-45h-22 v45h22zM973 1184q-2 4 -8.5 2t-10.5 -6t-6 -10.5t2 -8.5q10 -6 19.5 3.5t3.5 19.5zM655 1229q16 0 16.5 -22.5t-16.5 -22.5q-16 0 -16 22.5t16 22.5zM633 1251q16 0 16 -22.5t-16 -22.5t-16 22.5t16 22.5zM1133 1229q-4 -10 -11.5 -10t-11.5 10t11.5 10t11.5 -10zM678 1411 q-4 -10 -22.5 -10t-22.5 10q-4 6 4 8t17.5 2t17.5 -2t6 -8zM768 1456q18 0 18 -22.5t-18 -22.5q-16 0 -16 22.5t16 22.5z" />
<glyph unicode="I" horiz-adv-x="1042" d="M115 68v18t-1 27.5t-1 28v18.5q0 2 -1 24.5t1 48t10 46t27 20.5q0 -2 2 -2h4q2 -2 4 -2q6 -6 15 -31.5t9 -36.5q18 4 56.5 20.5t77 34t72.5 30t44 7.5q14 47 19.5 78t5.5 72q0 6 -1 17.5t-1 13.5q0 4 -11.5 23.5t-11.5 23.5t11.5 22.5t11.5 22.5q0 2 1 14t1 21 q0 33 -13.5 55.5t-13.5 54.5q0 10 1 32t4 43.5t8.5 36.5t11.5 15h39q0 4 4 11.5t2 11.5q-4 4 -22.5 23.5t-22.5 23.5q-2 2 -2 4v6v6q0 2 2 6t10 12.5t12 10.5q-4 2 -12 10t-10 12q-2 2 -2 5v6q0 12 7 17t16 9t17.5 9.5t8.5 21.5q0 23 -9.5 36t-37.5 9v28.5t-4 48.5 t-13.5 49.5t-27.5 33.5h-6q-4 0 -5.5 1t-3.5 1t-2 -1t-2 -1h-4q-6 -6 -15 -33t-9 -35q-8 29 -33 38t-57.5 12.5t-68.5 6.5t-66.5 18t-50 48t-19.5 96q0 18 16 24.5t37.5 6.5t41 -3t25.5 -3q0 8 -3 21.5t-2 25.5t7.5 21.5t24.5 9.5q0 -2 2 -2h4q2 -2 6 -2q4 -2 12.5 -10.5 t10.5 -12.5l-23 -22h250l45 -45q8 18 18.5 21t26.5 3q25 0 42.5 -13t39.5 -13h6q2 0 5 2q4 4 11 22.5t11 22.5h4q2 0 3 1t5 1q0 -2 2 -2h4h5q2 -2 11 -12.5t11 -10.5q6 0 18.5 3t28 6t27.5 7.5t18 6.5q16 -25 25.5 -54.5t19.5 -58.5l68 68q27 -27 38 -44.5t11 -46.5 q0 -10 -3 -28.5t-24 -18.5h-204q-10 0 -15.5 -9t-8.5 -21.5t-4 -23.5t-1 -13h-39q-2 0 -6 -10.5t-7 -24.5t-6 -29.5t-3 -25.5q0 -6 3 -34t8 -58.5t8 -57t3 -33.5q0 -14 -3 -50t-6 -75.5t-7 -75.5t-6 -50l22 -46v-272q0 -4 24.5 -25.5t54.5 -46t55 -45.5l26 -20q8 -4 25.5 5 t19.5 17q4 -8 14 -27.5t20.5 -41t19.5 -40t13 -26.5v-8q0 -4 1 -8t1 -6q0 -23 -4 -37.5t-20 -32.5q-33 -8 -57.5 -13t-48 -7t-47 -3.5t-54.5 -1.5q-41 0 -75 12.5t-70 12.5q-33 0 -68 -7t-71.5 -15.5t-73.5 -15.5t-72 -7q-16 0 -43 1t-54.5 8t-52 20.5t-32.5 38.5zM979 227 q10 -4 10 -22.5t-10 -22.5q-4 -2 -7 5.5t-3 17.5t3 17t7 5zM752 387q-2 -10 -11.5 -10t-11.5 10t11.5 10t11.5 -10zM524 477q-16 0 -16 -22.5t16 -22.5t16 22.5t-16 22.5zM707 1161q8 0 12 -7t4 -16.5t-4 -16.5t-12 -7t-12.5 7t-4.5 16.5t4.5 16.5t12.5 7zM502 1206 q-16 0 -16.5 -22.5t16.5 -22.5q16 0 16 22.5t-16 22.5zM821 1251v-22l-22 22h22zM684 1296q-16 0 -16 -22.5t16 -22.5t16 22.5t-16 22.5zM137 1389q-10 2 -10 -12.5t10 -10.5t10 11.5t-10 11.5zM774 1411q-27 -16 -26 -51q35 0 51 29z" />
<glyph unicode="J" horiz-adv-x="1193" d="M35 422q0 72 1 105.5t12 52t34.5 33t69.5 46.5q4 2 12 21.5t10 24.5q2 4 10.5 12t12.5 12l12 -12t10 -12q20 -33 48 -40.5t52.5 -14.5t42 -26.5t17.5 -76.5q0 -6 -3 -29.5t-7 -50.5t-8.5 -50.5t-4.5 -29.5q0 -2 -1 -18.5t-1 -20.5q0 -29 13.5 -44t33 -22.5t43 -9.5 t43.5 -2q59 0 85 8.5t35 27t10 49t12 77.5q2 16 13 33.5t23.5 35t22.5 35t10 33.5q0 14 -3 26.5t-21 18.5q16 12 27.5 31t17.5 37q-20 -6 -45 1t-25 34q0 8 10.5 17t22.5 24.5t23.5 40t13.5 65.5q0 2 1 17.5t1 36t1 41t1 32.5q0 88 -17.5 133t-43 66.5t-55 30t-55.5 25 t-43 50t-17 105.5v10q4 4 13 14.5t20.5 20.5t21.5 19.5t14 13.5h4q2 0 3 1t3 1q0 -2 2 -2h5h6q4 -2 22.5 -13.5t22.5 -9.5q2 0 8 7t14 15.5t14.5 15.5t8.5 7h8q4 0 6 1t6 1q43 0 91.5 -12t70.5 -57q4 16 19.5 41.5t37.5 25.5q49 0 93.5 -15.5t78 -43t54 -68.5t20.5 -90 q-29 0 -58.5 -11t-59 -27.5t-54 -34t-39.5 -27.5v-35q0 -35 11.5 -68.5t11.5 -68.5v-11q-2 -4 -10.5 -22t-12.5 -23q4 -61 1 -109t-9 -92t-11 -88t-5 -98v-45q2 -6 6 -25.5t8 -43t7 -43t3 -25.5q-10 -115 -54 -174t-97.5 -95t-101.5 -63.5t-66 -77.5h-115l-22 -45 q-25 33 -40.5 40.5t-30.5 5t-34.5 -6.5t-52.5 6q-66 18 -121 66.5t-95 111t-61.5 133.5t-21.5 134zM584 365l22 -46q-2 0 -6 -2t-6 -2q-4 0 -6 2q-2 0 -4 2q-4 2 -12.5 10.5t-10.5 12.5zM424 455q27 -14 27 -49q-16 0 -28.5 5t-21.5 21zM719 432q-16 0 -16.5 -22.5 t16.5 -22.5q18 0 18 22.5t-18 22.5zM696 500q-16 0 -16 -22.5t16 -22.5t16 22.5t-16 22.5zM104 592q-16 0 -16 -22.5t16 -22.5q18 0 18 22.5t-18 22.5zM584 1161h-23l23 23v-23zM1038 1229q16 0 16.5 -22.5t-16.5 -22.5q-16 0 -16 22.5t16 22.5zM422 1286q0 2 1 5t1 5 q4 -2 12 -10t10 -12v-4v-4q0 -2 3 -2q0 -2 -1.5 -6.5t-1.5 -6.5q-4 2 -12 10.5t-10 12.5t-2 6v6z" />
<glyph unicode="K" horiz-adv-x="1308" d="M125 104q0 49 36 89t81 57q-6 43 -3 79t9 69.5t12 69.5t6 79q0 33 -4 59.5t-9 51t-9 49t-4 55.5q0 10 1 32.5t1 24.5t4 12.5t8 21.5t7 21.5t3 12.5q-2 6 -22.5 23.5t-22.5 23.5q-2 4 -2 8v14q0 23 12.5 32t12.5 34v25q0 10 -3 35.5t-7.5 55t-7.5 55.5t-5 36 q-8 -4 -33.5 -12.5t-35.5 -10.5h-13h-10q-6 4 -23.5 21.5t-21.5 23.5v11q0 78 37 126t100 91l23 -45l67 67q0 -8 9.5 -34.5t13.5 -32.5q2 -2 4 -2h6h8q2 0 4 2q10 4 36 21.5t34 23.5q12 -6 15 -16.5t5 -21.5t6.5 -19.5t18.5 -10.5q2 0 24.5 3t47 3t45 -8t20.5 -33 q0 -45 -28.5 -94t-63.5 -76q31 8 64.5 -6t50.5 -39q-4 -2 -12.5 -10t-10.5 -12q-27 -39 -51.5 -57.5t-43.5 -37t-31.5 -45t-12.5 -77.5q0 -10 1 -40t1 -40q4 4 14.5 13t20.5 20.5t19 20.5t14 13v6q0 2 1 3.5t1 3.5q-2 0 -2 2v4v6l-23 22q-2 4 -3 14.5t-1 12.5q29 0 39 -14.5 t16 -34t13.5 -40t27.5 -30.5q8 70 23.5 120t39 88t58.5 70t84 64q2 0 3 4t1 7q0 4 -1 8t-3 4q-8 4 -33.5 13t-36.5 9q0 8 -1 28.5t-1 29.5q0 45 10.5 65.5t61.5 20.5v-121q25 8 33 32.5t13 52t13.5 54.5t30.5 43v-61q20 0 35.5 6t28 13t27 13.5t34.5 6.5q35 0 45 -9.5t9 -26 t-8 -37t-7 -42.5h41v76q31 0 50.5 -14.5t29.5 -38t13 -51t3 -54.5q-82 0 -106.5 -5t-29.5 -18.5t-8 -37t-42 -62.5q-4 -2 -23.5 1t-23.5 -1q-16 -4 -22.5 -22.5t-10.5 -39t-11 -36t-24 -15.5q-10 0 -35.5 9.5t-31.5 13.5q18 -37 9 -53.5t-27.5 -27.5t-36 -24.5t-17.5 -41.5 q0 -16 8 -27.5t17.5 -23t17.5 -25t8 -29.5q0 -20 -9 -33.5t-40 -9.5v-115q6 20 23.5 22.5t33.5 2.5q39 0 71 -45t58.5 -103.5t48 -116t39.5 -79.5q2 -4 15.5 -13.5t30 -19.5t29.5 -20.5t15 -14.5q4 -8 -8 -33.5t-12 -33.5h143q0 -8 -1 -27.5t-2 -41t-3 -41t-2 -27.5 q0 -4 -9 -13.5t-13 -9.5q-16 8 -21.5 24.5t-9.5 32t-10 26.5t-27 11q-16 0 -29.5 -5t-27 -11t-26.5 -10.5t-32 0.5q14 -25 42 -30t48 -15q6 -4 7 -11h-119q-10 -10 -22.5 -11t-26.5 -1q-35 0 -48.5 29.5t-17.5 60.5q-18 -6 -21 -20.5t-3 -30.5t-5.5 -28.5t-27.5 -12.5h-6 q-2 0 -4 2q-6 2 -14.5 11t-8.5 12v159q6 4 17.5 14.5t22.5 23.5t19.5 27.5t8.5 24.5q0 16 -24 50t-54.5 69t-60 60.5t-44.5 25.5v19q29 0 35 14t6 37h-63l-45 158q-4 -4 -13.5 -14.5t-19.5 -22t-20.5 -20.5t-16.5 -11q-4 -2 -13 1t-19.5 6t-20.5 6t-14 3v-198 q-6 0 -23.5 -9.5t-22.5 -13.5q-2 -2 -2 -4v-6v-8q0 -2 2 -4q2 -4 10.5 -12.5t12.5 -10.5q-14 -8 -19.5 -12t-5.5 -8.5t3.5 -9.5t3.5 -15h14q0 -18 1 -42t6 -46.5t14.5 -43t27.5 -28.5l45 45q29 -16 49.5 -48t20.5 -64q0 -4 -10.5 -23.5t-12.5 -23.5q-4 -4 -5 -26t-1 -26 q-16 0 -25.5 5.5t-16.5 10.5t-13 10t-19 5q-12 0 -17 -8t-8 -17.5t-9.5 -16.5t-20.5 -7q-4 0 -13 1t-12 1q-4 2 -22 12.5t-23 10.5q-4 0 -12 -11.5t-12 -11.5q-2 0 -14.5 -1t-18.5 -1q-8 0 -20.5 1t-14.5 1t-11 11.5t-11 11.5q-4 0 -22.5 -10.5t-22.5 -12.5h-13 q-104 0 -104 104zM856 160h45q-2 4 -10 12t-12 10h-7h-4q-2 0 -2 2q-2 0 -5 -1t-5 -1v-22zM1221 227q16 0 16 -22.5t-16 -22.5q-18 0 -18 22.5t18 22.5zM537 272q16 0 16 -22.5t-16 -22.5t-16 22.5t16 22.5zM1038 432q16 0 16.5 -22.5t-16.5 -22.5q-16 0 -16 22.5t16 22.5z M514 592q2 0 10 1t13 1q14 0 26 -3t19 -22q-2 0 -10.5 -1t-12.5 -1q-14 0 -25.5 3.5t-19.5 21.5zM606 1024q-4 -10 -12 -10t-12 10q-2 10 12 10t12 -10zM469 1206q-16 0 -16 -22.5t16 -22.5t16 22.5t-16 22.5zM469 1319h23l-23 24v-24zM82 1434q10 -4 10 -11.5t-10 -11.5 t-10 11.5t10 11.5zM127 1479q16 0 16 -22.5t-16 -22.5t-16 22.5t16 22.5z" />
<glyph unicode="L" horiz-adv-x="1288" d="M70 90q0 49 23.5 84t60 59.5t81 39t87.5 22.5q-2 37 -4.5 84t-0.5 95t8.5 96t18.5 89q2 4 10 12.5t13 10.5q-27 14 -37.5 29.5t-10.5 40.5q0 18 12.5 30.5t27 24.5t25.5 25.5t7 31.5q-4 10 -20.5 26.5t-26.5 18.5l23 25q0 2 1 13t2 25.5l2 29t1 22.5q0 25 -6.5 57.5 t-12.5 67.5t-10 67.5t0 57.5q-53 0 -77.5 -11.5t-37 -24.5t-22.5 -25.5t-35 -12.5q0 27 -12.5 48.5t-27.5 40t-27.5 38t-12.5 41.5q0 33 27.5 57.5t64.5 42t76 30.5t62 26q0 -8 9 -34t13 -34q2 -2 4 -2h6h8q2 0 5 2q4 2 23.5 11.5t23.5 11.5h4q2 0 3 1t3 1t4 -1t4 -1h4 l45 -45q2 -2 4 -2h9q10 0 16 9t12 20.5t11.5 22.5t15.5 17q4 -10 43 -27.5t87 -33t91 -24.5t53 -5q2 -31 -3 -40t-14 -8t-19.5 8t-20.5 7q0 -2 -8 -16t-4 -19q6 -4 34.5 -12t34.5 -12v-4q0 -2 2 -4q0 -2 -1 -4t-1 -4v-7q-4 -4 -11 -13t-11 -9t-23.5 10t-23.5 12h-4 q-2 0 -4.5 1t-4.5 1q-12 0 -20 -12t-11 -28.5t-4 -33t-1 -24.5q-18 0 -26.5 6t-18 14.5t-24.5 14.5t-50 6q0 -53 -7.5 -85t-7.5 -75v-12q4 -2 14.5 -11t10.5 -11q0 -4 -12.5 -22.5t-12.5 -23.5q0 -4 10.5 -22t14.5 -23v-12v-10q-4 -4 -14.5 -23.5t-10.5 -23.5q-2 -12 -6 -37 t-7 -50.5t-6 -46t-3 -24.5t5 -22.5t13 -40t15.5 -43t13.5 -31.5l22 -23v-6v-4q0 -2 3 -2q0 -2 -1.5 -3t-1.5 -3v-4q-4 -4 -21 -13.5t-26 -9.5q4 -4 12.5 -17t15.5 -27.5t13 -28t6 -19.5q0 -4 -10 -22.5t-12 -22.5t-2 -6q-2 -4 -2 -8q0 -2 2 -4q0 -2 2 -4t12 -5.5t22.5 -6.5 t22 -6t11.5 -5l-2 -18q-3 -17 -3 -36.5t5.5 -38t21.5 -22.5q4 20 22.5 22.5t34.5 2.5q4 0 17.5 -1t15.5 -1q4 0 23.5 -11.5t23.5 -11.5q2 0 11.5 10.5t11.5 12.5q8 6 25.5 14t19.5 8q6 -2 13 -11t14.5 -19.5t12.5 -20.5t5 -16q2 6 9 18.5t14.5 26.5t13.5 27.5t8 17.5v12v12 q-2 10 -5 25.5t-7 30t-7 25.5l-4 10h-28q0 25 14 39t34.5 25t41 21.5t31.5 28.5q2 2 8 16.5t13 30t13.5 28.5t10.5 15q25 12 53.5 -3t52 -42.5t38.5 -57.5t15 -42v-14q0 -4 -4 -17.5t-8 -29t-7 -28.5t-3 -15q0 -14 -1 -50t-1 -76t1 -76t1 -48q-16 -35 -40 -63.5t-52 -51.5 q-10 0 -40 1t-62.5 1t-61.5 -1t-41 -1q-4 0 -22.5 -11.5t-22.5 -11.5h-33q-47 0 -92 11.5t-92 11.5h-10l-46 -23h-12h-10q-4 2 -23.5 11.5t-23.5 11.5h-10h-13l-135 -23h-14q-25 0 -76 5.5t-102.5 17.5t-90 33.5t-38.5 56.5zM162 295q18 0 18 -22.5t-18 -22.5 q-16 0 -16 22.5t16 22.5zM1028 319q20 6 24.5 29t4.5 39h-51zM1233 637q16 0 16 -22.5t-16 -22.5t-16 22.5t16 22.5z" />
<glyph unicode="M" horiz-adv-x="1378" d="M1188 -250q-4 -10 -11.5 -10t-11.5 10q-4 8 10.5 8t12.5 -8zM526 -106q-4 -10 -21.5 -10.5t-23.5 10.5q-2 6 6.5 8t17.5 2t16 -2t5 -8zM47 88q0 61 4 88t16.5 34t37 4t65.5 -3q0 4 -1 17.5t-3 28.5t-2 28.5v17.5t10 23.5t12 23.5v10q0 29 -11 51.5t-11 51.5q0 27 2 74 t6 103t8 113.5t9.5 104.5t10.5 77t9 30h16q0 18 -8 30.5t-17.5 22.5t-17.5 23.5t-8 35.5h31q0 4 5 14.5t11 20.5t9 20.5t1 14.5q-2 2 -15 5t-29.5 6t-30 6t-15.5 5q-14 8 -30.5 31t-30.5 48.5t-23.5 51t-9.5 41.5t19.5 38t44 40.5t49 31.5t35.5 13h14q2 0 15.5 -4t28.5 -8 t28.5 -7t17.5 -3q12 0 42 -1t61.5 -1t60.5 1t41 1q-4 -4 -12.5 -22.5t-10.5 -22.5v-13q0 -18 16.5 -46.5t37 -62.5t39 -67.5t22.5 -60.5q2 -20 1 -38.5t3 -32t15.5 -20.5t39.5 -7q0 -18 5.5 -49t15.5 -62t23.5 -56.5t31.5 -31.5q4 2 17.5 26.5t31 60.5t38 79t36.5 78.5 t28 60.5l11 25q0 14 -4 22t-9.5 16.5t-9.5 19.5t-4 34q0 4 -1 16t1 25.5t7.5 24t17.5 14.5q4 -8 21.5 -25.5t23.5 -21.5q4 -2 6 -2h6h8q2 0 5 2q14 23 31.5 51t39 53t48 41t61.5 16q20 0 28.5 -8t12.5 -19.5t8 -22.5t20 -19q4 -2 21.5 -4t37 -5.5t36 -7.5t18.5 -6v-18 q0 -8 1 -17.5t1 -13.5q0 -53 -18.5 -80.5t-40 -46t-39 -36t-17.5 -50.5q0 -23 4.5 -42t8.5 -39.5t8 -43t4 -53.5q0 -27 1 -53.5t-2 -51t-13.5 -48t-32.5 -44.5q33 2 40 -11t7 -34q0 -4 -1 -13t-1 -11q-2 -4 -12.5 -22.5t-10.5 -22.5q0 -88 22.5 -181.5t22.5 -183.5 q0 -6 -9 -23.5t-13 -21.5l90 -45v-205q0 -2 -25.5 -10t-42.5 -12q-2 0 -11 -1t-13 -1h-12q-4 0 -9 2q-2 0 -11 11t-11 11q-4 0 -23.5 -11t-23.5 -11h-12.5t-24.5 -1t-28.5 -1h-22.5h-43.5t-39 5t-33.5 19t-24 45q-2 -4 -10 -12t-12 -10q-2 -2 -4 -2h-6h-7q-2 0 -6 2t-12 10 t-10 12q29 -2 38 6.5t8 20.5t-7 27.5t-6 27.5q-6 0 -17.5 -9t-15.5 -5t-13.5 21.5t-9.5 25.5q14 2 34 9t36 17.5t27.5 27t11.5 36.5h37q0 10 6 23.5t7 23.5t-7 16.5t-39 4.5q41 23 55.5 65.5t14.5 83.5v10q-2 4 -10.5 12.5t-12.5 10.5q-39 -4 -76 -15.5t-73.5 -23.5 t-74.5 -21.5t-75 -9.5q-35 0 -49 13.5t-39 56.5v-90q-35 8 -65.5 37.5t-49.5 52.5q-4 -2 -12 -10.5t-10 -12.5v-10q0 -47 4 -65.5t14 -25.5t27.5 -12t46.5 -24q4 -2 7 -11t3 -11h-76q0 -4 27 -26t61.5 -46.5t67.5 -44t45 -19.5v-145q-2 0 -11 3t-11 5q-4 4 -11.5 22.5 t-11.5 22.5h-4q-2 0 -4 1t-4 1t-3 -1t-3 -1h-5q-4 -2 -12 -10t-10 -12h31q0 -2 -3 -11.5t-6 -11.5q-6 -6 -16 -13t-20.5 -14.5t-19.5 -12.5t-11 -5h-252q-4 -4 -22.5 -12t-22.5 -10h-10h-13q-2 0 -12 4t-21.5 8t-21.5 7t-12 3t-11.5 -11t-11.5 -11q-4 0 -12 -1t-14 -1 q-25 0 -38.5 16t-20.5 39.5t-8 49.5t-1 44zM731 31q18 0 18.5 -22.5t-18.5 -22.5q-16 0 -16 22.5t16 22.5zM846 373q-4 -10 -22.5 -10.5t-22.5 10.5q-4 4 4 6t17 2t17.5 -2t6.5 -6zM889 543v-13.5t2 -19.5t7 -17.5t15 -7.5q4 0 23.5 10.5t24.5 12.5q4 4 25.5 5t25.5 1 q0 8 -1 26.5t-2 39t-2 39t-1 26.5q0 10 -3.5 25.5t-7.5 31t-7 25.5t-5 10h-12q0 -33 -13.5 -56.5t-29 -45t-27.5 -43.5t-12 -49zM459 532q0 -6 17.5 -15t27.5 -9q6 0 14 9t8 15q0 12 -4 32t-12 38.5t-21.5 32.5t-29.5 14v-117zM596 532q-10 4 -10 -12t10 -12t10 12t-10 12z M453 793q0 -10 1 -23.5t4 -27t11 -22.5t25 -9q2 0 5 1t5 1q-2 25 -11 52.5t-40 27.5zM1073 737q-8 0 -12 -7t-4 -16t4 -16.5t12 -7.5t12.5 7.5t4.5 16.5t-4.5 16t-12.5 7zM231 805q-16 0 -16 -22.5t16 -22.5t16 22.5t-16 22.5zM983 805q-10 4 -10 -11.5t10 -11.5t10 11.5 t-10 11.5zM436 827q-16 0 -16 -22.5t16 -22.5t16 22.5t-16 22.5zM801 872q-16 0 -16.5 -22.5t16.5 -22.5q16 0 16 22.5t-16 22.5zM1118 987q2 4 -2 6t-9 2t-9 -2t-2 -6q4 -10 11 -10t11 10zM1051 1032q-16 0 -16.5 -22.5t16.5 -22.5q16 0 16 22.5t-16 22.5zM1096 1122 q-16 0 -16.5 -22.5t16.5 -22.5q16 0 16 22.5t-16 22.5zM1300 1169q8 0 12.5 -7t4.5 -16t-4 -16.5t-13 -7.5q-8 0 -12 7.5t-4 16.5t4 16t12 7z" />
<glyph unicode="N" horiz-adv-x="1396" d="M78 -2q0 74 15.5 113t43 65.5t65.5 53t81 77.5q0 4 1 12.5t1 12.5q0 14 -8.5 23.5t-17.5 16.5t-16 16t-7 22v8q0 2 2 4q2 4 8 14t13 20.5t13.5 19.5t10.5 13v252q4 4 13 20.5t9 24.5q0 2 -3 12.5t-8 21.5t-8 21.5t-3 12.5q0 16 1 62.5t2 98.5t3 98t2 63q-4 0 -18.5 -5.5 t-31 -11.5t-30.5 -9t-18 1q-4 2 -7.5 11t-6.5 21.5t-6 23t-5 12.5q-10 18 -25.5 21t-30 4t-25.5 8.5t-11 35.5q0 6 17.5 32t40 53.5t42 50t25.5 22.5h14l68 -23q10 -2 28.5 -6t37 -7t32.5 -6t16 -3t9.5 6t14.5 14.5t13 15.5t8 9h4q2 0 3.5 1t3.5 1q31 0 41 -8t13 -22.5 t6 -31t19 -30.5q2 -2 12.5 -5t23 -6.5t22.5 -7.5t12 -6t1 -12t-2 -21.5t-1 -21.5t2 -12q4 -6 16.5 -13.5t26.5 -14.5t27.5 -12t19.5 -5q0 -2 1 -6.5t1 -6.5t-1 -3t-1 -3v-4q-2 -2 -12 -11t-10 -11q0 -23 14 -39.5t35 -16.5q0 -4 -2 -7t-2 -7q-2 -4 -10.5 -22.5t-12.5 -22.5 h45q14 0 19.5 -22.5t4.5 -50.5t-3 -54.5t2 -32.5q2 -4 12 -13t21.5 -20.5l21.5 -21.5t14 -13q2 -4 4.5 -11t2.5 -11h-25q0 -35 14.5 -44t55.5 -9q0 -16 -5.5 -35t-23.5 -27q31 -18 47 -48t21 -64q4 4 11 16t14 26.5t13.5 28t6.5 19.5q0 4 -11.5 22.5t-11.5 22.5t-1 25.5 t-1 31.5q0 39 10.5 64.5t10.5 60.5h-15q0 10 -1 34.5t-3 35.5q0 2 -4 12t-8 21.5t-7 21.5t-3 12q0 20 9 20.5t20.5 4.5t20.5 22.5t9 73.5q-29 0 -39 1t-13 8.5t0 23.5t3 45q-4 0 -16.5 4t-16.5 2l-68 -67q-4 -2 -8 -5.5t-6 -3.5q0 25 -9 44.5t-19.5 36t-19.5 34.5t-9 41 q0 20 24.5 42.5t55 41t58.5 31t36 12.5q12 0 20.5 -8t15.5 -17.5t16 -16.5t24 -7q23 0 44 7t41.5 16.5t40 17.5t37.5 8q2 0 5.5 -1t7.5 -1h8q4 -2 14.5 -12.5t20.5 -21.5t20 -21.5t15 -12.5q4 -2 22.5 9.5t22.5 13.5t16 3t16 1q0 -86 -5 -124t-22.5 -55.5t-51 -29.5 t-91.5 -45q4 -104 1 -202.5t-9 -196t-11 -194.5t-5 -198q0 -74 13 -133t13 -129q0 -16 -20.5 -42.5t-48 -51t-56 -43t-47.5 -18.5h-6q-2 0 -6 2t-28.5 18.5t-52 35.5t-51.5 36.5t-26 21.5t-5 28t-8 54.5t-11 63.5t-16.5 56.5t-22.5 32.5t-29 -7q4 2 12.5 10t10.5 12v6 q0 2 1 3t1 3q-2 0 -2 3v4v6q-16 31 -30.5 77t-26 95t-18.5 96t-7 82q-63 0 -89 13.5t-30 33t4 43t12.5 43t-5 32.5t-48.5 13v86q-12 -47 -21 -58t-18.5 -10t-18.5 1t-22 -25q27 -6 36 -29.5t13.5 -55.5t11.5 -69.5t29 -72.5v-4q0 -2 1.5 -4.5t1.5 -4.5t-1.5 -3t-1.5 -3v-4 l-12 -12t-22.5 -21.5t-21.5 -21.5t-11 -12q0 -4 -1 -12.5t-1 -12.5q0 -16 7 -22.5t16.5 -10.5t17.5 -10t8 -23q0 -4 -1 -13t-1 -11q0 -4 -4 -21.5t-8 -36t-7.5 -36t-3.5 -21.5q0 -2 6.5 -9t14.5 -14.5t15 -13.5t9 -8l23 -45q4 -4 12 -13t11 -9q4 0 23.5 11t23.5 11 q6 0 23.5 -9t21.5 -13q0 -10 2 -40t2 -40q0 -92 -38 -131t-136 -39h-13q-2 0 -12 4t-21.5 8t-21.5 7t-12 3q-4 0 -23.5 -11t-23.5 -11q-2 0 -22.5 -1t-31.5 -1q-16 0 -56 2t-81 7t-72.5 16.5t-31.5 29.5zM737 195q16 0 16.5 -22.5t-16.5 -22.5q-16 0 -16 22.5t16 22.5z M782 399q4 10 -10 10.5t-12 -10.5q2 -10 11 -10t11 10zM1012 537q-10 0 -14.5 -7.5t-4.5 -16.5t4 -16.5t15 -7.5q8 0 12 7.5t4 16.5t-4 16.5t-12 7.5zM965 786q-16 0 -16.5 -22.5t16.5 -22.5q16 0 16 22.5t-16 22.5zM1192 854q18 0 18 -22.5t-18 -22.5q-16 0 -16 22.5 t16 22.5zM852 922v-23h-23v23h23zM987 969q-8 0 -12 -7.5t-4 -16.5t4 -16t12 -7t13.5 7t5.5 16t-5.5 16.5t-13.5 7.5zM238 969h-29q0 29 29 45v-45zM1192 1036q18 0 18 -22.5t-18 -22.5q-16 0 -16 22.5t16 22.5zM510 1081q-10 4 -10 -11t10 -11t10 11t-10 11zM829 1104 q16 0 16.5 -22.5t-16.5 -22.5q-16 0 -16 22.5t16 22.5zM807 1126q16 0 16 -22.5t-16 -22.5q-18 0 -18 22.5t18 22.5zM487 1151q-8 0 -12 -7t-4 -16.5t4 -16.5t12 -7t12.5 7t4.5 16.5t-4.5 16.5t-12.5 7zM555 1286q-16 0 -16 -22.5t16 -22.5t16 22.5t-16 22.5z" />
<glyph unicode="O" horiz-adv-x="1210" d="M63 557v30.5t1.5 37t1.5 32v15.5t3 12t8 21.5t8 21.5t3 12q0 4 -11 22.5t-11 22.5v12q0 11 -1.5 25.5t-1.5 29.5v23q0 80 11.5 116t29 59.5t38 46t38.5 75.5q10 31 7 44.5t-6 20.5t-1 16.5t23 33.5q23 27 43 43.5t34.5 31.5t22.5 34.5t8 56.5q-2 0 4 -6l47 -47q2 -2 5 -2 h6q16 0 39.5 21.5t40.5 27.5h4q2 0 4 1t6 1l4 -2h4q8 -12 11 -25.5t6.5 -26t9.5 -23.5t18 -17q-6 14 -5 34.5t8 39t20.5 30.5t34.5 12q20 0 29 -15t10 -34.5t-1 -39t-4 -27.5q23 16 41.5 39.5t26.5 52.5h158q0 -39 7 -84t17 -76q20 6 23.5 21.5t3.5 31t6 27.5t35 12 q4 0 12 -1t10 -1q12 -72 43 -136t64 -126.5t61.5 -126t36.5 -133.5q0 -4 -3 -13.5t-8 -21.5t-8 -22.5t-3 -12.5q-12 -102 -19.5 -175.5t-21 -139.5t-40 -135.5t-77.5 -163.5q-23 23 -37 9.5t-26.5 -39t-24.5 -52.5t-27 -31q-74 -18 -155.5 -44.5t-159.5 -26.5 q-115 0 -204 50t-151.5 132t-95.5 183.5t-33 205.5zM246 739q0 -109 16.5 -180.5t51 -128.5t92 -111.5t137.5 -125.5q29 27 50 31.5t40.5 4.5t38 -3t39 7.5t46 36t60.5 82.5q8 12 17.5 16.5t18.5 5.5t17.5 5t14.5 18q14 43 19 79t10.5 70t12.5 68.5t25 79.5l25 -22q2 2 3 10 t1 12q0 18 -5 24.5t-14.5 10.5t-23.5 10t-31 23q-2 4 -2 6v6v6q0 2 2 4q4 4 20.5 11.5t24.5 11.5q4 0 12.5 3t12.5 3v18h-53q0 8 4 33t2 35q0 4 -11.5 22.5t-11.5 22.5t11.5 22.5t11.5 22.5t-7.5 17.5t-15.5 29t-15 28.5t-7 17q-2 6 -5 21.5t-7.5 34t-7.5 35t-3 22.5 q-4 -4 -22.5 -12t-22.5 -11q-4 -2 -6 -2h-6q-31 0 -49.5 33t-18.5 60q-49 0 -97 12t-99 12q-35 0 -47.5 -20.5t-12.5 -48.5h-51q-4 0 -21.5 -15.5t-39 -37t-43 -45t-33.5 -38.5q-18 -25 -20.5 -51t-0.5 -53t-1 -53.5t-23 -46.5v-28t-1 -41.5t-1 -41v-27.5zM338 375 q-16 0 -16 -22.5t16 -22.5q18 0 18 22.5t-18 22.5zM293 989q16 0 16 -22.5t-16 -22.5t-16 22.5t16 22.5zM362 1059v-51q-23 0 -37 14t-14 37h51zM1044 1036q-8 0 -12 -7t-4 -16t4 -16.5t12 -7.5t12.5 7.5t4.5 16.5t-4.5 16t-12.5 7zM702 1149q16 0 16.5 -22.5t-16.5 -22.5 q-16 0 -16 22.5t16 22.5zM567 1241l-47 -24v24h47zM748 1421q-16 0 -16.5 -22.5t16.5 -22.5q18 0 18 22.5t-18 22.5zM725 1446q8 0 12 -7t4 -16.5t-4 -16.5t-12 -7t-12 7t-4 16.5t4 16.5t12 7z" />
<glyph unicode="P" horiz-adv-x="1284" d="M225 18l-45 -22h-12q-20 0 -38.5 11t-33 28.5t-24 39t-9.5 42.5q0 25 10.5 52.5t29 49t44 35.5t56.5 14q4 0 13 -9t9 -13q27 10 37 50t12 86t-1 86t-3 50l45 47l-22 23v592q0 2 -17.5 10t-27.5 12q-2 0 -11.5 -1t-11.5 1q-6 4 -19 16.5t-27.5 27t-28 27.5t-17.5 19 q10 37 23.5 70t36 58.5t55.5 41t80 15.5q0 -2 2 -2h4h4q4 -4 23.5 -22.5t23.5 -22.5h8q20 0 40 7t38 16t35.5 16.5t38.5 7.5q14 0 23.5 -7.5t16.5 -16.5t15 -16t21 -7q25 0 46 7t42.5 16t42 16.5t43.5 7.5q4 0 12 -1t10 -1q-2 -4 -10 -12.5t-12 -10.5t-6.5 1t-6.5 3 q0 -2 -8 -12t-4 -14q27 -18 59.5 -22.5t66.5 -5.5t65.5 -3t60.5 -15q27 -12 33 -23t9 -18.5t11 -11.5t37 -4v-39q47 0 74.5 -38t41 -88t17.5 -103t4 -84q0 -76 -13 -121t-36.5 -78t-57.5 -63.5t-75 -79.5q-2 -2 -5 -12.5t-6 -21.5t-6 -21.5t-6 -12.5q-14 -12 -43.5 -16 t-64.5 -9t-73 -14.5t-68 -29.5q-4 -2 -7 -2h-6h-6q-2 0 -6 2q-2 2 -11 12t-11 10t-16.5 3t-33 7t-36 7.5l-27.5 5.5h-14q-8 0 -17.5 -17.5t-19 -40t-15.5 -44t-6 -31.5q0 -20 -1 -49t3 -57t14.5 -49.5t32.5 -29.5q4 6 20.5 23.5t24.5 21.5h5q2 0 3 1t3 1q12 0 19 -10 t14.5 -22.5t17.5 -23.5t29 -13q0 -8 1 -29.5t1 -28.5v-37.5t-4.5 -43t-14.5 -40t-29 -26.5q-12 0 -44.5 1t-68.5 1t-69 -1t-45 -1q-4 0 -22.5 -10.5t-22.5 -12.5h-12h-10q-4 2 -23.5 11.5t-24.5 11.5h-10h-12l-23 -23q-2 -2 -4 -2h-6h-6q-2 0 -6 2l-45 45h-12h-11zM498 883 q0 -47 22.5 -66.5t50 -35t54 -36t32.5 -67.5h-22q4 4 22.5 12t22.5 10q12 2 31.5 14.5t39 26t38 22.5t28.5 7q8 -4 25.5 -20.5t19.5 -26.5q12 31 32.5 36t42 5t39 3t23.5 26v12t-1 21.5t-1 21.5t2 12q10 23 26.5 37t31 27.5t25 30t10.5 44.5q0 14 -8.5 20.5t-17.5 9.5 t-16.5 7t-7.5 17v8q0 2 2 4t12.5 11t10.5 11q2 6 5 22.5t7 35t7.5 35t3.5 22.5q-2 0 -5.5 1t-7.5 1q-27 0 -28.5 -10t-4 -21.5t-19.5 -21.5t-75 -10q0 4 5.5 12t11.5 18.5t9 18.5t-1 12q-2 2 -15.5 9.5t-29 14.5t-29.5 13t-16 8l-23 23h-6q-4 0 -5 1t-3 1t-2 -1t-2 -1h-4 l-45 -90q-57 27 -58 90h-35v-103q-18 0 -24 9.5t-9 21.5t-8.5 21.5t-25.5 9.5q-51 0 -79 -41t-41 -97.5t-15 -114.5t-2 -93zM498 793q-8 0 -12.5 -7.5t-4.5 -16.5t4 -16.5t13 -7.5q8 0 12 7.5t4 16.5t-4 16.5t-12 7.5zM930 838q16 0 16 -22.5t-16 -22.5t-16 22.5t16 22.5z M817 905q10 -4 10 -11t-10 -11t-10 11t10 11zM612 905q-6 -10 -23.5 -10t-23.5 10q-2 6 6.5 8t17.5 2t17 -2t6 -8zM1044 975q10 -4 10.5 -12.5t-10.5 -12.5q-10 -4 -10 12.5t10 12.5zM590 1065q-4 -10 -12.5 -10t-12.5 10q-2 10 12.5 10t12.5 -10zM565 1180q8 0 13.5 -7.5 t5.5 -16.5t-5.5 -16t-13.5 -7t-12 7t-4 16t4 16.5t12 7.5zM543 1225q-16 0 -16.5 -22.5t16.5 -22.5q16 0 16 22.5t-16 22.5zM225 1270q-16 0 -16 -22.5t16 -22.5t16 22.5t-16 22.5zM88 1292q16 0 16 -22.5t-16 -22.5t-16 22.5t16 22.5zM1135 1384q-4 -10 -11.5 -10t-11.5 10 t11.5 10t11.5 -10zM999 1497q16 0 16.5 -22.5t-16.5 -22.5q-18 0 -18 22.5t18 22.5z" />
<glyph unicode="Q" horiz-adv-x="1239" d="M588 16q-12 0 -26.5 -4t-25 -13t-13.5 -21.5t7 -28.5q-31 51 -52 60t-39.5 6t-39 -4t-49.5 28q-2 2 -5 11t-7 21.5t-7 22.5t-5 12h-4q-2 0 -5 3q-2 0 -4 -1.5t-4 -1.5h-6q-4 -2 -22.5 -13t-22.5 -9t-19.5 26.5t-36 62.5t-43 82t-42 81t-31.5 62l-12 26q0 4 1 13t1 12 q2 4 12 22t10 23q0 6 -6 16t-13 20.5t-14.5 19.5t-11.5 13q0 12 3 50t3 83t-6 89t-22 73l90 90q-6 -18 -1 -41.5t12 -50.5t15.5 -58.5t8.5 -66.5q12 0 26.5 6t26.5 7t20.5 -8t6.5 -38q-33 14 -67 2t-48 -47l24 -22q-2 -10 -5 -37t-3 -58.5t6.5 -62.5t24.5 -47q2 -2 4 -2h4h8 q2 0 6 2l46 23q2 0 3 2t5 2q0 -25 13 -49.5t46 -22.5q2 8 6 23.5t10.5 31t16.5 26.5t24 11q23 0 38.5 -26.5t19.5 -43.5q16 43 21 89.5t1 93.5q8 -25 25.5 -24t34 1t27 -11t3.5 -58l93 45q-6 -12 1 -23.5t19 -21t26.5 -15.5t20.5 -8q-4 16 -1 38.5t24 29.5q37 -18 53 -58.5 t33.5 -82.5t47.5 -73.5t91 -31.5q0 51 -17.5 65.5t-39 21.5t-39 22.5t-17.5 68.5h84q0 57 5.5 78.5t10.5 29t10 11.5t5 26q0 29 -11 53.5t-11 51.5q0 29 13 51.5t13 50.5q0 29 -13 47.5t-13 42.5v13q4 27 7 64.5t7 74.5q4 41 8 88l25 25q29 -23 38 -52.5t9 -62.5 q0 -10 -1 -26.5t-1 -18.5q0 -4 -11.5 -22.5t-11.5 -22.5t10.5 -23.5t12.5 -23.5q0 -2 1 -10.5t1 -12.5q0 -16 -4 -25.5t-9.5 -17.5t-9.5 -19.5t-4 -29.5q0 -31 11.5 -55.5t24.5 -51t24.5 -54t11.5 -64.5q0 -29 -1 -83t-8.5 -107.5t-27 -92.5t-55.5 -37l-70 -227 q-8 -29 -18.5 -24t-26.5 5v-178q6 0 18.5 -6t26.5 -13t27.5 -11.5t17.5 0.5q14 12 24.5 41.5t28 61.5t49 56.5t93.5 24.5q18 0 30.5 -12.5t18.5 -31t8 -37.5t2 -34q0 -41 -13.5 -82t-35.5 -80h29q0 -18 -11.5 -28t-28 -19.5t-33 -18.5t-24.5 -24h-295q-33 0 -55 29t-37.5 72 t-26 93t-21.5 93t-23.5 71.5t-30.5 28.5zM918 -121l-23 -22v45zM827 61q-16 0 -16 -22.5t16 -22.5t16 22.5t-16 22.5zM940 61q18 0 18 -22.5t-18 -22.5q-16 0 -16 22.5t16 22.5zM440 129v70h-22zM1032 154v-25h-22v25h22zM303 199q2 -4 10.5 -12.5t12.5 -10.5t6 -2h6 q2 0 5 1t7 1l-24 45zM395 301q0 -29 24.5 -51.5t58.5 -39.5t68 -26.5t54 -9.5q16 0 31.5 7t15.5 28q-2 0 -2 2v4v6l-22 23q-2 2 1 11t3 11h63q-4 8 -12 34t-10 34v24q-4 -4 -22.5 -12t-22.5 -12q-4 -2 -7 -2h-8h-4q-2 0 -4 2q-6 6 -11 18.5t-10.5 24.5t-13.5 20.5t-22 8.5 q-23 0 -28 -14.5t-5 -33t-3 -33t-22 -14.5q-4 0 -22.5 10.5t-22.5 12.5h-12h-10q-4 -2 -12.5 -10.5t-10.5 -12.5v-10zM303 334q-16 0 -16 -22.5t16 -22.5t16 22.5t-16 22.5zM463 403q-16 0 -16.5 -22.5t16.5 -22.5q16 0 16 22.5t-16 22.5zM1077 449q16 0 16.5 -23t-16.5 -23 q-16 0 -16 23t16 23zM188 528q0 2 1 5.5t1 5.5q4 0 22.5 -8.5t23.5 -14.5v-4v-4q0 -2 2 -2q0 -2 -1 -6t-1 -6q-6 0 -23.5 9t-22.5 13q-2 4 -2 6v6zM303 516q16 0 16 -22.5t-16 -22.5t-16 22.5t16 22.5zM1077 836v-23l-22 23h22zM236 926l-23 -23v23h23zM850 948 q16 0 16 -22.5t-16 -22.5t-16 22.5t16 22.5zM199 1063q0 16 -3 33.5t-2 31t9 21.5t33 8t47 -16.5t22 -42.5q0 -39 -19.5 -61.5t-49 -33t-66.5 -13.5t-72 -3v76h101zM827 1063q23 12 32 43t13 47q4 -2 12.5 -10t10.5 -13v-10v-12q-4 -12 -12.5 -38t-10.5 -30q-2 -2 -4 -2h-4 h-10q-2 0 -4 2q-4 2 -12.5 10.5t-10.5 12.5zM735 1153h-45q0 16 6 35.5t17.5 34t29 21.5t39.5 1zM209 1251q16 0 40.5 -3t31.5 -25q-2 -4 -10.5 -12.5t-12.5 -10.5q-2 -2 -4 -2h-6q-23 0 -31 18.5t-8 34.5zM879 1272q0 -33 -11.5 -55.5t-46.5 -22.5q0 35 11.5 56.5 t46.5 21.5zM381 1331q31 0 50.5 6t38.5 13.5t43 10.5t65 -3q-6 41 17 64.5t58 23.5q0 -35 3 -66.5t1 -55.5t-14 -38t-43 -14v-60q-10 0 -15 6.5t-15.5 14.5t-30 18.5t-54.5 16.5q-4 0 -22.5 10t-22.5 12h-4q-2 0 -5 1t-5 1t-2 -1t-2 -1h-4q-2 -2 -8.5 -12t-14.5 -21.5 t-14 -21.5t-8 -12q-2 -4 -14.5 -7.5t-14.5 -3.5q0 20 6 31.5t12.5 23t12.5 25.5t6 39zM690 1358q2 0 10.5 2t12.5 2q20 0 45.5 -7t25.5 -30q0 -2 -1 -3t-1 -3v-6q-4 -4 -20.5 -11.5t-26.5 -11.5q-2 -2 -4 -2h-8h-6q-2 0 -4 2q-4 8 -13.5 34t-9.5 34z" />
<glyph unicode="R" horiz-adv-x="1320" d="M506 -4q-53 -2 -130 -10.5t-149.5 0t-124 42t-51.5 117.5q0 45 20.5 75t49.5 51.5t59.5 41t52.5 47.5q0 12 -1 42t-1 63t1 61.5t1 38.5q2 20 11.5 39t20.5 35t21.5 31.5t14.5 31.5q2 4 -10 22.5t-12 23.5q0 4 12 22t10 23q-2 10 -18.5 26.5t-26.5 20.5l45 22 q-29 14 -38 27.5t-9 40.5q0 14 4 23.5t9 18.5t9.5 19t4.5 29q0 18 -4.5 29.5t-10.5 20.5t-10 17.5t-4 24.5h24q0 31 -17 75t-46 86t-64.5 71.5t-74.5 29.5v33q6 -2 22.5 0t35 6t34.5 8t22 9q2 2 5.5 12t6.5 21.5t6 21.5t5 14h4q2 0 3 1t3 1q0 -2 2 -2h4h6q2 -2 8.5 -9 t13.5 -14.5t14 -14.5t10 -7q14 -4 53 -5t81 -3t76.5 -10.5t38.5 -28.5q8 8 34 25.5t36 21.5h10q29 0 50.5 -13.5t54.5 -13.5q10 0 25.5 1.5t17.5 1.5q2 2 12 9t21.5 15t21.5 15.5t14 7.5q2 0 9.5 -6.5t14.5 -14.5t13 -16t8 -10q25 -18 55.5 -25.5t61.5 -14t60.5 -16.5 t50.5 -35q6 -6 19 -32.5t28.5 -57t28 -58.5t16.5 -34q8 -14 20.5 -45t23.5 -65.5t18.5 -67.5t4.5 -49q0 -2 -7 -8.5t-15 -14.5t-15.5 -14t-7.5 -8q-14 -29 -20 -60.5t-16.5 -59.5t-33 -45.5t-67.5 -17.5v-22h68v-70q-6 6 -32 15.5t-36 9.5q-18 0 -21 -17.5t-3 -27.5 q0 -47 10 -89t22.5 -83t22.5 -83t10 -87h35q0 10 -3 19t-5 18.5t2 16.5t20 13q14 -20 27.5 -52t23 -65.5t14.5 -66.5t5 -55v-10q-2 -10 -10 -36t-13 -34q-8 -2 -30.5 -5t-48 -7t-49 -7.5t-31.5 -3.5h-25q-53 0 -86 20.5t-51.5 53.5t-27.5 75t-14 85t-9 83t-15 70 q-4 14 -22.5 50t-41 74t-44 69t-29.5 35q-6 2 -20.5 0t-29.5 -6t-29.5 -8.5t-20.5 -4.5v-39t-6.5 -26t-23.5 -12.5t-52 6.5l-23 -160q0 -2 17.5 -19.5t27.5 -25.5q12 -10 32 -25.5t38 -31t32 -25.5l13 -10l45 24q2 -6 5 -22.5t7.5 -34.5t7.5 -34.5t3 -22.5v-25 q0 -23 -15.5 -43t-37 -36.5t-47 -26t-46.5 -9.5q-16 0 -34.5 1t-24.5 24zM780 178q16 0 16.5 -22.5t-16.5 -22.5q-18 0 -18 22.5t18 22.5zM756 201q18 0 18 -22.5t-18 -22.5q-16 0 -16 22.5t16 22.5zM666 293q16 0 16 -22.5t-16 -22.5t-16 22.5t16 22.5zM528 360 q10 -2 10.5 -11t-10.5 -11q-10 -2 -10 11t10 11zM756 383q10 -2 10 -11.5t-10 -11.5t-10 11.5t10 11.5zM756 475q18 0 18 -22.5t-18 -22.5q-16 0 -16 22.5t16 22.5zM1030 498q-16 0 -16 -22.5t16 -22.5t16 22.5t-16 22.5zM1008 610q2 10 -12.5 10.5t-10.5 -10.5 q4 -10 11.5 -10t11.5 10zM506 748q-16 0 -16.5 -23t16.5 -23q16 0 16 23t-16 23zM483 770q-10 4 -10 -11.5t10 -10.5q10 4 10 11t-10 11zM528 840q-2 -25 28 -41.5t63.5 -28.5t57 -22.5t11.5 -22.5l17 33q6 12 13 23.5t15 11.5q2 0 12.5 -3.5t22.5 -8.5t21.5 -8t13.5 -3 q2 0 18.5 9t26.5 14q6 4 22.5 13t35 20.5t33.5 21.5t22 14v10v13l-23 45q0 4 3 11t3 11h72q0 57 -12.5 85t-27.5 41.5t-27.5 20.5t-12.5 23v8q0 2 2 5q6 4 23.5 13t23.5 9q-76 23 -100.5 32t-35.5 19.5t-25.5 27.5t-67.5 58q2 -18 -14.5 -32.5t-40 -22.5t-47 -12t-36.5 -4 q-20 0 -33.5 8t-9.5 41l-114 -115q41 4 55 -6t14 -37q0 -41 -28.5 -49t-63.5 2q8 -35 26.5 -55.5t37 -35.5t32 -31.5t13.5 -43.5q-25 0 -39 -2t-21.5 -11t-9.5 -26.5t-2 -50.5q18 0 31.5 5.5t21.5 23.5zM870 862q8 0 12.5 -7t4.5 -16.5t-4 -16.5t-13 -7q-8 0 -12 7t-4 16.5 t4 16.5t12 7zM643 862q-2 -10 -11 -10t-11 10t11 10t11 -10zM1008 907q-10 4 -10.5 -11t10.5 -11q10 4 10 11t-10 11zM733 952q16 0 16.5 -22.5t-16.5 -22.5q-16 0 -16 22.5t16 22.5zM733 1339h51q0 16 -11 31.5t-28 15.5q-2 0 -6 -1t-6 -1v-45zM1075 1430q16 0 16.5 -23 t-16.5 -23q-16 0 -16 23t16 23zM1008 1477q8 0 12 -7.5t4 -16.5t-4 -16t-12 -7t-12.5 7t-4.5 16t4.5 16.5t12.5 7.5zM506 1499l-23 -22l-22 22h45z" />
<glyph unicode="S" horiz-adv-x="1236" d="M283 109q-14 0 -20.5 -11.5t-15.5 -26t-27.5 -25.5t-61.5 -11q-29 0 -60.5 1t-54.5 23q0 8 -1 34t-1 36q0 66 18.5 104.5t40 67.5t40 58.5t18.5 76.5v10l-12.5 12.5t-12.5 10.5q23 6 25 25.5t2 39t6 36t37 16.5q12 0 38.5 -20.5t54.5 -47t49.5 -53.5t21.5 -41h-74 q29 -33 57.5 -65.5t60 -59.5t68.5 -43t82 -16q14 0 42 1t32 1q2 0 8 4t14.5 8t14.5 8t8 2q2 0 9 -7t14.5 -14t13.5 -14.5t8 -9.5h12q49 0 82 36t52.5 84t27.5 98t8 79q-39 29 -46 41t-10 19.5t-15.5 12.5t-63.5 17q-4 2 -12 10.5t-12 12.5h-181q-4 0 -12 9t-12 13 q-18 31 -57.5 50.5t-82.5 38t-79.5 40t-53.5 54.5q-2 6 1 18t7.5 27.5t8.5 28t4 18.5h-88v22h22l3 16q3 15 7.5 36.5t7.5 44t5 38.5q4 49 10 95.5t35 87.5q6 -4 23.5 -12.5t21.5 -10.5t20 2q8 2 15 2v103q41 0 64.5 15t39 34.5t26.5 35t29 15.5q0 -2 3 -2h4h4 q23 -14 47 -22.5t48 -15.5t46.5 -19.5t40.5 -32.5q16 12 27.5 30.5t19.5 36.5l45 -137q2 4 6 18.5t10.5 31t13.5 29.5t15 13q6 0 23.5 -9t21.5 -13q0 4 5.5 22.5t13.5 39t18 37t21 16.5q8 0 14 -5.5t12 -11.5t12.5 -9t18.5 1q43 -72 46 -139.5t3 -145.5q0 -8 -1 -29.5 t-1 -44t-1 -44t-1 -29.5q-23 -12 -44.5 -20.5t-43 -17.5t-39.5 -20.5t-33 -31.5l-45 45q6 4 23.5 21.5t21.5 23.5v12v10q-2 6 -10 23.5t-12 21.5l-45 -22q-8 33 -27.5 63.5t-38 60t-29 60.5t2.5 68q-27 -16 -45.5 -20.5t-37 -3.5t-40 4t-52.5 3q0 -10 -3 -21t-4 -21.5 t3 -18.5t21 -14q-6 -4 -23.5 -12.5t-23.5 -10.5t-21 -2q-6 0 -12 -2v94h-49q0 -31 6 -50t7 -35.5t-7 -33t-37 -39.5h23v-92q-4 12 -17.5 40t-31 54.5t-36 46t-30.5 19.5v-12q0 -72 8 -140.5t8 -142.5h76v45h23l45 -114q0 8 6 21t16 24.5t22.5 18.5t24.5 5q10 -2 52.5 -21.5 t90.5 -43t87 -45t43 -27.5q4 6 21.5 23.5t23.5 21.5h6q2 0 3 1t3 1q14 0 21.5 -8t12.5 -19.5t9 -23.5t12 -19q2 -2 12.5 -5t22.5 -7t21.5 -7t13.5 -3q4 -2 12 -10.5t10 -12.5q2 -6 15.5 -33.5t29 -58.5t28.5 -57.5t18 -32.5l22 -22v-13q0 -106 -22.5 -185t-66.5 -139.5 t-112.5 -105.5t-160.5 -82q0 6 -9.5 23.5t-13.5 21.5h-6h-4q-2 0 -2 2q-2 0 -3 -1t-3 -1h-6q-4 -4 -11.5 -22.5t-11.5 -22.5q-2 -2 -4 -2h-6h-6q-2 0 -7 2l-45 45h-4q-2 0 -4 1t-4 1q-12 0 -16 -8l-8.5 -17t-10.5 -16.5t-20 -7.5q-29 0 -27 5t4 10.5t-13 10.5t-79 5v-29 q-16 10 -39.5 34t-49.5 47.5t-52 41t-51 17.5zM657 197q-16 0 -16 -22.5t16 -22.5t16 22.5t-16 22.5zM475 401q10 -2 10 -11t-10 -11t-10 11t10 11zM1157 401q18 0 18.5 -22.5t-18.5 -22.5q-16 0 -16 22.5t16 22.5zM725 561q-4 -10 -22.5 -10t-22.5 10q-2 6 6 8t17.5 2 t16.5 -2t5 -8zM338 674q18 0 18 -22.5t-18 -22.5q-16 0 -16 22.5t16 22.5zM999 971q16 0 16.5 -22.5t-16.5 -22.5q-16 0 -16 22.5t16 22.5zM795 1061q16 0 16 -22.5t-16 -22.5t-16 22.5t16 22.5zM543 1403q4 10 -10.5 10t-12.5 -10t11.5 -10t11.5 10zM725 1448 q16 0 16 -22.5t-16 -22.5t-16 22.5t16 22.5z" />
<glyph unicode="T" horiz-adv-x="1302" d="M221 258q6 0 34 -3t34 -5q4 0 22.5 -11.5t22.5 -11.5q20 0 22 18.5t2 40t7.5 40t37.5 18.5q23 0 40.5 -12.5t39.5 -12.5h11q-6 4 -15.5 20.5t-7.5 25.5q0 2 7 15t14.5 28.5t14.5 29t9 17.5v12v10q0 2 -4 12.5t-8 22.5t-7 21.5t-3 13.5q0 33 7 69.5t15 72.5t15.5 72 t7.5 70v11q-2 2 -12.5 11t-10.5 11q0 66 22.5 135.5t22.5 141.5v16t-2 21.5t-7 19.5t-13 8h-205q-2 0 -11.5 -9t-11.5 -13v-13v-10q0 -4 5.5 -12t7.5 -10v-297q0 -16 -21.5 -25.5t-49.5 -14.5t-52.5 -6t-30.5 -1h-33.5t-36 5t-29 17t-12.5 37v6q0 2 2 4q2 4 10.5 12.5 t12.5 10.5v364q14 8 19.5 12.5t5.5 8.5t-3.5 9t-3.5 15h-24q0 14 20.5 51t46 78t49 77t27.5 46q4 -4 17.5 -14t28 -21.5t27.5 -20.5t17 -13h13h10q4 2 23.5 12t23.5 10q2 0 12 -3t21.5 -8t21.5 -8t13 -3q2 0 19 -1t26 -1q10 0 26.5 1t18.5 1q4 0 23.5 11t23.5 11q2 0 12 -7 t21.5 -14t21.5 -14.5t12 -9.5h11q23 0 44 12.5t42.5 25.5t42 23.5t43.5 6.5q2 0 12 -7.5t21.5 -15.5t21.5 -15t12 -7t23.5 -1t31.5 -1q23 0 36.5 4t22.5 9t19.5 9t26.5 4q27 0 37 -18.5t16 -40t12.5 -38.5t24.5 -17q8 0 25.5 9t21.5 13q0 -2 1 -10t1 -12t-1 -7.5t-1 -7.5v-8 q0 -2 -12 -11t-12 -12q0 -20 7 -41.5t16 -43t17.5 -43t8.5 -44.5q0 -6 -1 -18t-1 -14q0 -4 -11.5 -23.5t-11.5 -23.5q0 -8 7 -18.5t16.5 -21t16.5 -20.5t7 -20q0 -2 -1 -3t-1 -3v-5l-45 -45q-2 -4 -2 -6q-2 -2 -2 -4v-2q0 -12 5 -18t11.5 -13.5t11.5 -17.5t5 -27 q-29 0 -52.5 -15t-46.5 -34q16 -4 48 -13t45 -32q-10 2 -35 2t-35 -2q-2 0 -12.5 -4t-21.5 -8t-21.5 -7t-12.5 -3q-16 0 -32.5 32.5t-28.5 73.5t-20.5 78t-8.5 43q-2 4 -2 24.5t1 43t1 43v24.5q-2 2 -8 9t-14 15.5t-15.5 14.5t-9.5 8t-2 4v6v7q0 2 2 6q4 4 23.5 11t23.5 11 t-3 8.5t-7 8.5q-10 0 -41 4t-41 2q-4 0 -22.5 -11.5t-22.5 -11.5q-2 0 -12 3t-21.5 8.5t-21.5 8.5t-12 3q-6 0 -15.5 -9.5t-9.5 -13.5t12.5 -22.5t12.5 -22.5q0 -6 -4.5 -25.5t-8.5 -43t-8 -43t-4 -25.5v-24.5t-1 -53.5t-1 -61.5v-48.5v-124.5t3 -109.5t8 -110.5t16 -126.5 q-8 -4 -25.5 -21.5t-22.5 -24.5q-2 -4 3.5 -16t5.5 -14q25 0 54.5 -10.5t57 -21.5t48 -21.5t26.5 -10.5h6q2 0 4 2q4 4 11.5 22.5t11.5 22.5h4q2 0 3 1t3 1q25 0 45.5 -17t33.5 -42t20 -52.5t7 -47.5q0 -31 -19 -49.5t-47 -30.5t-60.5 -20.5t-57.5 -14.5h-52t-79 -1t-79 -1 h-52h-68t-85 1t-73.5 1h-33.5t-27.5 3t-54.5 10t-53.5 20.5t-24.5 34.5v190zM244 160q-16 0 -16.5 -22.5t16.5 -22.5q16 0 16 22.5t-16 22.5zM836 342q10 -2 10 -11t-10 -12q-10 -4 -10 10.5t10 12.5zM881 342q10 -2 10 -11t-10 -12q-10 -4 -10 10.5t10 12.5zM1085 729 q8 0 12.5 -7t4.5 -16.5t-4 -16.5t-13 -7q-8 0 -12 7t-4 16.5t4 16.5t12 7zM289 752q-12 -29 -45 -29v29h45zM494 797q16 0 16 -22.5t-16 -22.5t-16 22.5t16 22.5zM494 1161v-22l-23 22h23zM106 1456q16 0 16.5 -22.5t-16.5 -22.5q-16 0 -16 22.5t16 22.5zM721 1524 q-2 -10 -11.5 -10.5t-11.5 10.5q-2 10 11.5 10t11.5 -10z" />
<glyph unicode="U" horiz-adv-x="1112" d="M150 518l-12.5 12.5t-10.5 12.5v10q0 18 7 36.5t16.5 37t17.5 37t8 38.5t-14.5 28.5t-14.5 27.5v6q0 2 3 6q4 4 12 12.5t12 10.5v432q4 4 13.5 21.5t9.5 23.5q0 4 -9.5 13t-13.5 9t-23.5 -10t-23.5 -12h-10q-23 0 -35 10t-18.5 25.5t-7.5 34t-1 32.5q0 12 1 33.5t7.5 42 t17.5 35t34 14.5h12q10 -2 27.5 -5t36 -7t33 -7t18.5 -3q4 -2 22.5 -12.5t22.5 -10.5t14 7t21.5 15.5t20.5 15.5t11 7q4 2 21 6q8 2 14 2v-98q4 2 15.5 9t23.5 14.5t23.5 13.5t17.5 8q2 2 11 3t12 1v-149q-55 0 -75 -14.5t-24 -38t-3 -55.5t-11 -66q-2 -4 -12.5 -13.5 t-22.5 -19.5t-23.5 -20.5t-11.5 -14.5t6.5 -13.5t14.5 -20.5t15 -21.5t9 -12.5q6 -12 15.5 -38.5t9.5 -30.5q-4 -4 -24.5 -21.5t-22.5 -23.5q0 -2 -1 -15.5t-1 -17.5q0 -25 11 -35t24.5 -16t24.5 -16.5t11 -34.5q0 -4 -11 -12.5t-11 -12.5q-2 -4 -2 -8q-2 -4 -2 -13 q0 -16 1 -36.5t5 -41t14.5 -37t28.5 -22.5l-23 -22l12.5 -12.5t10.5 -12.5v-4v-4q0 -2 2 -2q0 -2 -1 -4t-1 -4v-4q-4 -4 -21.5 -13.5t-23.5 -9.5q0 -6 -2 -32.5t-2 -34.5q0 -61 46 -100.5t111 -39.5q20 0 67.5 11.5t94.5 30t83 43t36 52.5q0 18 -11 28.5t-25.5 18t-26 14.5 t-11.5 21t8.5 23.5t18.5 19t18.5 19.5t8.5 28q0 20 -8.5 28.5t-17.5 14t-17.5 11.5t-8.5 22q0 59 7.5 118.5t16.5 118t17.5 117t8.5 117.5q0 41 -4.5 81t-45.5 67q0 -8 -8 -35t-14 -33q-2 -4 -9.5 -8t-11.5 -4q0 2 -1 16.5t-1 18.5q-2 6 -8 25.5t-14 43t-14.5 43l-8.5 25.5 v10q0 47 19.5 75t70.5 28v-64q2 0 11.5 -3t11.5 -1q4 2 23.5 12.5t23.5 10.5q2 0 11 -11.5t12 -11.5q2 0 10 -1t12 -1q14 0 23.5 7t17.5 16.5t16.5 17.5t22.5 8q0 -2 2 -2h4h4q8 -6 25.5 -32.5t21.5 -35.5l23 46l45 -23v-121q-37 0 -59.5 -27.5t-35 -71.5t-17.5 -98.5 t-6 -105.5t1 -93t2 -65q0 -51 13.5 -99t13.5 -101q0 -111 -17.5 -222.5t-65.5 -201.5t-133 -147.5t-220 -57.5q-94 0 -151.5 22.5t-91.5 58.5t-50.5 80t-27.5 84t-24.5 72.5t-41.5 46.5v158zM741 588q16 0 16.5 -22.5t-16.5 -22.5q-16 0 -16 22.5t16 22.5zM379 860 q16 0 16 -22.5t-16 -22.5q-18 0 -18 22.5t18 22.5zM924 952q-4 2 -7.5 -2t-3.5 -10t3.5 -10t7.5 -2q10 4 10 12t-10 12zM104 1157q8 0 12.5 -7t4.5 -16.5t-4 -16.5t-13 -7q-8 0 -12 7t-4 16.5t4 16.5t12 7zM424 1384q-8 0 -12 -7t-4 -16t4 -16.5t12 -7.5t12 7.5t4 16.5 t-4 16t-12 7zM82 1430q-16 0 -16 -23t16 -23t16 23t-16 23z" />
<glyph unicode="V" horiz-adv-x="1216" d="M387 113q4 4 12.5 12t10.5 12v10q0 57 -29 120t-41 120q0 4 -3 27.5t-6 52.5t-7.5 57.5t-6.5 44.5q-4 37 -15 73t-26.5 72t-29 73.5t-19.5 76.5q-4 33 -14 83t-19.5 102.5t-13.5 101.5t2 78q-47 25 -74.5 39t-44 32.5t-21.5 47t-5 79.5q27 0 41 15.5t25.5 34t22.5 34 t30 15.5q41 0 41 -18.5v-47.5q14 0 24 3t19.5 7.5t19.5 7.5t27 3q6 0 17 -1t13 -1q6 -2 23.5 -22.5t24.5 -22.5q29 -12 50 -15.5t35.5 -11.5t21.5 -27.5t7 -64.5q0 -27 -10 -57.5t-49 -30.5h-6q-2 0 -4 2l-23 22q-2 2 -11 -1t-11 -3v-71q10 0 19 3t18.5 5t16.5 -3t13 -20 q-33 -14 -40 -33.5t-7 -46.5q0 -25 9 -41t21.5 -32.5t24 -34t15.5 -41.5q2 -18 7 -58t14 -85.5t25.5 -87.5t43.5 -64h-21q0 -39 -4 -62.5t1 -36t25.5 -15.5t69.5 -3q14 0 38 1t28 26q-6 4 -23.5 20.5t-21.5 24.5q-2 2 -2 4v6v6q0 2 2 6q4 4 22.5 11.5t22.5 11.5v4q0 2 1 3 t1 5q-2 0 -2 2v4v4l-23 23q-2 4 -2 6v6q0 12 12.5 27.5t29 33t30.5 35t21 29.5q0 2 2 4q0 2 1 3t1 3t-1 4.5t-1 4.5q-2 2 -2 4l-23 22v10v13q0 8 3 27.5t7 41t7.5 41t5.5 27.5q20 -2 37.5 29.5t30.5 72.5t19.5 78t4.5 47q-8 33 -31 38t-47.5 5t-43 4.5t-18.5 32.5 q0 37 37 64.5t85 47t95.5 29t69.5 9.5q14 0 47 -12.5t66 -31t58.5 -41t25.5 -42.5q0 -47 -25.5 -68.5t-55.5 -39t-55.5 -42t-25.5 -78.5v-12l23 -22v-11q0 -25 -11.5 -46t-25 -40.5t-24.5 -35t-11 -23.5q0 -16 3 -28.5t23 -20.5q-25 -8 -37 -35t-16 -62.5t-6 -73.5t-8 -71 t-22.5 -54.5t-47.5 -21.5q-2 -8 -5 -27.5t-7 -41t-7 -41t-3 -27.5q0 -6 1 -25.5t1 -43v-43t-2 -25.5q0 -4 -10.5 -13.5t-22.5 -20.5t-22.5 -21.5l-12.5 -12.5q-2 -4 -6 -21.5t-7 -35.5t-6 -35.5t-5 -21.5l-7.5 -22.5t-12.5 -34t-14 -34t-11 -22.5q-10 -2 -45 -4t-46 -2 q-47 0 -73.5 15.5t-48 34.5t-44 39t-61.5 30zM819 227q10 -2 10 -11t-10 -11t-10 11t10 11zM614 432q-16 0 -16 -22.5t16 -22.5t16 22.5t-16 22.5zM592 455h45v22h-45v-22zM887 659q-16 0 -16.5 -22.5t16.5 -22.5q16 0 16 22.5t-16 22.5zM614 705q16 0 16.5 -23t-16.5 -23 q-16 0 -16 23t16 23zM1114 1229q16 0 16 -22.5t-16 -22.5t-16 22.5t16 22.5zM535 1434h10q6 -2 23.5 -10.5t23.5 -12.5h-70v23h13zM750 1456q18 0 18 -22.5t-18 -22.5q-16 0 -16 22.5t16 22.5zM410 1524q10 -4 10 -11.5t-10 -11.5q-6 -2 -8.5 2t-2.5 9.5t2.5 9.5t8.5 2z" />
<glyph unicode="W" horiz-adv-x="1165" d="M162 190q0 16 7 35t16.5 36.5t16.5 34.5t7 32q-2 0 -2 2v4v4q-2 2 -9.5 8t-15.5 14.5t-14 14.5t-6 10q0 10 17.5 37t27.5 31l-45 22q10 16 29.5 27.5t37.5 17.5l-92 45v15q10 0 43 3t69 10t64.5 17.5t28.5 24.5v57h137q-25 18 -33 39t-13 40.5t-12 37.5t-32 31 q-4 2 -12 10t-10 12q-2 2 -2 4q-2 2 -3 6q0 6 3 9q0 2 2 4q43 45 57 91t14 118q2 0 9.5 -2t9.5 -2l45 -23h12h10q2 6 6.5 22.5t7.5 34t6 34t3 22.5v14v10q-2 4 -10.5 12.5t-12.5 10.5h-4h-4q-2 0 -2 2q-2 0 -3 -1t-3 -1h-6q-4 -4 -13.5 -11.5t-9.5 -11.5t11.5 -23.5 t11.5 -23.5q0 -18 -18.5 -21t-28.5 -3q-20 0 -31.5 8t-11.5 39q0 37 20.5 61.5t47 44t53 42t38.5 56.5q2 4 10.5 12.5l12.5 12.5h4q2 0 3 1t3 1t6 -1t6 -1q2 -8 5.5 -27.5t7.5 -41t7 -41t3 -27.5v-12v-11q0 -12 -3 -45t-7 -69.5t-7.5 -68.5t-5.5 -44q-4 -2 -12 -10t-10 -13 q-2 -4 -2 -6v-6q0 -16 7 -33.5t16.5 -38t17.5 -42t8 -42.5q-31 0 -44 6.5t-17.5 17.5t-2 28.5t2.5 42.5q-6 0 -15.5 2t-18.5 2t-15.5 -4t-6.5 -19v-346q-20 0 -28.5 6t-10.5 17.5t-1 25t1 25.5h-92q0 -18 6.5 -34.5t13.5 -32t13 -33t8 -37.5v-30v-50.5v-50v-29.5 q0 -4 7.5 -13.5t15.5 -20.5t15 -21.5t7 -12.5q8 -61 -15.5 -99t-58 -65.5t-72.5 -51t-59 -56.5q-4 2 -12 10t-10 12q-6 10 -19.5 34t-29 49.5t-27.5 47t-14 29.5v10zM684 43q-8 2 -22.5 13.5t-29 25.5t-25.5 28.5t-13 22.5q0 2 2 13.5t5 26.5t7 29.5t8 22.5l23 23v4q0 2 1 3 t1 3t-1 4t-1 4v4l-23 23q-2 4 -2 6v6q0 12 7.5 21.5t16.5 17.5t17.5 17.5t8.5 23.5q0 20 -13.5 35.5t-30 30t-31 30t-18.5 39.5q-2 8 1 21.5t9.5 27t15.5 25.5t19 18q-43 33 -51 90.5t-8 102.5q37 0 66.5 -9.5t55.5 -20.5t51.5 -20.5t55.5 -9.5q18 0 25.5 16.5t9.5 36t1 39 t-1 25.5q2 12 5 31.5t7.5 38t7.5 30.5l3 13h28q0 6 -4 23.5t-2 23.5q0 2 7.5 15.5t15.5 28.5t15 28.5t7 17.5q0 10 -17 27.5t-28 17.5q4 4 14.5 13.5t20.5 20.5t19.5 21.5t13.5 14.5v4q0 2 1 3t1 3q0 23 -5 42t-11.5 38.5t-11.5 43t-5 54.5q27 0 46.5 -14.5t28.5 -36t10 -46 t-7 -46.5q16 8 23.5 30.5t13.5 47t14 43t27 18.5q16 0 27.5 -21.5t17.5 -49t9 -55.5t3 -38q0 -25 -14.5 -36t-31.5 -20t-31.5 -20.5t-14.5 -35.5q0 -29 10 -47.5t37 -43.5q-18 -8 -37.5 -18t-29.5 -27v-18t-1.5 -27.5t-1.5 -28v-18.5q0 -49 12.5 -78.5t12.5 -68.5 q0 -27 -9 -41t-23.5 -23.5t-30 -16.5t-29.5 -22q-2 -2 -2 -4v-8q0 -18 11 -24.5t25.5 -9.5t26 -9t11.5 -24q0 -14 -10.5 -27.5t-24 -29t-24.5 -32t-13 -36.5v-34v-58.5v-57.5v-33q0 -10 -3 -35.5t-7 -55t-7.5 -55.5t-5.5 -36q-29 -6 -46 -21.5t-32.5 -31t-35 -27.5 t-49.5 -12q-29 0 -57.5 1t-51.5 23zM594 270q16 0 16 -22.5t-16 -22.5t-16 22.5t16 22.5zM616 408q0 -2 1 -10.5t1 -12.5q0 -14 -3 -26.5t-21 -20.5q0 2 -1 10t-1 12q0 14 3 27t21 21zM524 385q-2 -10 -11 -10t-11 10t11 10t11 -10zM524 475h-22v23zM297 520l22 23h-22v-23z M752 635q0 -6 9 -14.5t15 -8.5v68q-6 -4 -15 -21.5t-9 -23.5zM184 657v-30q-16 0 -38.5 5t-30.5 25h69zM106 866q25 0 53.5 -17.5t55.5 -42t44 -53t17 -51.5q0 -4 -1 -22t-1 -23q-4 2 -12 10.5t-10 12.5q-25 35 -44.5 45t-35.5 9t-28.5 -5t-20.5 5t-12.5 37.5t-4.5 94.5z M662 729q-33 0 -46 -27h46v27zM911 725q2 -4 10.5 -12t12.5 -11q4 -2 6 -2h6q2 0 5 1t5 1q-2 4 -10 12.5t-12 10.5h-4h-4q-2 0 -2 2q-2 0 -6.5 -1t-6.5 -1zM362 760q0 2 2.5 5t2.5 5q4 -2 12 -10t10 -12v-5v-4q0 -2 2 -2q0 -2 -1 -6t-1 -6q-4 2 -12 10t-10 13q-2 4 -2 6 q-3 2 -3 6zM889 770q-16 0 -16.5 -22.5t16.5 -22.5q16 0 16 22.5t-16 22.5zM162 795q2 4 -2 6t-10.5 2t-10.5 -2t-2 -6q4 -10 12.5 -10t12.5 10zM729 862q16 0 16 -22.5t-16 -22.5t-16 22.5t16 22.5zM866 907h45l-22 23zM68 1038q0 2 2 6q4 6 21.5 23.5t23.5 22.5 q-20 29 -29.5 55t-13.5 54t-4 56.5v61.5v22.5t1 35t1 34.5v23q0 4 9 13t13 9q8 0 19.5 -3t22.5 -6t19.5 -7t8.5 -6v-433q4 -6 12 -23.5t10 -23.5q2 -4 3 -11t1 -11h-61q0 20 -9 32.5t-20.5 22.5t-20.5 20.5t-9 26.5v6zM707 975q16 0 16 -22.5t-16 -22.5t-16 22.5t16 22.5z M502 999h45l-23 23zM479 1044q-16 0 -16 -22.5t16 -22.5t16 22.5t-16 22.5zM729 1067q16 0 16 -22.5t-16 -22.5t-16 22.5t16 22.5zM981 1112q-10 4 -10 -11.5t10 -10.5q10 4 10 11t-10 11zM1071 1180q16 0 16 -22.5t-16 -22.5t-16 22.5t16 22.5zM981 1227q-10 0 -14 -7.5 t-4 -16.5t4 -16t14 -7q8 0 12 7t4 16t-4 16.5t-12 7.5zM252 1339q-2 -10 -11.5 -10t-11.5 10q-4 10 10.5 10t12.5 -10zM469 1389q0 -2 2 -3h4q2 -2 4 -2q4 -2 12.5 -10t10.5 -12q-6 -18 -18.5 -21.5t-26.5 -3.5q-4 0 -12.5 1t-10.5 1q0 6 9.5 23.5t13.5 21.5q2 0 4 2 q2 0 3 1.5t5 1.5zM707 1362v-27q-33 0 -45 27h45zM571 1477q16 0 16.5 -22.5t-16.5 -22.5q-18 0 -18 22.5t18 22.5z" />
<glyph unicode="X" horiz-adv-x="1320" d="M641 80q-29 0 -55.5 -11.5t-55 -24.5t-59.5 -24.5t-65 -11.5h-28t-35 1t-30.5 1h-15.5t-12.5 3t-21.5 8.5t-21.5 8.5t-12.5 3q-8 0 -24.5 -9.5t-20.5 -13.5q-66 35 -92 68t-26 88q0 31 14 54.5t35.5 42t46 34.5t45.5 31q51 39 100 103.5t87 140t61.5 155.5t23.5 147 q0 27 -22.5 45.5t-44.5 22.5q16 4 20 18.5t2 30t-6 29.5t-4 20q-12 0 -41 30t-57.5 70t-50 81t-21.5 63h-14q0 4 -3.5 22.5t-7.5 22.5q0 2 -7 8t-15 14.5t-15.5 14.5t-7.5 8q-4 18 5.5 31.5t24.5 23t32.5 13.5t27.5 4q23 0 31 -14.5t27 -14.5h2q2 0 4 2q2 0 4 2 q6 2 18.5 8.5t27.5 13.5t27.5 13t18.5 10q8 -14 24.5 -22t32 -17.5t26.5 -20.5t11 -32h-55q0 -37 -8 -70.5t-11 -64.5t6 -59.5t42 -55.5q2 -2 12 -5t21.5 -6t21.5 -6t12 -5q10 -16 6 -35.5t-6 -37t6.5 -30t40.5 -12.5q23 0 51.5 22.5t53 53.5t41 63.5t16.5 55.5 q0 10 -2 32.5t-2 24.5q0 4 -11 22.5t-11 22.5t10 22.5t12 22.5v12v11q-2 4 -10 12t-12 10l114 115q8 -4 27.5 -11.5t41 -14.5t41 -12t28.5 -7q2 0 11 -1t13 -1q16 0 22.5 7t10.5 16.5t10 17.5t23 8q72 0 106.5 -47t34.5 -105q0 -12 1 -26.5t-1 -29.5t-7 -26.5t-20 -17.5 q-6 -2 -26.5 -8t-44 -14.5t-43 -15.5t-23.5 -9q-20 -12 -47 -48t-54.5 -85t-54 -106.5t-47 -111t-34 -96.5t-13.5 -65q0 -10 32 -54t72 -96.5t76.5 -97.5t47.5 -59q2 -2 5 -12.5t6 -22.5t6 -21.5t5 -11.5t11.5 -2t21.5 1t22.5 1h12.5q20 -10 37.5 -31.5t30 -48t19.5 -55.5 t7 -49q0 -14 1 -32.5t-1 -37t-7 -35t-18 -28.5q-16 -2 -55 -6.5t-82 -7.5t-83 -6t-54 -5h-10q-20 0 -55 7t-71 18.5t-68 23t-46 21.5q-4 2 -11 22.5t-11 22.5h-9q-4 0 -7 1t-5 1zM70 78q16 0 16 -22.5t-16 -22.5t-16 22.5t16 22.5zM616 168q4 -6 20.5 -23.5t25.5 -21.5 q0 6 1 23.5t1 21.5q0 14 -1 38.5t-24 31.5q-4 -6 -12.5 -23.5t-10.5 -21.5v-13v-12zM524 350q-4 -6 -12 -31.5t-10 -35.5v-23v-22q4 6 12 32.5t10 34.5v23v22zM649 399q-8 0 -16 -15t-15.5 -34.5t-13.5 -39t-10 -27.5h10h12q6 0 22.5 3t35 7t34 7t21.5 5q-4 12 -11 27.5 t-18.5 31t-24 25.5t-26.5 10zM662 442h22l-22 23v-23zM934 715l-23 -23v23h23zM434 874v-22l-22 22h22zM911 897q16 0 16.5 -22.5t-16.5 -22.5q-16 0 -16 22.5t16 22.5zM1026 987q10 -4 10 -11t-10 -11q-6 -2 -8 2t-2 9t2 9t8 2zM547 1192l-23 -23v23h23zM412 1262 q-16 0 -16.5 -22.5t16.5 -22.5q16 0 16 22.5t-16 22.5zM365 1307q29 12 28 45h-28v-45zM569 1364v-12q-2 -6 -11 -23.5t-11 -21.5q-2 -2 -4 -2h-6q-2 0 -6.5 1t-6.5 1q8 18 18.5 37.5t26.5 29.5v-10zM160 1397l-23 -23v47zM412 1444q-8 0 -12.5 -7t-4.5 -16.5t4 -16.5t13 -7 q8 0 12 7t4 16.5t-4 16.5t-12 7z" />
<glyph unicode="Y" horiz-adv-x="1220" d="M387 -49q16 0 16 -22.5t-16 -22.5t-16 22.5t16 22.5zM227 215q29 0 68 7t75 22.5t60.5 42t24.5 63.5q0 35 -12.5 67t-12.5 72q0 20 4 31.5t9.5 19t9.5 15.5t4 23q-2 0 -2 2v4v4q-14 23 -40 80t-54.5 128.5t-61.5 149.5t-63.5 143.5t-56 110.5t-44.5 49q-31 8 -49 10.5 t-27.5 10.5t-12.5 25.5t-3 56.5q0 6 1 27.5t1 27.5q78 49 152.5 72.5t167.5 23.5v-22q41 0 47 22.5t6 73.5q27 0 31 -19.5t4 -42t7 -42t40 -19.5q4 0 22.5 10.5t22.5 12.5t10 3t10 1q0 -4 2 -24.5t2 -24.5q0 -6 4.5 -30t8.5 -50.5t7 -50t3 -29.5q0 -10 -9.5 -37t-13.5 -33 q-6 -4 -16 7.5t-14 11.5q0 -4 -3.5 -15.5t-6.5 -26t-6 -27.5t-1 -17t13.5 -13.5t23.5 -20.5t22.5 -21.5t10.5 -12.5q0 -4 -3 -21.5t-7 -36t-8.5 -36t-4.5 -21.5q0 -6 8.5 -23.5t14.5 -21.5q6 -6 20 2q6 4 13 11v192q8 0 30.5 9t26.5 14v6q0 2 1 3t1 3q0 10 -8 16t-20.5 12.5 t-23.5 11.5t-18 15q10 29 24.5 23t35.5 -6q0 14 5 22t5 13.5t-9 9.5t-38 8v135q33 0 47 14.5t23.5 31.5t16.5 31.5t26 14.5q4 0 23.5 -10t23.5 -12q12 -4 33.5 -7.5t43 -7.5t38 -6t20.5 -2t14 6t21.5 14.5t20.5 15.5t13 9h11q27 0 57.5 -12t57 -32.5t43 -46.5t16.5 -52 q0 -16 -1 -42t-6 -53.5t-14.5 -50t-27.5 -30.5q-6 20 -18.5 23t-26.5 3q-31 0 -43.5 -16t-17.5 -41t-5 -51.5t-5 -47t-19.5 -30.5t-47.5 2l-135 -274q18 -20 10 -33t-26 -21q-23 -8 -53 -14q-8 -8 -13.5 -38t-7.5 -63.5t-3 -63.5t-1 -40v-18.5t1 -27.5t1 -27.5v-18.5 q12 -6 20.5 -21.5t13.5 -34t6 -37t1 -30.5q16 0 51 -28.5t71 -66.5t63.5 -76t27.5 -58t-31.5 -34.5t-72.5 -25t-81 -15.5t-55 -5h-14q-37 2 -98.5 3t-131 5t-136 12.5t-111.5 26.5q-4 2 -13.5 10t-9.5 12v195zM954 156q10 -4 10.5 -22.5t-10.5 -22.5q-4 -2 -7 6t-3 17 t3 16.5t7 5.5zM954 248h-22v22zM295 270h-23l23 23v-23zM500 1227v22h-45zM864 1589q-4 -10 -11 -10t-11 10t11 10t11 -10z" />
<glyph unicode="Z" horiz-adv-x="1232" d="M201 0q-27 0 -52.5 13.5t-45 35t-31 48t-11.5 50.5q0 27 20.5 75t52.5 106.5t74 120t85 111.5t84 84t74 38q-20 20 -7 35.5t38.5 31t51 32t29.5 38.5q4 20 2 37.5t-2 34t4 32t21 31.5l22 -22q35 27 47.5 56.5t18.5 62t14 65.5t33 66l22 -45q4 6 11.5 18t14.5 27.5 t13.5 28t8.5 18.5q2 4 -2.5 11t-4.5 11h-198l-25 23q-4 -6 -13 -18.5t-19.5 -28t-20.5 -27.5t-14 -18q-4 -4 -12.5 -13.5t-10.5 -9.5q-4 0 -22.5 11.5t-22.5 11.5q-8 0 -15 -11.5t-14 -23.5l-16 -33q-10 6 -16.5 17.5t-12.5 23.5t-12 20.5t-16 8.5q-2 0 -6.5 -1t-6.5 -1 q-2 -4 -6 -17.5t-7 -28t-6 -26.5t-3 -18q0 -4 10 -22.5t12 -22.5v-13v-10q-2 -4 -11 -23.5t-11 -23.5q0 -2 -1 -11.5t-2 -19.5t-1 -20.5v-12.5q-47 0 -77 17.5t-46.5 45.5t-23.5 58.5t-11 58t-7 46t-13 20.5q8 12 20 20.5t25.5 14.5t26 14.5t20.5 20.5q-2 6 -6.5 21.5 t-7.5 34t-6 34.5t-3 22v15q0 8 7.5 26.5t17.5 38t21.5 36t21.5 22.5q14 -6 19 -13.5t4 -15.5t-4 -18.5t-3 -18.5q72 0 142.5 11.5t142.5 11.5q4 0 17.5 1t27.5 -1t26.5 -7.5t14.5 -19.5l67 70q33 -47 36 -99.5t3 -105.5h29q2 4 5 25.5t8 47t13.5 50t20.5 37.5h4q2 0 3 1t3 1 q18 0 26.5 -9.5t14.5 -21.5t15.5 -21.5t27.5 -9.5q0 14 4.5 26.5t26.5 12.5q23 0 47.5 -28.5t44 -66.5t31.5 -76t12 -54q-51 0 -85 -20.5t-57.5 -51.5t-39.5 -67.5t-33 -71.5q-2 -4 -10 -11.5t-12 -11.5q-35 -23 -42.5 -47t-5 -45.5t1.5 -40t-24 -26.5h-17.5t-28.5 1 t-28.5 1t-15.5 -2t-10.5 -28t-12.5 -40q-6 -25 -14 -35t-18.5 -16t-19.5 -13.5t-15 -25.5q-12 -39 -13.5 -81t-11.5 -79q-4 -14 -12 -18t-18.5 -6t-20.5 -5.5t-16 -15.5q-8 -12 -17.5 -42t-25 -58.5t-39 -48t-56.5 -11.5q0 -4 9.5 -13t15.5 -9q2 0 15.5 3t28.5 8t28.5 8 t17.5 3q2 0 15.5 -3t28.5 -8t28.5 -8t17.5 -3t23.5 11t23.5 11q25 2 71 -2t93 -2t85 16.5t46 55.5q10 59 17.5 98t14.5 73t15.5 67.5t20.5 80.5q8 0 33.5 1.5t35.5 1.5q43 0 69 -26t41 -63.5t20.5 -82t5.5 -80.5q0 -133 -29 -217t-88.5 -133.5t-148.5 -68t-212 -18.5 q-35 0 -57 3.5t-55 23.5h-387zM518 317q10 -2 10 -11t-10 -11t-10 11t10 11zM860 432q8 0 12.5 -7t4.5 -16.5t-4.5 -16.5t-12.5 -7t-12 7t-4 16.5t4 16.5t12 7zM1087 590q-16 0 -16 -22.5t16 -22.5t16 22.5t-16 22.5zM383 795q2 0 5 2t5 2q0 -2 2 -2h4q2 -2 7 -2 q4 -2 12 -10.5t10 -12.5q-8 -14 -20.5 -20.5t-24.5 -6.5v50zM563 772q-16 0 -16 -22.5t16 -22.5q18 0 18 22.5t-18 22.5zM768 1047q-8 0 -12 -7.5t-4 -16.5t4 -16.5t12 -7.5t13 7.5t5 16.5t-5 16.5t-13 7.5zM178 1092q-18 0 -18 -22.5t18 -22.5q16 0 16 22.5t-16 22.5z M928 1092q16 0 16 -22.5t-16 -22.5t-16 22.5t16 22.5zM383 1229q-10 0 -14 -7.5t-4 -16.5t4 -16t14 -7q8 0 12 7t4 16t-4 16.5t-12 7.5zM154 1251q8 0 13 -7t5 -16t-5 -16.5t-13 -7.5t-12.5 7.5t-4.5 16.5t4.5 16t12.5 7zM428 1296q-16 0 -16 -22.5t16 -22.5t16 22.5 t-16 22.5zM633 1296h22v23z" />
<glyph unicode="_" horiz-adv-x="1667" d="M129 -82q4 4 13.5 14.5t20.5 20.5t20.5 19.5l13.5 13.5q10 0 36.5 -1t55 -1t54.5 1t36 1q4 0 23.5 10t23.5 12h8q4 0 7 1t8 1q23 0 40 -12t39 -12h11q4 0 21.5 4t35.5 7t35.5 7t21.5 4h25q35 0 59.5 -12t63.5 -12q37 0 68.5 12t68.5 12q35 0 59.5 -12t65.5 -12 q14 0 39.5 1t27.5 1q4 0 22.5 11t23.5 11q2 0 11 -11t11 -11q6 -2 12 -2h21q23 0 44 7t42.5 16t40 16.5t35.5 7.5q27 0 50 -24.5t40.5 -58.5t27 -69t7.5 -53q0 -2 -17.5 -27.5t-27.5 -40.5q-4 -4 -12.5 -13t-10.5 -9h-1253q-23 0 -36.5 23.5t-20.5 54t-9 58.5t-2 36v10z" />
<glyph unicode="`" horiz-adv-x="724" d="M61 1313q0 33 13.5 58.5t34.5 55.5l47 -22q2 8 13 22.5t25.5 28.5t29 25.5t22.5 13.5q2 0 15 -2t31.5 -5t37 -8t30.5 -7l46 -23q2 -2 11 -2t11 2q41 -51 78 -98t65.5 -97.5t45 -105.5t16.5 -123v-8q-35 -45 -53.5 -69.5t-59.5 -24.5q-70 0 -133 30.5t-115.5 77.5 t-94.5 103.5t-68 109.5q0 2 -7.5 8.5t-15.5 14.5t-15.5 14t-7.5 8q-2 4 -2 8v15v0z" />
<glyph unicode="a" horiz-adv-x="1216" d="M51 344q0 41 19.5 65.5t42 49t40 54.5t15.5 79h10h12l46 -23h10q14 0 61 18.5t100.5 44t96.5 52.5t49 43q4 -2 12 -10t13 -12q2 -4 -2.5 -6.5t-4.5 -6.5q29 0 54.5 -5t46 -5t32 11.5t11.5 45.5q0 35 -16.5 49.5t-53.5 14.5v31q-8 0 -27.5 2t-41 3t-41 2t-27.5 1 q-2 0 -10.5 -9.5t-12.5 -13.5q-6 -8 -32.5 -36.5t-57.5 -61.5q-37 -37 -80 -86q-25 0 -48 26.5t-41.5 61.5t-30 69.5t-11.5 51.5q0 53 20.5 85t54.5 51t74 29.5t78 22.5t70.5 30.5t48.5 51.5q4 -6 21.5 -23.5t26.5 -21.5q2 -2 4 -2h6h6q2 0 6 2t22.5 10t22.5 13 q55 -25 122 -56.5t126 -74.5t99 -100.5t40 -133.5q0 -4 -9 -13t-13 -9v-388q0 -27 25.5 -44t55 -33.5t55 -39t25.5 -59.5v-37.5t-5 -40t-16 -31t-34 -12.5q-49 0 -88 15.5t-72.5 33t-64.5 33t-62 15.5q-35 0 -46 -9.5t-15 -21.5t-8 -24.5t-25 -16.5q-78 -16 -160.5 -32.5 t-164.5 -16.5q-68 0 -132.5 29.5t-114.5 78t-81 110.5t-31 130zM346 387q0 -20 5 -36.5t11.5 -33t11.5 -35t5 -40.5q14 0 23.5 13t12.5 29.5t4 34t1 27.5q0 29 -5 51.5t-42 34.5q-20 -6 -23.5 -17.5t-3.5 -27.5zM258 365q0 -10 3 -26.5t6 -31t7.5 -25t6.5 -10.5h32 q0 6 -1 18.5t-3 28t-4 27.5t-2 19q-2 4 -10 13t-12 9t-13.5 -9t-9.5 -13zM463 342q4 -8 21.5 -25.5t23.5 -21.5q4 -2 6 -2h6h6q2 0 4 2q6 6 11.5 18.5t10.5 24.5t13 20.5t23 8.5q2 0 4 -1t4 -1h4q4 -4 13.5 -22.5t9.5 -25.5q18 8 21 19.5t3 28.5q0 20 -4 34.5t-20 32.5 q-6 -4 -23.5 -12t-21.5 -10h-13h-12q-6 4 -23.5 21.5t-21.5 23.5q-8 -4 -16.5 -17.5t-14.5 -30t-10 -32t-4 -23.5v-10zM690 864q-16 0 -16 -22.5t16 -22.5t16 22.5t-16 22.5z" />
<glyph unicode="b" horiz-adv-x="1067" d="M348 68h-158l-22 24q4 2 12 10.5t10 12.5v10q0 59 -13 112.5t-13 114.5q0 12 1 33t1 40t1 34.5t1 17.5q0 4 3 17.5t8 29t8 28.5t3 17q0 2 -3 15.5t-7 29t-8 28.5t-4 17v21v27q0 8 4 37.5t7 64.5t7 64.5t4 37.5v11v12l-22 113v22v23q0 4 4 17t7 28.5t7 29t4 17.5v14 q0 20 -14 37.5t-35.5 30t-45 18.5t-42.5 6v76h295q2 0 9.5 -20.5t14.5 -50t13 -60.5t10 -51q0 -10 1 -36t1 -55.5t-1 -55t-1 -36.5q4 4 22.5 12.5t22.5 10.5h11h12q4 -2 22.5 -13.5t22.5 -9.5q2 2 9 12.5t14.5 22t13.5 21.5t8 12q4 2 23.5 -9t23.5 -13h10h13l45 22h12 q82 0 148.5 -63.5t111.5 -153.5t69.5 -186.5t24.5 -163.5q0 -20 -1 -55t-1 -37q-23 -102 -59.5 -171t-91 -112t-124 -66.5t-157.5 -37.5q-4 0 -23.5 -11.5t-23.5 -11.5q-14 2 -41 15.5t-54.5 29.5t-52 35.5t-32.5 34.5zM346 600q0 -29 12.5 -83t34 -109.5t51 -100.5 t64.5 -57q4 -2 22.5 0t22.5 0q6 -2 16.5 -11.5t20.5 -19.5t19 -20.5t14 -16.5l45 68q6 -18 19 -21.5t28 -3.5q18 0 23 3t6 11.5t2.5 22.5t11.5 35q6 12 18 19.5t25.5 13.5t27 14t21.5 21h-51q0 4 -11.5 22.5t-5.5 22.5q27 27 44.5 33t27.5 15t15 34.5t5 91.5q0 20 -5 39.5 t-10 38t-10 39t-5 47.5q-45 0 -73 19t-28 69q-43 0 -69.5 14t-63.5 14q-43 0 -89 -24.5t-85 -62.5t-64.5 -85t-25.5 -92zM440 432q16 0 16.5 -22.5t-16.5 -22.5q-16 0 -16 22.5t16 22.5zM463 1069h-27q0 4 2 11t2 12q2 6 10.5 23.5t12.5 23.5v-70zM76 1206q16 0 16 -22.5 t-16 -22.5t-16 22.5t16 22.5z" />
<glyph unicode="c" horiz-adv-x="1044" d="M51 567q0 33 6 61.5t13.5 55.5t15.5 55.5t12 63.5q8 12 34 37.5t55.5 55.5t56 54.5t37.5 34.5q14 14 49 29.5t68.5 29t59.5 22.5l27 9q10 0 40 2t40 2q45 0 73 -14t67 -14h4q2 0 4 2q6 6 14 23.5t8 23.5q37 -33 75 -56.5t66.5 -50t47 -61.5t18.5 -88q0 -29 -4 -61.5 t-15.5 -63.5t-28.5 -57.5t-44 -40.5q-8 18 -35 32.5t-54.5 24.5t-49 19.5t-21.5 15.5q0 4 12.5 22.5t10.5 22.5q0 2 -7.5 8t-15.5 14t-15 14.5t-7 8.5v12t1 22.5t1 21.5t-2 11q-4 6 -17.5 13.5t-28 15.5t-26.5 13.5t-18 5.5q-4 0 -10.5 -7.5t-13.5 -15.5t-14.5 -15.5 l-9.5 -9.5q-4 -2 -8 -2h-14q-14 0 -26.5 3t-18.5 24q-2 -6 -8 -19.5t-13.5 -27.5t-14.5 -27.5t-9 -17.5q-37 -45 -63.5 -75t-43 -63.5t-23.5 -77.5t-7 -116q0 -18 24.5 -60t58 -87t68.5 -79t53 -34q14 0 26.5 8t24 20.5t21.5 23.5t21 18h8h14q2 -2 12.5 -6.5t21.5 -8.5 t21.5 -7t12.5 -3t11 10t11 15q35 29 60.5 50t50 34.5t54.5 20.5t77 7q10 0 19.5 -16.5t16.5 -35.5t12 -37.5t7 -22.5v-13q0 -59 -48 -107t-114.5 -83t-138.5 -54.5t-119 -19.5q-117 0 -212 45t-162.5 122t-104.5 179t-37 217zM373 461q16 0 16 -22.5t-16 -22.5 q-18 0 -18 22.5t18 22.5z" />
<glyph unicode="d" horiz-adv-x="1105" d="M766 37q-12 41 -41 44t-57 3q-31 0 -55.5 -11.5t-41 -24.5t-26.5 -24.5t-17 -11.5h-8q-4 0 -6 2l-45 23h-10q-29 0 -52.5 -12.5t-56.5 -12.5h-24q-8 0 -17 2q-68 33 -120 91.5t-85.5 128t-51 145.5t-17.5 147v20.5t1 31t1 31v20.5q4 0 13 9t9 13t-10 22.5t-12 22.5 q-2 2 -2 6v9v4q0 2 2 4q4 4 23.5 11t21.5 11q2 6 6 21.5t8 34t6 35t2 24.5q0 6 -8 23.5t-14 21.5h70q10 14 40.5 45t69.5 61.5t77 54t62 23.5q2 0 6.5 -1t8.5 -1h8q61 -31 95 -43t57.5 -22t48 -29.5t71.5 -64.5q2 -2 4 -2h9q8 0 21 12t26.5 28.5t22.5 32t9 21.5 q0 4 -11 22.5t-11 22.5q0 2 10 11t12 11v7q0 2 1.5 3t1.5 3q-2 0 -3 2v4v4q-4 4 -23.5 22.5t-23.5 22.5v21.5t1 36t1 36t-2 21.5q-4 23 -29.5 26.5t-54 7t-52 15.5t-23.5 53q0 35 11 47t46 12q45 0 96 -9t92 -30.5t69 -56.5t28 -88q0 -4 -10.5 -22.5t-12.5 -22.5v-12v-10 q0 -4 4 -21.5t8.5 -36t7.5 -36t3 -21.5t-3 -21.5t-7.5 -36t-8.5 -36t-4 -21.5v-24q0 -23 11.5 -39.5t11.5 -38.5v-10q-2 -4 -10.5 -12.5t-12.5 -10.5v-524q0 -49 10.5 -59.5t42.5 -10.5q23 0 43.5 3t40.5 22v-18.5t1 -27t1 -27.5v-17q0 -43 -3 -87.5t-44 -72.5 q-18 25 -48 37t-62.5 15t-64.5 0t-52 -7zM174 197q-16 0 -16 -22.5t16 -22.5t16 22.5t-16 22.5zM219 356q0 -37 15.5 -62.5t40 -43t55 -25.5t59.5 -8h22.5t33 5t24.5 14.5t0 27.5q12 2 45 17.5t67.5 35t62.5 38t30 24.5l-45 22q14 4 37.5 27t46 48.5t39 47t16.5 25.5 q-2 0 -2 2v4v6q-4 4 -24.5 21.5t-22.5 23.5q-27 68 -35 113t-23.5 72.5t-53.5 39t-122 11.5q0 10 3.5 24.5t3.5 27.5t-7.5 22.5t-25.5 9.5t-24.5 -8.5t-9.5 -20.5t-7 -23.5t-17 -17.5l-22 23q-8 8 -30.5 -12.5t-48.5 -47t-49.5 -51.5t-31.5 -27v-385zM537 424q18 0 18 -22.5 t-18 -22.5q-16 0 -16 22.5t16 22.5zM287 446v-22h-23v22h23zM561 901l23 23h-23v-23zM379 946q-16 0 -16.5 -22.5t16.5 -22.5q16 0 16 22.5t-16 22.5zM788 946q-16 0 -16 -22.5t16 -22.5t16 22.5t-16 22.5z" />
<glyph unicode="e" horiz-adv-x="1083" d="M168 166q-10 0 -16.5 -8t-12.5 -20.5t-12 -24t-16 -17.5q4 18 1 30.5t-8.5 23t-10.5 21.5t-5 28v12q4 6 21.5 23.5t23.5 21.5l-67 68q0 2 -1.5 20t-2.5 43t-1 50.5v41.5v57t1 74t2.5 66t1.5 35t3 20t6 28.5t7 26t6 15.5q2 2 11.5 9t21.5 15.5t22.5 14.5t14.5 8l22 22 q39 80 69 121t66.5 60.5t89 26.5t138.5 20q4 0 17 4t28.5 8t29 7t17.5 3q2 0 9 -7t14.5 -15t13.5 -15.5t8 -7.5q2 -2 12 -5t21.5 -7t21.5 -7t13 -3q51 -25 83.5 -57.5t61.5 -68.5t57.5 -74t71.5 -75v-20.5t1 -30.5t1 -30.5v-20.5q0 -129 -15.5 -251t-63.5 -216t-138 -150.5 t-240 -56.5q-18 0 -42.5 2t-50 6t-49.5 8.5t-40 10.5q-23 8 -52.5 30.5t-59 46t-57.5 42t-48 18.5zM315 379q68 0 88.5 -8.5t21.5 -21.5t0 -31.5t28 -38.5q2 -2 24.5 -6.5t50 -8.5t52 -7t32.5 -3q35 0 44.5 6t11.5 16.5t6 22.5t28 25q6 2 35 0t35 0q20 12 30.5 28.5t22 31.5 t28.5 25.5t54 10.5v63h-125v68q-6 -2 -14 -11.5t-17.5 -19.5t-16.5 -20.5t-9 -16.5q-2 -10 7 -35.5t16 -31.5q-2 -4 -10.5 -5t-12.5 -1t-13.5 1t-9.5 5q-2 2 -5 12t-6 21.5t-6 21.5t-5 12t-15.5 1t-30 -1t-29.5 -1t-15 1q-4 2 -7 11.5t-6.5 21.5t-5.5 22.5t-4 12.5h-4h-4 q-2 0 -2 2q-23 0 -38 -26.5t-21 -43.5q-8 12 -27.5 32t-40.5 20v-52h-137v-45h22v-59zM725 279q-16 0 -16 -23t16 -23t16 23t-16 23zM635 324q-2 -10 -11.5 -10.5t-11.5 10.5q-2 10 11.5 10t11.5 -10zM475 770q2 0 11.5 6t11.5 2q2 -2 9 -12t14 -22.5t13.5 -21.5t8.5 -11 q6 -4 22.5 -8.5t34.5 -7.5t34.5 -5t22.5 -2q16 31 20.5 53.5t4.5 53.5q0 14 -19.5 33.5t-45 38t-53 30.5t-44.5 12v-49q-10 0 -22.5 -6t-23.5 -7t-17 7t-4 39q-6 -6 -18.5 -22.5t-27 -35t-27.5 -35t-18 -22.5q-4 -2 -12 -11t-12 -11q-2 -4 -3 -11.5t-1 -11.5h141v37z M721 809q0 -29 5 -52.5t22 -45.5l47 45q-14 18 -31.5 35.5t-42.5 17.5zM657 915q-16 0 -16 -22.5t16 -22.5t16 22.5t-16 22.5zM840 915q-16 0 -16.5 -22.5t16.5 -22.5q16 0 16 22.5t-16 22.5z" />
<glyph unicode="f" d="M47 119q0 12 5 33.5t14.5 42t22.5 36t28 15.5q4 0 23.5 -11.5t23.5 -11.5q2 0 12 7.5t21.5 15.5t21.5 15t12 7q27 8 47.5 12.5t35 13.5t22.5 28.5t8 60.5q0 37 -7 76t-16.5 79t-16.5 78.5t-7 73.5v6q0 2 2 4l45 45q0 4 2 7q0 2 1 3t1 3q0 51 -43 67.5t-95 21.5t-95 11 t-43 37q0 25 5 45.5t11 42t11 46t5 58.5h13v-40q63 0 100 17t58.5 46t31.5 66.5t20.5 77.5t24 80t39.5 73q2 2 11.5 5t21.5 7l22.5 7.5t12.5 3.5q4 2 22.5 10t22.5 12h32.5t52 1t52.5 1h35q82 0 144.5 -4t108.5 -25.5t80.5 -67.5t63.5 -132q0 -2 1 -16.5t1 -20.5 q0 -53 -19.5 -74.5t-48 -29t-60.5 -7.5t-56 -12q-2 -2 -8 -12.5t-14.5 -21.5t-14.5 -21.5t-8 -12.5q-10 -4 -26.5 4.5t-18.5 18.5q0 -2 -1 -10.5t-1 -12.5q0 -14 8 -25t18.5 -21.5t16.5 -21.5t4 -24q-2 -8 -21.5 -23.5t-42 -30.5t-44 -26.5t-27.5 -11.5q-4 0 -13.5 1 t-11.5 1q-4 2 -22.5 12.5t-22.5 10.5q-2 0 -10 -9.5t-13 -13.5q-6 -10 -14 -26.5t-8 -20.5t10 -22.5t12 -22.5v-10q0 -43 -12 -76t-12 -84q0 -37 4 -68.5t11 -62.5t15.5 -62.5t16.5 -68.5q41 14 82 10t72.5 -24.5t52 -54.5t20.5 -79q0 -53 -14 -89t-76 -36h-434 q-6 -4 -31.5 -12t-36.5 -10h-10q-29 0 -66.5 5t-71.5 19.5t-57.5 38t-23.5 60.5zM117 336h-23v22zM369 541q2 10 -12.5 10t-12.5 -10q4 -10 12.5 -10t12.5 10zM231 793q8 0 12.5 -7.5t4.5 -16.5t-4 -16.5t-13 -7.5q-8 0 -12 7.5t-4 16.5t4 16.5t12 7.5zM231 1020 q-8 0 -12 -7t-4 -16.5t4 -16.5t12 -7t12.5 7t4.5 16.5t-4.5 16.5t-12.5 7zM635 1225q0 -12 1 -33t6 -41.5t16.5 -34.5t31.5 -14q0 35 -15.5 60.5t-15.5 62.5h-24zM731 1110h23v23z" />
<glyph unicode="g" horiz-adv-x="1335" d="M55 0q0 86 22.5 126t48.5 58.5t48.5 29.5t22.5 40q0 33 -17.5 49t-54.5 39q25 12 39 44t22.5 76t12.5 96t7 101.5t5 91.5t6 68q2 20 17.5 55t36 72t42 65.5t39.5 37.5q2 0 23.5 11t46 24.5t44.5 23.5l21 10q39 0 68 -13t72 -13q25 0 39 4t25 9t21.5 9t28.5 4 q23 0 38.5 -12t29.5 -28.5t29.5 -32t38.5 -21.5q0 4 1 12t1 13q0 12 -4.5 20t-10.5 15.5t-10 15.5t-4 22q25 0 58.5 -2t68.5 -5t68.5 -8t58.5 -13q4 0 17.5 -7.5t28.5 -14.5t28.5 -14t17.5 -9q6 -6 10 -7q0 -31 11.5 -50t25.5 -37.5t25.5 -42t11.5 -64.5q-18 0 -50 -13.5 t-62.5 -31t-55.5 -32.5t-31 -19h-12h-10l-45 22h-13q-29 0 -37 -28.5t-10 -65.5t-7 -69.5t-25 -41.5q-18 -8 -53 -24.5t-72 -37t-71 -39.5t-54 -34q-29 -23 -23 -54.5t6 -60.5h54q0 12 -6.5 24.5t-8.5 22t6.5 15.5t38.5 6q2 0 19.5 -8t27.5 -14q43 -29 105.5 -53.5 t119 -55.5t97.5 -75t41 -111q0 -20 -4 -52t-11.5 -65t-15.5 -62.5t-14 -48.5q16 4 36.5 -6t30.5 -16q-12 -10 -19 -22.5t-13 -26t-13.5 -25.5t-21.5 -18q-23 -10 -49.5 -16.5t-54 -12.5t-53 -15.5t-48.5 -23.5q4 4 4 11t-4 12q-4 4 -22.5 12t-22.5 10q-4 -35 -33.5 -57.5 t-58.5 -32.5q-2 4 -10.5 12t-12.5 11h-10q-31 0 -54.5 -13.5t-60.5 -13.5q-80 0 -178 25.5t-182 74.5t-141.5 122t-57.5 167zM854 -135q-16 0 -16 -22.5t16 -22.5t16 22.5t-16 22.5zM328 6q0 -2 2 -6l137 -135h8h14q8 2 22.5 5t29 7t26 7t15.5 3l22 23h4q2 0 3 1t3 1 q0 -2 2 -2h5h6l45 -45q2 -2 4 -2h8h6q2 0 4 2l45 22h13h10q2 0 12 -4t22.5 -8t21.5 -7t13 -3q33 0 48.5 10t22.5 25.5t11.5 32t14.5 28.5t28.5 17.5t57.5 -1.5q4 4 4 13q0 2 -1 6t-3 4q-4 2 -28.5 20.5t-52.5 40t-52.5 38t-26.5 16.5q-8 0 -30.5 1t-49 1t-49.5 -1t-31 -1 q0 10 -9 35.5t-13 31.5h-4q-2 0 -4 2q-4 0 -6.5 -1t-4.5 -1h-4l-22 -22q-4 -2 -6 -2h-7h-6q-2 0 -4 2l-22 22h-7h-4q-2 0 -2 2q-4 0 -30.5 -13t-57 -29.5t-55.5 -31t-27 -18.5t0 -23.5t0 -21.5t-12 -5t-21.5 -6t-22.5 -6t-13 -5q-2 -4 -2 -7v-6v-6zM1171 -90 q18 0 18.5 -22.5t-18.5 -22.5q-16 0 -16 22.5t16 22.5zM1196 -45q16 0 16 -22.5t-16 -22.5q-18 0 -18 22.5t18 22.5zM1241 47v-22l-22 22h22zM1171 70q18 0 18.5 -22.5t-18.5 -22.5q-16 0 -16 22.5t16 22.5zM422 160h22v22zM147 274q18 0 18.5 -22.5t-18.5 -22.5 q-16 0 -16 22.5t16 22.5zM535 365q2 -2 5 -12.5t6 -22t6 -21.5t5 -12q4 -4 13.5 -8t13.5 -4q0 51 -6.5 84.5t-24.5 54t-52 28t-87 7.5q0 -2 1 -19.5t4 -38t9 -39t16 -20.5q2 0 12.5 3t21.5 7t21.5 8.5t12.5 4.5h14h9zM899 479h-22v23zM535 639q37 0 53 30.5t16 59.5l45 -45 q2 2 9.5 12.5t14.5 20.5t13 20.5t8 14.5v6q0 2 1 3t1 3q-2 0 -2 2v4v4q-2 6 -11 14.5t-11 8.5q-4 0 -22.5 -12.5t-22.5 -10.5q-20 6 -29.5 16.5t-14.5 23.5t-9.5 26.5t-16.5 25.5h-4h-4q-2 0 -2 2q-2 0 -6 -1t-6 -1v-227zM444 729q-16 0 -16 -22.5t16 -22.5t16 22.5 t-16 22.5zM489 844q-10 4 -10 -12.5t10 -12.5t10 12.5t-10 12.5zM217 934q16 0 16 -22.5t-16 -22.5t-16 22.5t16 22.5z" />
<glyph unicode="h" horiz-adv-x="1255" d="M469 -184q10 -2 10 -11.5t-10 -11.5t-10 11.5t10 11.5zM1221 -162q10 -2 10 -11t-10 -11t-10 11t10 11zM51 51q0 51 5 79t21.5 46.5t44.5 32.5t75 39q-4 51 2 89t15 70.5t18.5 61.5t9.5 63v11q-2 4 -11.5 23.5t-11.5 23.5v10v12q0 2 8.5 17.5t16.5 32t15 32t7 21.5 q-2 0 -2 2v4v4q-2 2 -9 8t-14.5 13.5l-14.5 14.5t-7 9q-2 4 10.5 23.5t12.5 23.5q0 2 1 22.5t1 30.5q0 51 -4 86t-21 88l45 23q-4 4 -12 22.5t-10 22.5q-20 61 -48 86t-55.5 42t-49 41t-30.5 81q-6 39 11.5 58.5t44 27.5t57.5 8h53q37 0 83 -7t87 -25.5t69 -49.5t28 -80 v-272h182l67 68q10 -14 33 -30t37 -16q4 0 22.5 10.5t22.5 12.5h10h13q6 -35 28.5 -60.5t51 -50t57 -51t45.5 -65.5q0 -8 1 -27.5t1 -41t1 -41t1 -28.5q0 -78 -5 -140t-44 -132l45 -22q-10 -68 -2 -102t26.5 -52t42 -27.5t45 -27t36 -51t14.5 -99.5q0 -35 -34 -66.5 t-71 -31.5h-12q-4 4 -22.5 12t-22.5 12q-4 0 -18.5 3.5t-33 6.5t-36 7t-27.5 6h-12h-10q-4 -4 -11.5 -23.5t-11.5 -23.5q-2 -2 -4 -2h-6h-8q-2 0 -4 2t-12.5 9t-21.5 14.5t-21.5 14.5t-12.5 9h-6h-4q-2 0 -2 2q-2 0 -3 -1t-3 -1h-5q-4 -4 -14 -21.5t-10 -25.5l-45 47h-227 q-4 -23 -22.5 -25t-35.5 -2q-33 0 -56.5 14.5t-58.5 14.5q-20 0 -32.5 -8t-23.5 -18.5t-24.5 -18.5t-33.5 -8q-27 0 -44.5 16.5t-32.5 35.5t-32.5 35.5t-44.5 16.5zM424 111q-16 0 -16 -22.5t16 -22.5t16 22.5t-16 22.5zM422 418q0 -63 14.5 -99t36 -56.5t46 -32t45 -27 t32.5 -41t10 -74.5q2 0 5 -1t5 -1q14 0 54.5 29.5t81.5 69.5t72.5 81t31.5 62q0 23 -12.5 39t-12.5 41v14q0 4 3 8q2 4 12 22.5t10 22.5t-9 13.5t-13 9.5v297q0 8 -17.5 25.5t-28.5 19.5q-4 0 -27.5 -11.5t-55 -28t-68.5 -37t-68.5 -38.5t-53 -30.5t-23.5 -14.5 q-16 -18 -28.5 -52t-22 -73t-14.5 -75.5t-5 -61.5zM651 180q-2 -10 -11 -10t-11 10t11 10t11 -10zM1128 360q6 -10 -3 -18t-19 -4q-6 2 -4 8t7 11t11 7t8 -4zM1198 498q16 0 16 -22.5t-16 -22.5q-18 0 -18 22.5t18 22.5zM616 569q2 0 6.5 -2t6.5 -2l-45 -22q2 4 10 12t12 10 q2 0 4 2q2 0 3 1t3 1zM287 657q-16 0 -16.5 -22.5t16.5 -22.5q16 0 16 22.5t-16 22.5zM1198 680v-45l-24 45h24zM764 770q-14 -27 -45 -27v27h45zM606 795q-8 0 -12 -7.5t-4 -16.5t4 -16t12 -7t12.5 7t4.5 16t-4.5 16.5t-12.5 7.5zM287 952h22v23h-22v-23zM674 1090 q16 0 16 -23t-16 -23t-16 23t16 23zM606 1112q10 -4 10 -11t-10 -11t-10 11t10 11zM285 1186q0 -2 2 -6t10 -12.5t12 -10.5q0 2 1 6t1 6q-2 0 -2 2v5v4q-2 4 -10 12l-12 12q0 -4 -1 -7t-1 -5v-6zM584 1227q10 -4 10 -11.5t-10 -11.5t-10 10.5t10 12.5zM584 1294 q-6 -10 -23.5 -10t-23.5 10q-2 6 6 8.5t17 2.5t17.5 -2.5t6.5 -8.5z" />
<glyph unicode="i" horiz-adv-x="1189" d="M219 8q-2 0 -3 -1t-3 -1h-4q-2 -4 -11.5 -12t-11.5 -12q-4 -2 -6 -2h-8h-6q-2 0 -4 2l-90 137q-2 4 4 13t17 20.5t23.5 20.5t22.5 13q25 12 70 17.5t93 7.5t91 2t66 -2q2 4 12 13t20.5 20.5t20.5 20.5t14 14q2 2 7.5 -2.5t9.5 -4.5q0 25 -3 39.5t-6.5 26.5t-6.5 26.5 t-3 38.5q0 20 4 33t9.5 21t9.5 16t4 21q0 2 -1 4t-1 4v4q-4 6 -20.5 23.5t-24.5 21.5l45 22v138q-2 0 -11.5 3t-18.5 9t-16 13t-7 16q27 0 38 8t12 22.5t-2 34t-3 39.5q-8 0 -20.5 -4t-25 -5t-22.5 3t-14 20l-68 -45l-24 23q-18 18 -49 22t-67 3t-72 0t-63.5 12.5t-41 39 t-2.5 81.5q6 31 29.5 42t53 17t57.5 16.5t42 38.5q16 -31 29.5 -39t35.5 -8q4 0 13.5 1t11.5 1q4 2 23.5 12.5t23.5 10.5q2 0 12.5 -4t21.5 -8.5t21.5 -7.5t12.5 -3q8 2 17 18.5t5 26.5q14 -33 45 -39t64 -7t60.5 -6t35.5 -38q2 -6 0 -34.5t0 -34.5q0 -2 7 -12.5t15.5 -22 t15.5 -21.5t7 -12q2 -8 -6 -24.5t-16 -20.5v-297l67 -113q-6 -4 -23.5 -21.5t-21.5 -25.5q-2 -2 -2 -4v-6v-6q0 -2 2 -6q4 -4 22.5 -11.5t22.5 -11.5t7 -11t3 -11h-77q-2 -16 12 -37t35.5 -37.5t46 -27.5t43.5 -11q4 0 22.5 11t22.5 11t22.5 -11t22.5 -11q8 -2 27.5 -3 t41 -1t41 1t27.5 3q0 -20 8.5 -31.5t22.5 -17.5t29.5 -8t27.5 -2q0 -16 -16.5 -44t-37 -56.5t-39.5 -49t-28 -20.5h-12q-6 4 -34.5 12t-35.5 12h-10h-12q-4 -4 -22.5 -15t-22.5 -9q-2 2 -8 9t-14.5 15t-14.5 15.5t-8 7.5q-4 0 -14.5 -7.5t-20.5 -15.5t-20.5 -15t-14.5 -9 q-2 0 -12 3t-21.5 8t-21.5 9t-12 4q-4 0 -22.5 -10t-22.5 -14h-13h-10q-4 2 -13.5 6t-21.5 8t-22.5 7t-12.5 3q-4 0 -22.5 -12t-22.5 -12t-22.5 10t-22.5 14h-12q-18 0 -25.5 -13t-29.5 -13q-14 0 -26.5 3t-20.5 23q-4 -8 -20.5 -25.5t-24.5 -21.5h-11h-12q-16 6 -40 27.5 t-40 21.5zM1096 29q8 0 12 -7.5t4 -16.5t-4 -16t-12 -7t-12.5 7t-4.5 16t4.5 16.5t12.5 7.5zM504 825q8 0 12 -7t4 -16t-4 -16.5t-12 -7.5t-12.5 7.5t-4.5 16.5t4.5 16t12.5 7zM434 1280q0 27 19.5 55.5t47 52t59.5 39t58 15.5q16 0 40 -21.5t45.5 -49.5t37 -54.5 t15.5 -34.5q0 -18 -14.5 -45t-36 -53.5t-45 -45t-42.5 -18.5q-78 0 -131 42t-53 118zM754 1210q16 0 16 -22.5t-16 -22.5t-16 22.5t16 22.5z" />
<glyph unicode="j" horiz-adv-x="946" d="M254 -352q-57 0 -101 28.5t-74 73.5t-45.5 100.5t-15.5 108.5q0 78 43 110.5t121 32.5q49 0 76 -17t40 -43t18.5 -56.5t15.5 -56t30.5 -43t61.5 -17.5q23 0 38 4t27.5 14.5t25.5 27.5t30 46l-25 25q45 23 58.5 42t13.5 56q0 31 -15.5 42t-15.5 36q35 0 51 28 q-10 4 -26.5 31t-18.5 37q0 4 11.5 22.5t11.5 22.5v29.5v50.5v50.5v29.5q0 8 4 37.5t8 64.5t7 64.5t3 38.5q0 2 -3 12t-8 21.5t-8 21.5t-3 12q0 6 3 18.5t6 28t7 27.5l6 18q-6 0 -18 3.5t-27.5 7.5t-28 7t-18.5 5q-4 2 -22.5 12t-22.5 10q-8 0 -15 -11t-14 -23l-16 -33 q-14 29 -38.5 38t-51.5 13t-52.5 10t-39.5 29q-2 4 0 22.5t0 22.5t-11.5 14.5t-21.5 21.5t-22.5 20.5t-12.5 13.5q-2 2 -2 4v6v6q0 2 2 6q4 4 22.5 12.5t22.5 10.5l68 67h4q2 0 4 1t4 1q33 0 58.5 -13t66.5 -13q10 0 36 1t32 1q0 6 9 23.5t13 21.5q6 4 17.5 -4t15.5 -8 q0 12 6 26.5t7 27.5t-8 21.5t-38 5.5q4 2 12.5 10.5l12.5 12.5v10v13q-4 4 -12.5 22t-12.5 23q-2 2 -2 4v10v4q0 2 2 4l115 115q2 2 13 3t20 1q27 0 52 -13.5t49 -32t47.5 -39t45.5 -34.5q-23 -70 -41 -93.5t-36.5 -32.5t-39 -21.5t-43.5 -57.5q-2 -2 -2 -4v-6v-8q0 -2 2 -4 q4 -4 15.5 -14.5t25 -21.5t24.5 -20.5t15 -11.5v90q6 -2 18.5 -10t16.5 -12v-8q0 -37 -9 -69t-9 -67q2 0 8 4.5t10 2.5q6 -4 23.5 -20.5t21.5 -24.5v-5v-4q0 -2 2 -2q0 -2 -1 -4t-1 -4v-4q-2 -4 -10 -12.5t-12 -10.5q6 -49 3 -85.5t-9.5 -69.5t-12.5 -67t-6 -79v-26.5 t1 -33.5t1 -31.5v-16.5q0 -10 4 -50t8.5 -86t7.5 -86t3 -51q0 -4 -3 -17t-8.5 -28.5t-8.5 -29t-3 -17.5t3 -17t7 -28.5t8.5 -29t4.5 -15.5v-26q0 -20 -8.5 -35t-18.5 -27t-22.5 -24.5t-18.5 -24.5q-2 -4 -5 -31.5t-7 -59.5t-12.5 -59.5t-22.5 -31.5q-2 4 -10 12t-13 10h-4 h-4q-2 0 -2 2q-8 0 -19 -13t-20.5 -31.5t-16.5 -37t-7 -26.5q-16 0 -24.5 -4t-15.5 -10.5t-14.5 -10.5t-19.5 -4q-18 0 -49 6t-63.5 14.5t-61.5 15.5t-41 9q-4 -8 -21.5 -24.5t-25.5 -20.5q-2 -2 -4 -2q-2 -2 -4 -2h-2q-18 0 -25.5 8t-8.5 20.5t2 25t3 22.5zM862 -197 q8 0 12.5 -7t4.5 -16t-4.5 -16.5t-12.5 -7.5t-12 7.5t-4 16.5t4 16t12 7zM862 -174h-26q0 23 5 47.5t21 42.5v-90zM385 -61q10 -2 10 -11.5t-10 -11.5t-10 11.5t10 11.5zM180 76q-16 0 -16 -22.5t16 -22.5t16 22.5t-16 22.5zM817 1032q8 0 12.5 -7t4.5 -16.5t-4.5 -16.5 t-12.5 -7t-12 7t-4 16.5t4 16.5t12 7zM520 1100q-16 0 -16 -22.5t16 -22.5q18 0 18 22.5t-18 22.5zM567 1077h68q-6 18 -18.5 21.5t-26.5 3.5q-4 0 -12.5 -1t-10.5 -1v-23z" />
<glyph unicode="k" horiz-adv-x="1388" d="M918 -2q-4 0 -22.5 -10.5t-23.5 -12.5q-2 0 -10 -1t-12 -1q-16 0 -27.5 7.5t-23 16.5t-23.5 17.5t-28 8.5h-13q-4 -4 -22.5 -12.5t-22.5 -12.5v182q0 20 18.5 22.5t40 2.5t40 3t18.5 28q0 23 -6 35t-12.5 23t-9.5 26.5t3 41.5q-2 -4 -11 -12t-20.5 -15t-21.5 -12.5 t-16 -5.5q-4 0 -13.5 6.5t-20.5 14.5t-21.5 15t-12.5 9h-6h-4q-2 0 -2 3q-2 0 -3 -1.5t-3 -1.5h-4q-4 -4 -13.5 -22t-9.5 -23q0 4 -9 13.5t-13 9.5q-8 0 -28 -1t-41.5 -2t-40.5 -3t-28 -2v-99q41 0 57.5 -1t24.5 -10t17.5 -29.5t38.5 -57.5q0 2 3 10.5t8 18.5t12 18t17 8 q0 -29 4.5 -53t22.5 -47q-55 -47 -123.5 -82t-140.5 -35q-12 0 -16.5 8.5t-7.5 17.5t-9 17.5t-20 8.5q-25 0 -50.5 -8.5t-52 -17.5t-52.5 -17.5t-52 -8.5q-4 0 -12.5 1t-10.5 1q-16 45 -20 78t-4 76q0 49 16 66.5t41 23.5t53.5 14.5t51.5 38.5q2 4 1 22.5t-1 22.5 q2 4 10 22.5t12 22.5l-45 23v227l45 25q-14 18 -18 48t-27 42q2 16 5 58t7 89.5t7.5 89.5t3.5 58v14v11q-2 8 -8.5 31.5t-14.5 48t-14 47t-9 30.5q-16 4 -47.5 14.5t-44.5 32.5q0 8 -1 39t-1 39q0 51 2 88t23 84l47 -45q8 0 30.5 1t48 1t47 -1t32.5 -1q14 -2 25 -10 t20.5 -17.5t19.5 -16.5t23 -7q0 -31 11 -48.5t25.5 -31.5t25.5 -30.5t11 -43.5q0 -49 -11 -101t-23.5 -105.5t-23.5 -104.5t-11 -98q0 -4 11 -12.5t11 -12.5q0 -2 -3 -12t-7 -21.5t-8 -21.5t-4 -12v-11v-12l22 -22v-7v-4q0 -2 2 -2q0 -2 -1 -3t-1 -3v-4q-2 -4 -10 -12 t-12 -11q0 -6 9 -14t13 -8q41 0 61.5 11t33 27.5t24.5 36t41 38.5q2 -4 10 -12.5t13 -10.5q2 -2 4 -2h6q2 0 6 1t6 1q2 6 5 22.5t7.5 35t7.5 35t3 22.5v12v10l-23 23v10q0 14 6 35.5t18.5 42t29 34t36.5 13.5q14 0 37 -15.5t33 -29.5q8 23 32.5 33t55.5 14t59.5 3t46.5 -1 h79t86 -9t69 -29.5t29 -59.5q0 -59 -25 -79t-60.5 -25t-74.5 -7t-70 -22q-8 -6 -19.5 -24.5t-22.5 -40t-19 -42t-8 -29.5q-2 0 -5.5 -1t-5.5 -1h-6q-2 0 -6 2q-4 4 -11 22.5t-11 23.5h-5h-4q-2 0 -2 2q-2 0 -17.5 -10.5t-32.5 -22.5t-33.5 -23.5t-18.5 -13.5q-2 -4 -2 -6v-6 q0 -25 16.5 -38.5t38 -19.5t45 -5t37.5 5q-4 -2 -12 -10t-10 -12q-2 -2 -3 -4v-6v-9q0 -2 3 -4q0 -2 9 -10t13 -12q8 -6 27.5 -22.5t41 -35t41 -35t27.5 -22.5q0 -2 1 -5t1 -5t-1 -3t-1 -3v-7l-22 -22q-2 -4 1 -14.5t3 -12.5q23 0 32 -13t17 -29.5t19.5 -30t39.5 -13.5 q4 0 23.5 10.5t23.5 12.5h5q2 0 3 1t3 1t4 -1t4 -1h4q12 -10 23.5 -24.5t23.5 -27t26.5 -21.5t32.5 -9q0 -35 14.5 -58.5t14.5 -54.5q0 -39 -28.5 -59.5t-68.5 -30.5t-83 -12t-70 -2t-53.5 7t-52 16.5t-49.5 16.5t-49 7zM623 -2q-2 -10 -11.5 -10t-11.5 10t11.5 10t11.5 -10 zM668 272q16 0 16 -22.5t-16 -22.5t-16 22.5t16 22.5zM713 272q16 0 16 -22.5t-16 -22.5t-16 22.5t16 22.5zM735 317q16 0 16.5 -22.5t-16.5 -22.5q-16 0 -16 22.5t16 22.5zM545 526q0 -35 5 -56t19.5 -33.5t38 -18.5t60.5 -10q0 8 1 29.5t1 27.5t1 18.5t0 24.5t-7.5 23.5 t-18.5 13.5q0 -4 -9 -22.5t-13 -22.5q-2 -2 -5 -2h-8h-6q-2 0 -4 2l-22 22q-4 2 -16.5 3t-16.5 1zM805 705q-4 6 -9 4t-10.5 -7.5t-7.5 -11.5t4 -8q10 -6 18.5 3.5t4.5 19.5zM281 750q-16 0 -16.5 -22.5t16.5 -22.5q16 0 16 22.5t-16 22.5zM1077 772q16 0 16.5 -22.5 t-16.5 -22.5q-16 0 -16 22.5t16 22.5zM1214 795q16 0 16.5 -22.5t-16.5 -22.5q-16 0 -16 22.5t16 22.5zM1305 864v-22h-23v22h23zM508 887q10 -4 10 -11.5t-10 -11.5t-10 10.5t10 12.5zM895 932q-16 0 -16 -22.5t16 -22.5t16 22.5t-16 22.5zM530 999q16 0 16.5 -22.5 t-16.5 -22.5q-16 0 -16 22.5t16 22.5zM827 1092q16 0 16.5 -22.5t-16.5 -22.5q-16 0 -16 22.5t16 22.5zM485 1137q16 0 16.5 -22.5t-16.5 -22.5q-16 0 -16 22.5t16 22.5z" />
<glyph unicode="l" horiz-adv-x="1179" d="M139 -10q16 0 16.5 -22.5t-16.5 -22.5q-16 0 -16 22.5t16 22.5zM70 150v26.5t3 30.5t10 24.5t21 10.5q35 0 64 -14.5t63 -14.5v-63q16 12 27.5 30.5t17.5 38.5h160q18 0 27.5 18.5t13.5 42t5 46t1 28.5q0 14 -1 40t-1 30t-11 22.5t-11 22.5t9 13.5t13 9.5q-4 45 -1 84.5 t9.5 77.5t11.5 77t5 82v16.5t-1 20.5t-1 20v9q0 4 -11.5 22.5t-11.5 22.5q0 2 7.5 12t15.5 21.5t15 20.5t7 13q0 6 -3 25.5t-7 43t-8 43t-4 25.5v13v10q2 4 12 22.5t10 22.5q0 6 -9 14.5t-13 8.5t-22.5 -10.5t-22.5 -12.5t-6 -2h-7h-6q-2 0 -4 2q-4 4 -22.5 23.5t-22.5 23.5 q-2 0 -9 -3t-14.5 -8t-14.5 -9t-9 -4t-12 3t-21.5 7t-21.5 8t-13 6h-12h-10q-4 -4 -22.5 -15t-22.5 -9t-19.5 21.5t-32 42t-29.5 44t-13 29.5q0 6 10 25.5t24.5 39t26.5 34.5t19 15h14q2 0 12 -4t21.5 -8t21.5 -7t12 -3q6 0 30 3t50.5 7t50 8t29.5 4h25q33 0 90 -7 t112.5 -25.5t96.5 -52t41 -87.5v-10q-4 -4 -12.5 -22.5t-12.5 -22.5v-24q-2 -29 -8 -104t-13 -158t-14.5 -157.5t-9.5 -103.5q18 -20 21.5 -37.5t3.5 -42.5t-7.5 -50t-16.5 -49.5t-16 -48.5t-7 -44q0 -49 20.5 -101.5t20.5 -103.5h346q20 0 30.5 -18.5t14.5 -42t4 -46v-30.5 q0 -10 -2 -36t-2 -32q-10 -10 -33 -18t-49.5 -14.5t-50 -10.5t-37.5 -4h-13q-4 2 -22 12.5t-23 10.5q-2 0 -12 -3t-21.5 -8.5t-21.5 -8.5t-12 -3q-10 0 -36 9.5t-34 13.5h-477q-4 -4 -21.5 -13.5t-23.5 -9.5q-86 0 -135 52.5t-49 130.5zM481 195q-16 0 -16 -22.5t16 -22.5 t16 22.5t-16 22.5zM686 469q-16 0 -16 -22.5t16 -22.5t16 22.5t-16 22.5z" />
<glyph unicode="m" horiz-adv-x="1329" d="M489 23q-23 -4 -60.5 -11.5t-78.5 -15.5t-81 -13.5t-64 -5.5h-10q-6 4 -25.5 19.5t-39 34t-36 33t-16.5 16.5v6q0 2 2 6q6 10 19.5 30.5t27.5 42t26.5 40t16.5 22.5t23.5 12.5t23.5 12.5q4 2 12.5 10t10.5 12q-23 8 -36.5 37t-21.5 65t-10 70.5t-2 55.5q0 39 11.5 75.5 t23.5 74.5t23.5 76t11.5 81q0 4 -26 30.5t-55.5 59.5t-55 60.5t-25.5 31.5q0 2 1 5t1 5q6 4 18.5 11.5t26.5 14.5t27.5 12t17.5 8h20q80 0 126 -17.5t59 -95.5q23 12 33 43t14 47l45 -45q16 12 27.5 30.5t17.5 37.5h195v-82q12 -4 22 -7q10 -2 18.5 -4t14.5 2q8 2 28.5 11.5 t42 20.5t41 21.5t25.5 14.5q-4 16 -1 38.5t24 31.5q14 -23 32.5 -36.5t39 -21.5t43 -15t44.5 -20q43 -23 68 -71.5t35 -108t12 -117t2 -94.5q0 -8 -1 -22.5t-1 -28.5t-1 -25l-1 -10q0 -4 -11.5 -22.5t-11.5 -22.5t11.5 -23.5t11.5 -23.5q2 -8 1 -37.5t-1 -64.5t-1 -64.5 t1 -38.5q2 -6 12.5 -25.5t22.5 -43t22.5 -43t12.5 -23.5q0 -2 1 -10t1 -12q0 -41 -32 -78t-73 -37h-12l-45 45h-4q-2 0 -4 1t-4 1t-3.5 -1t-3.5 -1h-4q-4 -4 -13 -20.5t-9 -24.5q-8 8 -34 24.5t-36 20.5h-4h-4q-2 0 -2 2q-14 0 -36.5 -8t-48.5 -18.5t-48.5 -17.5t-36.5 -3 q-6 2 -23.5 22.5t-23.5 22.5h-8q-4 0 -7.5 1t-7.5 1q-23 0 -30 -13.5t-27 -13.5h-6q-2 0 -4 2q-8 4 -24.5 21.5t-20.5 24.5q-16 -20 -46 -39t-46 -29q-6 18 -18 38t-28 30zM375 205q12 -2 32.5 -16.5t41 -32t35 -30.5t18.5 -13q12 0 22.5 20.5t17.5 46t11 48t4 24.5l23 -47 q4 2 12 10l12 12q0 2 3 19.5t6 39t7.5 44t6.5 35.5v14q0 14 -7.5 31.5t-16.5 38t-16 40t-7 35.5q0 2 10 11.5t14 11.5v4q0 2 1 4t1 4q-2 0 -2 2v4v4q-4 2 -12 11.5t-12 11.5q-2 4 -2 6v6v6q0 2 2 4q4 8 21 25.5t26 22.5h-70l-45 112q0 2 9 10.5t14 12.5q2 2 12 8t22.5 13 t21.5 14.5t13 9.5v6q0 2 1 3t1 3t-1 5t-1 7q-6 2 -22.5 1t-35 -5t-34.5 -9t-23 -11l-3 -12q-3 -11 -7 -25t-7 -29.5t-5 -23.5q0 -4 1 -22.5t-1 -22.5q-25 -49 -42 -87t-29.5 -77t-17.5 -83t-5 -106v-30.5t1 -44t1 -45v-29.5zM80 182q16 0 16 -22.5t-16 -22.5t-16 22.5 t16 22.5zM512 182q10 -2 10 -11t-10 -11t-10 11t10 11zM877 182q0 8 9 24.5t13 20.5q2 0 4 2q2 0 2 1t2 1t5 -1t6 -1q2 -2 4 -2q4 -2 22.5 -10t22.5 -12q-6 25 0 49.5t22 42.5q0 16 -1 58t-1 89.5t1 89t1 58.5q0 2 3 12t7.5 22.5t8.5 21.5t6 14v32q0 41 -5 71t-20 77 q-2 0 -5 2t-5 2q-25 0 -51.5 -40t-53 -89t-54 -93t-58.5 -55v-272zM444 342q16 0 16.5 -22.5t-16.5 -22.5q-16 0 -16 22.5t16 22.5zM809 342q16 0 16 -22.5t-16 -22.5q-18 0 -18 22.5t18 22.5zM809 410q16 0 16 -22.5t-16 -22.5q-18 0 -18 22.5t18 22.5zM557 432l-22 -22v22 h22zM922 410q-4 -10 -11.5 -10.5t-11.5 10.5q-4 10 11.5 10t11.5 -10zM535 569q16 0 16 -22.5t-16 -22.5t-16 22.5t16 22.5zM195 729l-25 -22v22h25zM967 707q-4 -10 -22.5 -10.5t-22.5 10.5q-2 4 6 6t17 2t16.5 -2t5.5 -6zM195 819q10 -4 10 -11t-10 -11q-6 -2 -8.5 2 t-2.5 9t2.5 9t8.5 2zM899 819l23 23h-23v-23z" />
<glyph unicode="n" horiz-adv-x="1294" d="M334 -6q-4 -2 -22.5 -13.5t-22.5 -9.5q-2 0 -8.5 7.5t-14.5 15.5t-14 15t-8 7q-4 0 -13.5 -3t-21.5 -7t-22.5 -8t-12.5 -4h-10h-12q-4 2 -22.5 10t-23.5 12q-4 8 -8 31t-7 48.5t-5 48t-2 32.5t7 29.5t19.5 38t29 33t34.5 14.5q6 0 14.5 -11.5t16.5 -23.5q8 -16 16 -35 q2 14 4 67.5t8.5 112t18.5 107.5t37 55l-45 23v250q0 12 -28 28.5t-58.5 38t-55 50t-18.5 65.5q6 31 30.5 53.5t58.5 35.5t70 20.5t60 7.5l4 -2h4q23 -23 42.5 -39.5t38 -29.5t38 -29.5t41.5 -39.5q2 -2 4 -2h6h8q2 0 5 2q2 2 5 12.5t6 21.5t6 21.5t5 12.5q2 4 8 8t11 4 q0 -18 7 -38.5t31 -20.5h7q2 0 4 2q37 35 86 63.5t108 28.5q55 0 82 -10t42.5 -28.5t27.5 -44.5t41 -54q16 -16 39.5 -17.5t45 -10.5t37 -38.5t15.5 -99.5q0 -98 -12.5 -193.5t-12.5 -193.5q0 -25 9.5 -68t28 -83t46 -69.5t64.5 -29.5q0 -20 -2 -50t-12.5 -57.5t-31 -48 t-55.5 -20.5h-342q-4 -10 -16 -18.5t-24 -8.5q0 14 -6.5 39t-16.5 50.5t-22.5 47t-26.5 27.5q10 -41 0 -62.5t-31.5 -32.5t-50.5 -19.5t-55 -22.5l22 -23q-2 -4 -10 -12t-12 -10q-2 -2 -4 -2h-7h-6q-2 0 -6 2q-2 2 -11 12t-11 10t-19.5 3t-39 7.5t-44 7.5t-35.5 5h-10h-12z M608 131q-18 0 -18 -22.5t18 -22.5q16 0 16 22.5t-16 22.5zM641 270q18 0 24.5 -11t10.5 -25.5t10 -25.5t25 -11q12 0 36.5 13t49 32.5t44 41t19.5 38.5q0 8 -1 21t-1 15t-4 12.5t-8 21.5t-7 21.5t-3 12.5q0 8 8 24.5t14 20.5v274q-12 18 -17 40t-12.5 39.5t-20.5 28.5 t-42 11t-42 -13t-21.5 -29.5t-18.5 -32t-31 -21.5h-14t-21.5 1t-21.5 1t-12 -2t-6.5 -11t-7.5 -21.5t-6 -23t-3 -12.5q-6 -12 -21.5 -44.5t-34 -69.5t-34.5 -70t-22 -45l14 -7t20.5 -12.5t19.5 -14.5t13 -11q2 -4 -3 -14.5t-5 -12.5q-39 0 -39 -41q0 -20 4 -34.5t21 -32.5 q16 10 27 29.5t18 37.5q8 -10 12 -32.5t9 -46t12.5 -42t23.5 -18.5h6q2 0 6 2q4 4 11.5 22.5t11.5 22.5q2 0 4 2q2 0 3 1t3 1zM788 426q10 -4 10.5 -11t-10.5 -12q-10 -4 -10 11.5t10 11.5zM676 676q-2 -10 -11.5 -10t-11.5 10t11.5 10t11.5 -10zM766 723q10 -4 10 -11 t-10 -12q-10 -4 -10 10.5t10 12.5zM788 813q18 0 18.5 -22.5t-18.5 -22.5q-16 0 -16 22.5t16 22.5zM1223 813q16 0 16 -22.5t-16 -22.5q-18 0 -18 22.5t18 22.5z" />
<glyph unicode="o" horiz-adv-x="1134" d="M53 586q8 55 30.5 103t49.5 94t54.5 92.5t48.5 97.5q37 -12 52 4t24.5 40.5t20.5 47t40 22.5q25 0 39 -9t28 -38q8 14 31 29.5t37 15.5q2 0 11 -10t11 -12h13q23 0 39 12t41 12q57 0 118.5 -28.5t116.5 -72.5t100.5 -96t73.5 -99q18 -35 27.5 -79t14.5 -92.5t5 -93.5v-82 q0 -23 -4 -58.5t-13 -72.5t-21.5 -68.5t-30.5 -45.5q-14 -10 -47 -35t-75 -55.5t-88 -63.5t-87 -60.5t-72 -45t-41 -17.5t-14 2q-4 0 -8 2q-90 43 -168 75t-141.5 74t-107.5 107.5t-63 175.5l-22 68q-4 14 -8.5 41t-7.5 51.5t-5 44t-2 23.5zM213 553q0 -12 14.5 -44t37 -72 t50 -82t54 -77.5t48 -58t34.5 -22.5h8q2 0 4 2l22 22h7q2 0 3 1t3 1q18 0 25 -13t30 -13q39 0 94 20.5t106.5 56t86 81.5t34.5 96q0 16 -6 23t-13 11t-13 12.5t-6 26.5q47 0 65.5 24.5t18.5 82.5h-80q0 33 -8.5 72.5t-27 75.5t-47 63.5t-67.5 38.5q-4 2 -22.5 -9.5 t-22.5 -13.5t-6 -2h-8q-12 0 -16.5 7t-7.5 16.5t-8 17.5t-19 8q-6 0 -14.5 -1t-12.5 -1q-2 0 -11.5 -7t-20.5 -15.5t-21.5 -15.5t-14.5 -7q-10 0 -27.5 17.5t-17.5 27.5q-4 -4 -13 -14t-20.5 -20.5t-20.5 -20.5t-13 -12t-24.5 -10.5t-22.5 -12.5t-8.5 -24.5t-14.5 -44 t-14 -44t-8 -24.5t-21.5 -11.5t-23.5 -11.5q-2 -2 -3 -4v-6v-8q0 -2 3 -4l22 -23v-6v-4q0 -2 2 -2q0 -2 -1 -3t-1 -3v-4q-4 -4 -22.5 -11.5t-22.5 -11.5v-10zM600 336q8 0 12 -7t4 -16.5t-4 -16.5t-12 -7t-12 7t-4 16.5t4 16.5t12 7zM258 516q10 -4 10 -11t-10 -11 q-6 -2 -8 2t-2 9t2 9t8 2zM348 608q18 0 18.5 -22.5t-18.5 -22.5q-16 0 -16 22.5t16 22.5z" />
<glyph unicode="p" horiz-adv-x="1191" d="M311 -367q-8 0 -26.5 -1t-20.5 -1q-4 0 -22.5 -11t-22.5 -11q-23 0 -42 8t-37.5 17.5t-38 17.5t-42.5 8v127q25 0 70 4t91 15.5t80 32t34 55.5q0 18 -13.5 26t-13.5 31q0 14 7.5 26.5t16.5 23.5t16 21.5t7 18.5q0 4 -10 22.5t-12 22.5v12v13q2 6 9 21t16.5 32.5t20.5 34 t23 24.5l-92 92q8 4 24.5 20.5t20.5 24.5q0 2 2 5q0 2 1 3t1 3q-2 0 -2 2v4q-2 2 -2 6q-2 4 -10 12t-12 11l22 22q-4 2 -12 10t-10 13q-2 4 -2 6v6q0 23 13 32t29.5 18t30 25.5t13.5 51.5q4 0 5 -1t3 -1q8 -2 34.5 -10.5t33.5 -12.5l-46 -22q29 -45 45.5 -91t45.5 -92 q8 -12 20 -20t25.5 -14.5t26 -14.5t20.5 -20q-4 -2 -12.5 -10.5t-10.5 -12.5q-2 -2 -2 -4v-6q0 -10 23.5 -26.5t52.5 -33t54.5 -29.5t29.5 -13q33 -6 63.5 8t56 35.5t47 47t38.5 44.5q20 25 31.5 60.5t14.5 73.5t3 76v68q0 27 -6 44.5t-15.5 36t-17.5 41t-10 57.5 q-16 -18 -31.5 -5t-29 36.5t-27 48t-25.5 32.5q-2 -4 -10 -12t-12 -10t-7 -2h-6q-14 0 -24.5 12t-16.5 27.5t-10 31t-6 23.5q-12 -10 -19.5 -22.5t-13.5 -26t-13 -25.5t-22 -18q-37 -18 -65.5 -35t-53 -37.5t-46 -47t-39.5 -63.5q-8 -18 -18.5 -21t-27.5 -3q-35 0 -61.5 14 t-62.5 14q0 14 9 15.5t21.5 5.5t25.5 22.5t23 67.5q4 25 6.5 57.5t7.5 64.5t17 60.5t37 44.5q18 -6 21.5 -21t3.5 -31.5t5 -29t27 -12.5q16 0 25.5 11.5t13.5 26.5t4 30.5v25.5h37v-59q25 0 38 12.5t29.5 27.5t41 28.5t73.5 13.5q4 0 19.5 -9.5t26.5 -13.5q2 -2 11 -12 t11 -10q4 0 22.5 11t22.5 11q31 0 38 -9t8 -23.5t3 -29.5t19 -30q2 -2 16 -5t30.5 -6t30 -6t15.5 -5q23 -18 39 -60.5t27.5 -90.5t17.5 -94t6 -73q0 -6 -3 -29.5t-8 -50t-8.5 -50t-3.5 -29.5t1 -30t2.5 -51.5t0 -50t-3.5 -28.5q-4 -6 -23.5 -26.5t-43 -43t-44 -41 t-24.5 -24.5q-4 -4 -11 -17.5t-14 -28t-13.5 -27.5t-8.5 -20h-10h-12l-45 23h-13h-10q-4 -2 -22.5 -12.5t-22.5 -10.5q-2 0 -11 11.5t-12 11.5h-10q-4 0 -7 1t-7 1q-23 0 -39 -12.5t-39 -12.5q-68 0 -113 44t-59 116l-22 -22q0 -2 -1.5 -13.5t-2.5 -27t-1 -29.5v-23 q0 -49 4.5 -78.5t10.5 -53t15 -49t20 -68.5h159q4 0 12.5 -9.5t10.5 -13.5q2 -8 6 -27.5t8 -41t6 -41t2 -27.5q0 -4 -19.5 -11.5t-45 -16.5t-52 -19t-40.5 -21q-4 -2 -6 -2h-7q-18 0 -26 13.5t-31 13.5q-4 0 -12 -1t-10 -1q-4 -2 -22.5 -12.5t-23.5 -10.5q-4 0 -17 7.5 t-28.5 15.5t-29 15t-17.5 7q-2 0 -17.5 1t-25.5 1zM696 -209q-16 0 -16 -22.5t16 -22.5t16 22.5t-16 22.5zM584 -94q8 0 12 -7.5t4 -16.5t-4 -16t-12 -7q-10 0 -14.5 7t-4.5 16t4.5 16.5t14.5 7.5zM674 -94q8 0 12 -7.5t4 -16.5t-4 -16t-12 -7t-12.5 7t-4.5 16t4.5 16.5 t12.5 7.5zM354 770q-2 -10 -11 -10t-11 10t12 10t10 -10zM559 815q-16 0 -16 -22.5t16 -22.5q18 0 18 22.5t-18 22.5zM80 987q0 25 6 40t41 15q12 0 17.5 -9t7.5 -21.5t1 -23.5t-3 -13q4 6 15 17.5t24.5 22.5t26.5 19t26 8q55 0 83.5 -12t43 -36.5t16.5 -62.5t2 -89 q-31 0 -42 6t-14 17.5t-5 27.5t-17 37h-4q-2 0 -4 2q-25 0 -40 -27.5t-19 -44.5q-18 37 -46 47.5t-53.5 15.5t-44 15t-18.5 49z" />
<glyph unicode="q" horiz-adv-x="1144" d="M496 -362q2 6 22.5 23t24.5 22q2 4 -9.5 23.5t-15.5 23.5q0 4 -2 7t-2 7q45 0 87 20.5t75 54.5t52.5 76t19.5 85q0 10 -7.5 15t-16.5 7t-18.5 2h-13.5q-45 0 -86 -15.5t-63 -54.5q-8 2 -27.5 7.5t-41 12.5t-41 14t-27.5 12l-23 22h-6h-4q-2 0 -2 2q-2 0 -3 -1t-3 -1h-5 l-22 -22l-6 -3h-6h-7q-2 0 -6 3q-57 45 -107 92t-87 102t-58.5 121.5t-21.5 153.5q0 20 4 32.5t9 21.5t9.5 18t4.5 28q0 14 -4.5 22.5t-9.5 16.5t-9 16t-4 25q0 6 12 31.5t28.5 54t32 53.5t21.5 31q4 4 17.5 -7.5t17.5 -11.5q0 39 -10.5 50.5t-21.5 14.5t-21.5 7t-10.5 29 q51 0 74 19.5t35 43t24.5 43t43.5 19.5q0 -2 2 -2h4h4l22 -23q4 -2 6 -2h7h8q2 0 4 2t8 12.5t13.5 21.5t13.5 21.5t10 12.5h4q2 0 3 1t3 1q20 0 27.5 -13.5t30.5 -13.5t30.5 13.5t26.5 13.5q0 -2 2 -2h4h4q4 -4 23.5 -22.5t23.5 -22.5q2 -2 4 -3h6h7q2 0 6 3q4 4 13 22t9 23 q20 -12 30.5 -36t18 -47.5t15.5 -45t26 -31.5q10 53 34 66.5t49.5 18.5t48 16t28.5 59q27 -18 34 -41t8 -47.5t4 -49t22 -45.5q0 -25 -1 -86t-1 -129.5t1 -130t1 -86.5q0 -4 3 -17.5t7 -28.5t8 -28.5t6 -15.5v-12v-10q-2 -6 -5 -26t-7 -43.5t-7 -43t-5 -25.5v-12v-10 q2 -20 5 -72.5t6 -110t7 -109.5t6 -73q4 -23 26.5 -22.5t47.5 -3.5t44.5 -23.5t19.5 -77.5q0 -29 -11.5 -53.5t-58.5 -24.5h-502q-8 0 -16 18t-6 28zM428 -66q8 0 12 -7t4 -16t-4 -16.5t-12 -7.5t-12 7.5t-4 16.5t4 16t12 7zM246 559q0 -53 12 -121.5t41 -130t75 -104.5 t111 -43q14 0 46 12t65 30.5t57.5 38t24.5 33.5q0 4 -12.5 23.5t-10.5 24.5q2 4 11.5 14t20.5 21.5t21.5 20.5t14.5 11v227q4 2 12 10.5t13 12.5v6q0 2 1 3t1 3q-2 0 -2 2v4v5q-4 6 -14.5 17t-22 21.5t-20.5 19.5t-13 11h-12.5t-22.5 -1t-21.5 -1t-11.5 2q-16 12 -25.5 33.5 t-21.5 42t-32.5 33t-57.5 4.5q-20 -4 -58 -26.5t-76 -53.5t-66.5 -61.5t-28.5 -51.5v-8q0 -2 2 -4t12 -5t21.5 -6t21.5 -6.5t12 -5.5q0 -2 2 -4q0 -2 2 -4q0 -4 -1 -6t-1 -4q-2 -2 -2 -4q-2 -4 -10 -12.5t-12 -10.5q-2 -2 -4 -2h-6h-7q-2 0 -6 2t-12 10.5t-10 12.5v-35z M428 229q16 0 16 -22.5t-16 -22.5t-16 22.5t16 22.5zM428 344q8 0 12 -7t4 -16.5t-4 -16.5t-12 -7t-12 7t-4 16.5t4 16.5t12 7zM313 434q18 0 18.5 -22.5t-18.5 -22.5q-16 0 -16 22.5t16 22.5zM633 707q16 0 16 -22.5t-16 -22.5t-16 22.5t16 22.5zM383 776q16 0 16 -22.5 t-16 -22.5t-16 22.5t16 22.5zM655 776q-16 0 -16 -22.5t16 -22.5t16 22.5t-16 22.5zM793 889h22v22h-22v-22z" />
<glyph unicode="r" horiz-adv-x="1249" d="M72 111v30.5t3 35t13 27.5t29 11q4 0 13 -1t11 -1q4 -2 23.5 -13.5t23.5 -9.5q25 6 49.5 21.5t43 37t31 48.5t12.5 53v500q0 16 -35 18t-76 13.5t-76 46.5t-35 114q4 0 16.5 1t27 3.5t26.5 4.5t16 4q2 0 11.5 7t20.5 15t21.5 15.5t14.5 7.5t22.5 -10.5t22.5 -12.5h12 q23 0 39.5 12.5t40.5 12.5q33 0 62.5 -11.5t60.5 -24.5t63.5 -24.5t67.5 -11.5q39 0 70 14.5t55.5 33t43 32.5t32.5 14t52 -19.5t80 -42t77 -39.5t41 -13l114 -115v-4q0 -2 1 -3t1 -3t-1 -3t-1 -3v-7q-4 -2 -14 -11t-10 -11q0 -4 12 -22.5t12 -22.5t-4 -13.5t-8 -21.5 t-8 -22.5t-4 -12.5t10 -11t14 -11v-4v-4q0 -2 2 -3q0 -29 -24.5 -49t-58 -32.5t-68.5 -17.5t-55 -5q-10 0 -36 1t-34 1q-18 53 -22.5 82t-12.5 49.5t-28.5 40t-71.5 55.5q-12 -29 -22.5 -38t-21.5 -8t-24.5 6.5t-34.5 5.5v-115q-14 0 -43.5 -4t-35.5 -29q0 -8 1 -30.5t1 -49 t-1 -49t-1 -31.5q0 -4 -10.5 -22.5t-12.5 -22.5v-20v-25q0 -8 3 -27.5t6 -41t7 -41t7 -27.5q86 12 118.5 8t47 -19.5t26.5 -42t57 -59.5q-23 -10 -31 -35.5t-14 -51t-15 -47t-32 -25.5q-18 -4 -38.5 -2t-39 2t-34 -9.5t-23.5 -35.5q-2 8 -19.5 25.5t-25.5 19.5 q-4 0 -17.5 -3t-28.5 -7.5t-28.5 -8.5t-17.5 -4h-10q-8 0 -27.5 3t-41 9.5t-39 14.5t-19.5 18q-4 -4 -16.5 -11t-27 -14.5t-27.5 -13.5t-19 -6q-2 0 -19.5 8.5t-26.5 14.5l-22 22h-6q-4 0 -5 1t-3 1t-2 -1t-2 -1h-5q-6 -8 -15 -33.5t-9 -33.5q-49 41 -70.5 75t-21.5 95z M848 713q16 0 16 -22.5t-16 -22.5t-16 22.5t16 22.5z" />
<glyph unicode="s" horiz-adv-x="1181" d="M291 61q-20 0 -27.5 -12t-27.5 -12h-25q-6 0 -22.5 3t-35 7t-35 7t-22.5 5q4 16 1 36t-9 41.5t-11 42t-5 38.5q0 25 -1 58.5t4 66.5t18 55.5t44 22.5q0 10 3 16t3 11.5t-5 10.5t-19 11q29 4 47 22.5t22 45.5q-6 12 -17 43.5t-22.5 68.5t-19.5 70t-10 45q0 8 2 24.5t5 35 t7 33.5t8 22q0 2 11.5 8t27 13t29.5 13.5t24 10.5q2 0 11.5 -1t11.5 1t9 12t14.5 22.5t13.5 21.5t8 13q16 20 34.5 21.5t37 1.5t36 7t29.5 38h228q6 -18 17 -21.5t28 -3.5q4 0 12 1t10 1q4 2 22.5 13.5t22.5 9.5t14.5 -12.5t20.5 -22.5t20.5 -22.5t14.5 -10.5q49 -16 86 -19 t64.5 -3t47 -5t30.5 -25.5t16.5 -65t5.5 -121.5v-13q0 -6 -3 -22.5t-7.5 -34.5t-7.5 -33.5t-5 -21.5q-2 0 -10 -1t-12 -1q-35 0 -69 19.5t-64.5 47t-55 59t-39.5 58.5q-18 -10 -36.5 -4t-34 19.5t-27.5 28.5t-16 24q-8 -29 -18.5 -58.5t-26.5 -56.5l-45 92h-5h-4q-2 0 -2 2 q-2 0 -3 -1t-3 -1h-6q-4 -2 -23.5 -12t-23.5 -10t-22.5 10t-22.5 12h-10h-13l-45 -45q-6 -4 -18 -11t-27.5 -14.5t-28 -13.5t-18.5 -8q0 -2 -1 -5t-1 -5v-6q0 -2 2 -7q4 -6 17.5 -19t28 -27.5t27.5 -27t19 -16.5q14 -4 49 -11t75 -14.5t76 -13.5t50 -6q10 0 28.5 4t39 10.5 t39 14.5t30.5 16v-76q6 0 22.5 6.5t35 12.5t34 10t21.5 2q4 -2 10 -15t13.5 -29.5t13.5 -31t8 -16.5q10 -12 32.5 -28.5t46 -36t41 -40t17.5 -40.5q0 -92 -33.5 -166t-93 -126t-138.5 -80t-167 -28q-61 0 -118.5 14.5t-108.5 32t-95 31.5t-75 14zM369 332q0 -47 45 -74 t105.5 -41t121.5 -17t92 -3q2 0 11.5 8t11.5 14q4 6 12 33t10 35q23 -16 46.5 -21.5t49.5 -5.5q0 25 -5 49.5t-21 44.5q-4 -4 -21.5 -13t-23.5 -9t-15.5 9t-9.5 13q0 2 4 9.5t9.5 14.5t8.5 14t3 9q-4 4 -23.5 22.5t-23.5 22.5t-12.5 22.5t-10.5 23.5q-6 -18 -17 -37t-28 -31 q-2 4 -10 12t-12 10h-13h-10q-4 0 -13 -4t-21.5 -8t-23 -7t-12.5 -3q-4 0 -22.5 11t-22.5 11h-17t-27.5 -2t-28 -3t-17.5 -1v29l-92 -45q8 -4 25.5 -21.5t21.5 -23.5v-6v-4q0 -2 2 -2q0 -2 -1 -3.5t-1 -3.5v-6q-4 -2 -14 -11t-10 -11zM711 354q-14 -27 -45 -26v26h45z M506 401q8 0 12 -7t4 -16t-4 -16.5t-12 -7.5t-12.5 7.5t-4.5 16.5t4.5 16t12.5 7zM301 492q-16 0 -16 -23t16 -23t16 23t-16 23zM598 674q16 0 16 -22.5t-16 -22.5q-18 0 -18 22.5t18 22.5zM551 674q-2 -10 -11.5 -10t-11.5 10t11.5 10t11.5 -10z" />
<glyph unicode="t" horiz-adv-x="1017" d="M217 543q8 4 25.5 20.5t19.5 26.5t-4 27.5t-15.5 35t-17.5 35t-8 27.5v10q2 4 11.5 23.5t11.5 23.5v10v13q-31 18 -67 27t-66.5 21.5t-52 34t-21.5 64.5q0 45 35.5 76t80 55.5t80 46t35.5 49.5q0 14 -8 22.5t-17.5 15.5t-16.5 16.5t-7 23.5q0 31 12.5 59.5t33 52t47 38 t57.5 14.5q8 0 29.5 -7t42 -17.5t36.5 -22.5t16 -25v-227q0 -18 19.5 -30.5t44.5 -20.5t46.5 -12.5t27.5 -4.5q4 0 22.5 10.5t22.5 12.5h8q4 0 7 1t7 1q25 0 56.5 -10t63.5 -24.5t60.5 -31t47.5 -26.5q0 -4 1 -7t1 -5t-1 -3t-1 -4v-6q-45 -59 -98.5 -86.5t-129.5 -48.5 q-23 23 -57.5 24t-63.5 1h-37.5t-32 -6.5t-23.5 -20.5t-13 -43q0 -4 3 -21.5t7 -36t8 -35.5t4 -22q0 -2 1.5 -20.5t1.5 -26.5q0 -10 -1.5 -25.5t-1.5 -17.5q0 -4 -3 -13t-8 -21.5t-8 -22.5t-3 -12q0 -25 4 -58.5t11 -69.5t20.5 -69t32.5 -53l47 22q-10 -16 3 -31.5t29 -15.5 q2 0 28 29t56.5 62.5t57 62.5t30.5 31q2 2 15.5 5t29 7t28.5 7t18 3q10 2 35.5 10.5t31.5 12.5q14 -29 23.5 -51.5t15.5 -42t8 -41t2 -48.5q0 -29 -23.5 -63.5t-60.5 -70.5t-83 -69.5t-92 -59t-86 -42t-66 -16.5q-63 0 -113.5 28.5t-88.5 70.5t-65.5 92t-47 93t-32 73 t-18.5 32v205zM672 408q16 0 16 -23t-16 -23t-16 23t16 23zM922 498q16 0 16 -22.5t-16 -22.5t-16 22.5t16 22.5z" />
<glyph unicode="u" horiz-adv-x="1163" d="M150 817q0 16 -14.5 26.5t-32 20.5t-32 25.5t-14.5 44.5q0 20 21.5 48t51.5 52.5t61.5 41t50.5 14.5q43 -6 72.5 -40t50 -77t29.5 -89t9 -79q0 -8 -1 -39t-1 -41q-12 -4 -19 -16.5t-10 -27.5t-3 -28.5v-17.5h-37q37 -43 53 -88t21.5 -94.5t2.5 -100.5t-8 -104 q2 -4 10.5 -12.5t12.5 -10.5q10 -4 27.5 -8t36 -7t33 -5t16.5 -2q6 2 17 10t21.5 18.5t19.5 21.5t11 17l23 -22q20 12 38.5 36.5t32 51t24.5 52.5t17 42q-23 -12 -35 9.5t-12 37.5q0 8 15.5 17.5t33 30t33 55t15.5 94.5q0 33 -8.5 50t-41.5 46q29 4 38 8t9 10.5t-5 14.5 t-5 22q-51 0 -101 33t-71 94q-10 27 1 49.5t31.5 37t45.5 22.5t43 8q31 0 69 -4t74.5 -15.5t69.5 -30t53 -44.5q-4 -2 -12 -10.5t-12 -12.5v-10v-12q4 -4 12 -22.5t12 -22.5v-13v-10q-4 -2 -14 -11t-10 -11q0 -4 4 -13.5t8 -21.5t8 -22.5t4 -12.5t-3 -12t-7 -21.5t-8 -21.5 t-6 -13v-10q0 -16 6 -39.5t14 -48t15.5 -47t11.5 -37.5v-10q0 -29 -7.5 -58.5t-16.5 -60.5t-16 -61.5t-7 -61.5t22.5 -46t48 -28.5t48 -31t22.5 -51.5q0 -39 -12.5 -66t-59.5 -47h-18t-27.5 -1t-28 -1h-18.5q-33 0 -59.5 7t-51 16.5t-49 17.5t-55.5 8q-37 0 -52 -17.5 t-28 -52.5q-4 4 -22.5 12.5t-22.5 10.5h-12q-41 0 -78 -13.5t-82 -13.5q-8 0 -38.5 2t-41.5 2q-4 6 -20.5 23.5t-24.5 21.5l-17 8.5t-28.5 13.5t-29 14t-15.5 10q-16 16 -23.5 55t-11.5 81t-11 81t-23 55v479zM1038 293l-45 -23v23h45zM492 408q8 0 12 -7.5t4 -16.5 t-4 -16.5t-12 -7.5t-12.5 7.5t-4.5 16.5t4.5 16.5t12.5 7.5zM719 680q16 0 16 -22.5t-16 -22.5t-16 22.5t16 22.5zM514 748q16 0 16 -23t-16 -23t-16 23t16 23zM514 952h-45q12 29 45 29v-29z" />
<glyph unicode="v" horiz-adv-x="1200" d="M690 -80q16 0 16.5 -22.5t-16.5 -22.5q-16 0 -16 22.5t16 22.5zM657 -10q-29 -25 -53 -37t-53 -12q-12 0 -30.5 18t-38 43t-37 47.5t-27.5 30.5q4 2 12 10t10 12v7q0 2 1 3t1 3q-2 0 -2 2v4v4q-29 43 -50 106.5t-39.5 134t-38 145.5t-45 141.5t-60.5 119.5t-86 82 q-27 14 -44.5 9t-28.5 -6t-15 14.5t-4 72.5q0 63 20.5 91t55 35t80.5 6t96 5q4 0 22.5 11.5t22.5 11.5q6 0 16 -6t20.5 -13.5t19.5 -14.5t13 -11q4 23 23.5 23.5t36.5 0.5q18 0 25 -8t11.5 -17t9.5 -16.5t19 -7.5h6q2 0 4 2q4 2 12.5 11.5t12.5 11.5h4q2 0 3 1t3 1t4 -1 t4 -1h5q4 -6 13 -23.5t9 -21.5q0 -45 -18.5 -75t-40 -56.5t-40 -57t-18.5 -77.5q0 -37 11.5 -56.5t60.5 -42.5l-25 -22q23 -31 55.5 -51.5t73.5 -20.5q35 0 51.5 36t21.5 82t4 86t-1 50q-6 27 -21.5 45t-30.5 34.5t-27.5 36t-12.5 50.5q0 4 -1 16.5t0 26.5t6 25.5t20 15.5 q12 0 41.5 -1t62.5 -1t61.5 1t38.5 1q4 0 22.5 10t23.5 12h12q31 0 69.5 -7t71.5 -24.5t55.5 -45t22.5 -68.5q0 -31 -22.5 -55.5t-53.5 -53t-61.5 -65.5t-46.5 -90q-4 -12 -11.5 -33t-14.5 -42.5t-13 -39.5t-8 -22t-10.5 -12.5t-12.5 -10.5l23 -23q-6 -2 -20.5 -42.5 t-35 -101t-45 -131.5t-51.5 -133.5t-54.5 -107.5t-54.5 -53v70zM827 170q16 0 16.5 -22.5t-16.5 -22.5q-16 0 -16 22.5t16 22.5zM895 262q16 0 16 -22.5t-16 -22.5t-16 22.5t16 22.5zM575 504q0 -23 14.5 -47.5t33.5 -34.5l22 113q-10 0 -35.5 -9.5t-31.5 -13.5q-2 -2 -3 -4 v-4zM668 672q16 0 16 -22.5t-16 -22.5t-16 22.5t16 22.5zM578 762q16 0 16 -22.5t-16 -22.5t-16 22.5t16 22.5zM578 831l-23 -22v22h23zM668 854q16 0 16 -22.5t-16 -22.5t-16 22.5t16 22.5zM1145 1059q18 0 18 -22.5t-18 -22.5q-16 0 -16 22.5t16 22.5zM76 1126v-22l-23 22 h23z" />
<glyph unicode="w" horiz-adv-x="1306" d="M686 57q0 10 1 36t1 54.5t-1 54t-1 36.5q-2 12 -10 38.5t-12 30.5t-22.5 -7t-23.5 -11v-129q-20 0 -34.5 -31t-26.5 -67.5t-26.5 -67.5t-34.5 -31q-78 0 -118 31t-58.5 79t-24.5 104t-19 108q0 2 -7 12t-15 21.5t-15.5 20.5t-7.5 13t10.5 22.5t12.5 22.5v13v10 q-2 2 -12.5 11t-10.5 11q0 4 12.5 23.5t10.5 23.5q0 2 -7 8.5t-15.5 14.5t-15.5 14t-7 9q-10 25 -12 58.5t-4.5 68t-7.5 66.5t-21 56q-27 37 -48.5 46.5t-37 19.5t-23.5 35.5t-8 95.5q0 33 5 56.5t42 23.5q4 0 7 -1t8 -1q4 -2 8 -2q2 0 12 -7.5t21.5 -15.5t21.5 -15t14 -7 q2 0 9.5 6t14.5 14t13 15.5t8 9.5q2 0 5 2q2 0 3 1t3 1t4 -1t4 -1q2 -2 4 -2q6 -4 23.5 -20.5t21.5 -24.5q2 10 19.5 26.5t25.5 18.5q4 0 21.5 -8.5t25.5 -14.5q2 -2 12.5 -12t21.5 -22.5t20.5 -21.5t13.5 -11q14 -6 27.5 8t27.5 33.5t30.5 36t37.5 16.5q6 0 20 -2t16 -2 q4 0 22.5 -11.5t23.5 -11.5q4 0 22.5 11.5t22.5 11.5t14 -7.5t21.5 -15.5t20.5 -15t13 -7q4 -2 17.5 -5t28 -7.5t26.5 -7.5t18 -3q0 -2 1 -10t1 -12q0 -23 -11 -37.5t-24.5 -26.5t-24.5 -27.5t-11 -39.5q0 -47 13 -63.5t62 -16.5q0 -16 -8 -26.5t-18 -22t-18.5 -23.5 t-8.5 -33q0 -23 2 -48t33 -25h8q2 0 4 2q20 10 30.5 38.5t13.5 59.5t2 56.5t-1 27.5q0 12 1 45t1 68.5t-1 68.5t-1 45l45 68l48 -45q0 8 6 21.5t15 24.5t21.5 18t24.5 5q20 -4 52 -18t60.5 -34.5t50 -45.5t21.5 -49q0 -20 -3 -44t-12 -44.5t-27.5 -31.5t-51.5 -7 q-4 -18 -13 -63.5t-20.5 -95.5t-20.5 -95t-13 -64q0 -4 1 -23.5t-1 -23.5t-22.5 -21.5t-22.5 -23.5q-2 -4 10 -22.5t12 -22.5q0 -47 -12 -94t-29.5 -93t-38 -90t-35.5 -87q0 8 -8 24.5t-14 20.5q-2 0 -4 2h-4q-2 0 -2 2q-2 0 -3 -1t-3 -1q-2 -2 -7 -2l-67 -90q-16 25 -40 37 t-46.5 23t-43 22.5t-30.5 31.5zM754 307q-16 0 -16.5 -22.5t16.5 -22.5q18 0 18 22.5t-18 22.5zM641 375h23v45h-23v-45zM436 512q-10 2 -10 -12.5t10 -10.5t10 11.5t-10 11.5zM414 553q33 0 45 27q-2 4 -10.5 12t-12.5 10h-6h-4q-2 0 -2 2q-2 0 -5 -1t-5 -1v-49zM414 672 q25 12 38 37.5t17 56.5t4 60.5v50.5h35q0 10 -6 27.5t-21 17.5q-41 0 -57 -25t-20.5 -60.5t-4.5 -74.5t-8 -68zM139 877q-8 0 -12 -7.5t-4 -16.5t4 -16.5t12 -7.5t13.5 7.5t5.5 16.5t-5.5 16.5t-13.5 7.5zM983 899q-10 0 -14 -7t-4 -16.5t4 -16.5t14 -7q8 0 12 7t4 16.5 t-4 16.5t-12 7zM481 1057q16 0 16.5 -22.5t-16.5 -22.5q-16 0 -16 22.5t16 22.5z" />
<glyph unicode="x" horiz-adv-x="1277" d="M733 -16q4 12 1 24t-9 25.5t-11 27t-5 25.5q0 25 3 42t21 38l-45 160h-63q0 -10 -3.5 -15.5t-3.5 -9.5t5.5 -8t19.5 -12q-4 0 -22.5 -7.5t-39 -18.5t-38 -25.5t-17.5 -28.5v-6q0 -2 2 -7q2 -2 12.5 -12t22.5 -21.5t21.5 -21.5t13.5 -12v-8q0 -14 -1 -34t-6 -38 t-14.5 -34.5t-25.5 -22.5l-55 47v-70h-308q-23 0 -43 17.5t-36.5 42t-26.5 49t-10 39.5v8q0 2 2 4q4 6 17 19.5t27.5 27.5t27 26.5t18.5 16.5q4 0 6 2q2 0 3 1t3 1q0 -2 2 -2h4q2 -2 6 -2q4 -2 12.5 -10t10.5 -13q51 20 103.5 60.5t95.5 90.5t69.5 108.5t26.5 117.5v10 q-55 59 -102.5 100.5t-92.5 75t-91 66.5t-101 78q-4 2 -11.5 12.5t-14.5 20.5t-13 20t-6 15q-8 39 20.5 50t67.5 17t74.5 18.5t42.5 51.5q6 -4 23 -21.5t22 -23.5q2 -4 -2.5 -12.5t-4.5 -12.5h189q0 6 9 24.5t13 22.5h7q2 0 3 1t3 1t5 -1t5 -1q14 -35 20.5 -78t7.5 -88 t-1.5 -86t-4.5 -67q12 -31 35 -63.5t58 -32.5q18 0 26 12t14.5 28.5t16.5 32t33 23.5q8 2 20 10t23.5 19.5t19.5 24.5t8 26q0 25 -15 37t-34.5 21t-39 18.5t-27.5 25.5q-2 2 -2 4v8q0 12 36.5 29.5t86 34t96.5 29t67 12.5q18 0 54 -6.5t73 -18.5t64.5 -28.5t27.5 -36.5 q0 -63 -9 -89t-28.5 -35t-50 -14.5t-73.5 -25.5q-4 -2 -12.5 -21.5t-10.5 -23.5q-16 -23 -41.5 -26t-50.5 -19q-35 -25 -37 -45.5t-1 -41t-10 -38t-65 -35.5q-8 -2 -17 -10t-5 -13l45 -114q12 6 30.5 -24t46 -74t64.5 -88t86 -64q31 -14 53.5 -23.5t37 -21.5t21.5 -32.5 t7 -57.5q0 -10 -1 -36t-5 -34q-12 0 -36 -3t-50.5 -7t-52 -13.5t-41.5 -21.5h22q-29 25 -65.5 34t-76.5 13t-80 7.5t-75 13.5zM666 98h-23l23 23v-23zM778 211q-4 2 -7 -5t-3 -16.5t3 -17.5t7 -6q10 6 10 23.5t-10 21.5zM301 281h-22l22 22v-22zM666 303q16 0 16 -22.5 t-16 -22.5t-16 22.5t16 22.5zM1008 303q16 0 16 -22.5t-16 -22.5q-18 0 -18 22.5t18 22.5zM983 326q18 0 18 -22.5t-18 -22.5q-16 0 -16 22.5t16 22.5zM188 780q16 0 16.5 -22.5t-16.5 -22.5q-18 0 -18 22.5t18 22.5zM1143 780q16 0 16 -22.5t-16 -22.5t-16 22.5t16 22.5z M506 803h22l-22 22v-22zM756 850h-23v22zM643 985q10 -4 10 -11t-10 -11t-10 11t10 11z" />
<glyph unicode="y" horiz-adv-x="1263" d="M72 -109q0 39 17 65t46 41t65 20.5t72 5.5q12 0 37 -13.5t49.5 -32t42 -38t17.5 -31.5q0 -16 -3 -28.5t-22 -18.5q2 0 5 -1t5 -1q14 0 25.5 11t20 26.5t16.5 31t18 23.5q37 29 59.5 50.5t35 45t17.5 53t5 76.5q0 4 -1 13.5t-1 17.5v18q-4 8 -19.5 25.5t-34 36t-35.5 33 t-26 18.5q6 33 -9 82t-41.5 99t-56.5 94t-52 67q-2 2 -12.5 8t-23 14.5t-21.5 14.5t-11 8q-2 4 10.5 22.5t12.5 22.5q0 6 -11.5 14.5t-23.5 16.5q-14 8 -33 16h-12h-11q-6 -4 -23.5 -12t-23.5 -12v229q0 4 9.5 13t13.5 9t23.5 -11t23.5 -11q2 0 28.5 -2t39.5 -2q27 0 41 4 t25 10t23.5 10.5t34.5 4.5q29 0 68 -12.5t76 -33t69.5 -45t49.5 -49.5q-66 -12 -91.5 -48t-25.5 -99q0 -68 15.5 -85.5t36 -17.5t39.5 2.5t26 -24.5q-8 0 -24.5 -9.5t-20.5 -13.5q-2 -2 -3 -4v-8q0 -63 40 -90t92 -27q0 2 4 6.5t2 8.5l-45 45q-2 4 -4 9t-2 9q25 0 46 20.5 t36.5 48t24.5 55.5t13 40q8 43 -2 70.5t-29.5 49t-43 41t-39.5 44.5q20 6 36.5 25.5t31 39t27.5 34.5t30 15h12q4 -2 22.5 -10t22.5 -12h250q14 -27 38.5 -42t53.5 -15v-148q-2 4 -10 12.5t-13 10.5h-6h-4q-2 0 -2 2q-2 0 -5 -1t-7 -1q-55 -47 -86 -104.5t-52.5 -111 t-40 -94.5t-48.5 -55l-91 -319q-37 -27 -49 -63t-17 -72.5t-13.5 -73.5t-34.5 -64q-2 -2 -11.5 -1t-11.5 1q-4 -2 -12 -10t-10 -12q-4 -10 -10.5 -36t-13.5 -55.5t-13 -55t-8 -36.5h-478q-37 0 -60.5 24t-35.5 57.5t-16 70t-4 61.5zM733 -231q16 0 16.5 -22.5t-16.5 -22.5 q-16 0 -16 22.5t16 22.5zM733 -162q16 0 16.5 -22.5t-16.5 -22.5q-16 0 -16 22.5t16 22.5zM483 43q16 0 16.5 -22.5t-16.5 -22.5q-16 0 -16 22.5t16 22.5zM141 66q16 0 16.5 -23t-16.5 -23q-16 0 -16 23t16 23zM983 360q18 0 18 -22.5t-18 -22.5q-16 0 -16 22.5t16 22.5z M711 408q2 10 -11.5 10t-11.5 -10t11.5 -10t11.5 10zM983 453q18 0 18 -22.5t-18 -22.5q-16 0 -16 22.5t16 22.5zM733 657q10 -4 10 -11t-10 -11t-10 10t10 12zM1098 748q16 0 16 -23t-16 -23t-16 23t16 23zM756 748q-2 -10 -11.5 -10.5t-11.5 10.5q-2 10 11.5 10t11.5 -10z " />
<glyph unicode="z" horiz-adv-x="1173" d="M344 10q-33 0 -68.5 -2t-70.5 0t-69 11.5t-64 31.5q-2 6 -1 22.5t4 35t8 35t11 22.5q2 2 15.5 5t30 6t29.5 5t17 6q10 10 7 33t-4 46.5t8.5 41t44.5 17.5q0 -2 2 -2h4h6q4 -2 12 -10.5t10 -12.5q10 4 21.5 26.5t21.5 47.5q12 29 25 63q16 -12 35.5 5.5t39 44t36 53 t26.5 34.5l23 -47q12 29 32.5 62t46 63.5t52.5 57t51 45.5q-20 23 -28.5 44t-16.5 37.5t-23.5 25.5t-48.5 9q-25 0 -35 -6t-16 -16t-12 -22.5t-25 -24.5q-14 29 -28.5 38t-38.5 9q-14 0 -23.5 -3t-16.5 -6t-16.5 -6.5t-25.5 -3.5q0 -6 -4 -20t-6.5 -29.5t2 -30t20.5 -18.5 q-33 -12 -44 -34.5t-17.5 -45t-15.5 -40t-36 -17.5q-20 0 -36.5 5l-33 10t-34.5 10.5t-41 5.5q0 12 1 39.5t2 59.5t3 59.5t2 39.5q0 4 10.5 22.5t12.5 22.5v13v10l-23 22q-2 4 -2 7v6q0 14 16.5 32.5t39 34t46 26.5t37.5 11q18 0 28.5 -4t21 -9t24.5 -9t41 -4q14 0 40 1 t28 1t12 7t21.5 15t20.5 15.5t13 7.5q2 0 8.5 -7.5t14.5 -15.5t14 -15t8 -7t24.5 -3.5t33.5 -3.5q25 0 38 8.5t24 18.5t22.5 18.5t29.5 8.5q0 -2 2 -2h5h4q2 -2 8 -9.5t13 -14.5t14.5 -14t9.5 -7q4 -2 23.5 9t23.5 13q2 0 10 1t14 1q27 0 42.5 -9t30.5 -21.5t36.5 -21.5 t62.5 -9q0 -59 -43 -130t-108.5 -144.5t-141 -146.5t-141 -136.5t-108.5 -113.5t-43 -79q0 -16 1 -33.5t23 -21.5q8 0 30.5 1t48.5 1t48.5 -1t32.5 -1q23 -4 43 -22.5t2 -47.5q29 0 59.5 16.5t30.5 53.5l23 -47q12 8 23 24.5t20.5 35t15.5 33.5t10 21q4 -8 20.5 -24 t24.5 -21q4 -2 13.5 2.5t13.5 4.5v57t4 86t17.5 74.5t41.5 25.5q6 -2 24.5 -21.5t23.5 -23.5q2 -2 12 -8t22.5 -14.5t21.5 -15.5t11 -9q2 -4 -10 -22.5t-12 -22.5q0 -2 -1 -24.5t-1 -32.5q0 -20 4 -31.5t10 -21t10 -17.5t4 -22q-27 0 -34 -12.5t-9 -32t-4 -41t-16.5 -41 t-48 -31.5t-97.5 -12q-27 0 -46 13t-48 13q-23 0 -36 -8t-29 -39q-4 6 -21.5 23.5t-23.5 21.5h-7h-4q-2 0 -2 2q-2 0 -3 -1t-3 -1h-4q-8 -4 -24.5 -21.5t-20.5 -23.5q-14 35 -33.5 41t-46.5 6t-46 -9t-37.5 -20.5t-39 -20.5t-49.5 -9v61zM459 279q16 0 16 -23t-16 -23 t-16 23t16 23zM571 848q18 0 18.5 -22.5t-18.5 -22.5q-16 0 -16 22.5t16 22.5zM891 1053q16 0 16 -22.5t-16 -22.5t-16 22.5t16 22.5z" />
<glyph unicode="&#xa7;" horiz-adv-x="1161" d="M156 215q0 49 18.5 93t51 80t73.5 63.5t88 46.5v-23q12 -70 22.5 -89t19.5 -19t20.5 6t27.5 -13q10 -10 15.5 -27.5t9.5 -38t8 -38.5t12 -31l47 23q-8 -14 1.5 -27.5t21.5 -17.5q2 8 18.5 25.5t26.5 19.5q4 2 22.5 -9.5t22.5 -13.5h12q12 0 20.5 7.5t16.5 16.5t16.5 16 t22.5 7q23 0 38 -4t34 -20q18 20 21 37.5t3 42.5q0 31 -4 51t-20 51q2 -18 -7.5 -30.5t-23.5 -19.5t-30.5 -9t-24.5 -2q0 39 -7.5 54t-21.5 19t-36.5 4t-53.5 7q-18 2 -21.5 14t-2.5 26.5t-1 29t-20 20.5q-18 8 -60.5 28.5t-93.5 48t-106.5 59.5t-102.5 61.5t-78.5 56 t-37.5 43.5q-2 4 0 17t5 28.5t6 30t3 18.5q-33 0 -49.5 6t-16.5 53q39 0 50.5 25.5t11.5 63.5t-4 82t3 82t32.5 63.5t87.5 25.5q0 49 5 66.5t11 26t11 14.5t5 33q0 4 -1 13t-1 11q-2 4 -12 22.5t-10 22.5q2 12 30.5 48t63.5 73t66.5 65.5t38.5 28.5q0 -4 1 -15t2 -24.5 t2 -25t1 -13.5q0 -4 12 -22.5t10 -22.5q-8 -33 -16 -42t-18.5 -8t-21.5 8.5t-26 7.5q0 -14 -5 -23.5t-5 -16t9 -10.5t38 -8q-27 -8 -49.5 -22.5t-22.5 -44.5q0 -4 2.5 -12.5t2.5 -10.5q2 -6 7 -22.5t12 -35t14.5 -34.5t11.5 -23q2 4 10 12.5t12 10.5h4q2 0 3 1t3 1 q20 0 31.5 -14.5t19 -33t13.5 -37.5t16 -30q2 -2 4 -2h6h9q2 0 4 2q4 2 23.5 13.5t23.5 9.5q2 0 9 -7.5t14.5 -14.5t13.5 -14t8 -9t4 -2q2 -2 6 -2t7 2t5 2l-22 45q2 0 5 1t5 1q27 0 30 -14.5t3 -33t7 -32.5t40 -14q2 0 12.5 3t22.5 8t21.5 8t13.5 3q16 0 23 -15.5t11.5 -36 t10.5 -37.5t22 -23q43 -14 64.5 -31t31 -40.5t10.5 -56t1 -77.5h41v90h57l68 -227q-4 -8 -9 -17q-8 -18 -14 -29q-2 -4 -12 -21t-21.5 -35.5t-21.5 -36t-12 -21.5q-4 -4 -12.5 -21.5t-10.5 -23.5l-23 22q-4 -2 -12 -10t-10 -12v-8v-15q0 -8 4 -37.5t7 -64.5t7 -64.5t4 -38.5 v-24q0 -61 -25.5 -98t-62 -66t-75.5 -57.5t-64 -71.5q-2 4 -11 12t-20.5 15.5t-21.5 12.5t-16 5q-2 0 -9.5 -6t-14.5 -14.5t-13 -15.5t-9 -9q-2 -2 -4 -2q-2 -2 -8 -2q-4 0 -6 2q-2 0 -4 2q-4 2 -22.5 12t-22.5 10t-23.5 -10t-23.5 -12h-10h-13l-67 22q-2 0 -12.5 -1 t-22.5 -1h-21.5t-11.5 2q-4 2 -6 12.5t-5 22t-6 21.5t-5 12q-12 8 -25.5 6l-27 -4t-23.5 0t-17 21q-8 25 -14 44t-16.5 32.5t-29.5 20.5t-56 7zM295 66q16 0 16 -23t-16 -23t-16 23t16 23zM205 270h22v23h-22v-23zM432 498q16 0 16.5 -22.5t-16.5 -22.5q-16 0 -16 22.5 t16 22.5zM705 543q-4 2 -7.5 -5.5t-3.5 -16.5t3 -17t8 -6q10 4 10 22.5t-10 22.5zM295 588q16 0 16 -22.5t-16 -22.5t-16 22.5t16 22.5zM315 911q16 0 50 -14t76 -36.5t85 -50.5t81 -53.5t64.5 -46t33.5 -30.5q12 -18 31.5 -24.5t40 -9.5t39 -8t26.5 -26q14 47 40.5 62.5 t53.5 26t47.5 29t20.5 71.5q-16 0 -40 -4t-32 -27q-25 23 -40 58.5t-15 70.5q-4 0 -22.5 -1t-40 0t-40 8t-24.5 24q-12 39 -35 55t-45.5 25.5t-39 17.5t-16.5 27v12q0 4 3.5 17.5t7.5 27.5t7 27.5t5 17.5q-29 -14 -47.5 -18t-44.5 -4q-16 0 -52 3t-69 12t-52.5 27.5 t-6.5 49.5q14 -49 -17 -84t-76 -35v-121h68q-4 -8 -12.5 -28.5t-10.5 -28.5q0 -4 -1 -10.5t-1 -8.5zM387 862q-4 4 -9 2t-10.5 -6t-7.5 -10t5 -8q10 -6 18 3t4 19zM68 1067q-2 -10 -10.5 -10t-12.5 10t10.5 10t12.5 -10zM455 1067h-45l22 23zM545 1090q18 0 18 -23t-18 -23 q-16 0 -16 23t16 23zM727 1157q-16 0 -16 -22.5t16 -22.5t16 22.5t-16 22.5zM932 1249q-4 -10 -11.5 -10t-11.5 10q-2 4 2 6t9.5 2t9.5 -2t2 -6zM727 1477q2 8 9 37.5t14.5 64.5t14.5 64.5t9 37.5q2 4 3 22.5t1 22.5h64q0 -6 3 -22t7 -34.5t7 -35t5 -22.5q2 -4 10.5 -12.5 t12.5 -10.5v88q31 0 53.5 -24.5t35.5 -59t20.5 -71.5t7.5 -60q0 -31 -21.5 -53.5t-52.5 -38.5t-65 -24.5t-58 -8.5q-51 0 -65.5 39t-14.5 88v13zM182 1407q16 0 16.5 -22.5t-16.5 -22.5q-16 0 -16 22.5t16 22.5zM231 1499q0 -33 -26 -45l-23 45h49zM909 1589 q-16 0 -16 -22.5t16 -22.5t16 22.5t-16 22.5zM653 1665q16 0 42 -3t32 -26l-45 -47q-23 8 -26 34t-3 42zM365 1636q-10 4 -10.5 -12t10.5 -12q10 4 10 12t-10 12zM545 1636h-23l23 23v-23zM545 1749q4 0 7 1t5 1q0 -2 2 -2h4h6q4 -2 12.5 -10t10.5 -13q-14 -27 -47 -26v49z M682 1794q4 -6 13.5 -31.5t9.5 -36.5q0 -16 -19.5 -21t-28.5 -5q0 2 1 12t1 14q2 10 10.5 36t12.5 32z" />
<glyph unicode="&#xad;" d="M236 866q8 -6 25.5 -23.5t25.5 -21.5l37 51q10 -18 31.5 -26t46 -9t50 2t42.5 7q20 2 31.5 11t20.5 20.5t19 20.5t29 13l6 -22q14 4 19.5 12t7.5 16.5t8 14.5t24 6q27 4 43.5 -6t34.5 -33q4 20 10.5 39.5t26.5 36.5q16 -10 27.5 -28.5t29.5 -35.5l185 -67l-70 -10 l21 -154q2 -10 -12.5 -27.5t-36 -38t-43 -39t-29.5 -32.5q-12 25 -60.5 35t-116 13t-147.5 0t-152.5 -7t-130 -6.5t-83.5 2.5q-2 4 -2 8v10q-4 6 -18.5 17.5t-31 23.5t-32 22.5t-21.5 16.5q35 61 79 98t83 82h12zM526 897q2 -6 -4 -11t-14 -7t-16.5 2t-10.5 14q0 8 6.5 13 t15.5 5t16 -4t7 -12zM885 963q4 -14 -16.5 -18.5t-28.5 13.5q0 8 8 14.5t16 7.5t14.5 -3t6.5 -14z" />
<glyph unicode="&#xb4;" horiz-adv-x="667" d="M217 317q-27 6 -55.5 11.5t-52 15.5t-39 26.5t-15.5 47.5q0 53 12.5 78.5t30 41t38 30t36.5 46.5q25 49 49.5 90t58 70t78.5 41t109 4q8 18 18.5 36.5t26.5 31.5q6 -25 22.5 -42.5t32 -32.5t27.5 -33.5t12 -45.5q0 -55 -14 -88t-39 -59.5t-58.5 -55t-72.5 -75.5 q-2 -2 -5 -12.5t-6 -21.5t-6.5 -21.5t-5.5 -12.5t-11 -1t-21.5 1t-23.5 1t-13 -1q-27 -16 -35 -32.5t-14.5 -32t-18.5 -24.5t-45 -9v28zM217 569q-8 0 -12 -7t-4 -16t4 -16.5t12 -7.5t12 7.5t4 16.5t-4 16t-12 7zM512 797q2 10 -11.5 10t-11.5 -10t11.5 -10t11.5 10z" />
<glyph unicode="&#xbd;" horiz-adv-x="1343" d="M182 164q25 18 38 52t22.5 68.5t19.5 65.5t33 41h13t22.5 -1t21.5 -1t13 2q2 2 8 16.5t13 30t13.5 28.5t10.5 15q2 2 15 1t29.5 -1t30 -1t15.5 1q6 4 13 16.5t14.5 27t12.5 28.5t5 20q8 -4 33.5 -12t35.5 -10h13h10q16 16 43 36.5t54.5 42t51 42t33.5 37.5 q-31 20 -48 49.5t-21 64.5q-6 0 -28 1t-28 1q-43 0 -78.5 -11t-67.5 -25.5t-58.5 -25.5t-47.5 -11q-4 0 -16 2t-16 2q-4 6 -9.5 21.5t-9.5 33.5t-5 34.5t1 22.5q2 8 27.5 24.5t40.5 20.5q4 0 22.5 -10t22.5 -12h12h10q6 4 14.5 11t8.5 11t-10.5 23.5t-12.5 24.5q-2 4 2 18 t4 18q-57 0 -102 -7t-96 -7q-49 0 -79 23.5t-46 66.5q-29 -35 -74 -47t-88 -12v39.5t5 45t14.5 40t27.5 26.5q8 -8 34 -25.5t36 -21.5q2 -2 4 -2h6h6q2 0 6 2q6 4 28.5 21.5t27.5 25.5v-69q8 2 20 9t25.5 16t26 16.5t20.5 7.5q20 0 29.5 -14.5t37.5 -14.5q14 0 22.5 4 t15.5 10.5t14.5 10.5t19.5 4l4 -2q2 -2 4 -2q4 -6 13.5 -32t9.5 -36q4 16 13 48t32 44q8 -4 25.5 -21.5t21.5 -25.5q2 -4 -3 -6t-5 -6q20 0 27 6t12.5 14.5t11.5 14.5t24 6q14 0 20.5 -8.5t10.5 -18.5t9.5 -18t17.5 -8q14 0 19 8t8.5 18t11.5 18.5t28 8.5q23 0 31 -6 t14.5 -14.5t13.5 -14.5t25 -6q0 14 4.5 24.5t26.5 10.5h10l45 -23q4 0 19.5 3t17.5 3q0 6 -6 18.5t-7 25t7 19.5t39 1q33 -6 45 -19.5t19.5 -23.5t20.5 -13.5t50 9.5l115 -113v-4q0 -2 1 -4t1 -4q0 -25 -20.5 -37t-49 -17.5t-58.5 -5.5h-46q-37 0 -65.5 2.5t-57.5 8.5 t-60.5 15t-76.5 24q0 -8 -1 -30t-1 -28q0 -47 10 -58t24.5 -11t30 -2.5t27.5 -30.5q8 -18 19.5 -51t22.5 -66t19 -58.5t8 -29.5q0 -8 -4 -28.5t-12 -42t-16 -41t-15 -25.5q-14 0 -57 -18.5t-90 -44t-85 -52.5t-40 -43q-4 6 -21.5 23.5t-23.5 21.5h-6h-4q-2 0 -2 2 q-12 0 -35 -24.5t-50.5 -53t-59 -53t-60.5 -24.5q0 -37 17.5 -45.5t64.5 -8.5q23 0 35 7.5t8 39.5q23 -25 54.5 -24.5t59.5 0.5q41 0 66 12t59 12q80 0 119 -45t76 -114q-10 -31 -31.5 -48.5t-48.5 -26.5t-57.5 -12t-57.5 -3h-10q-4 2 -12 10l-12 12h-385q-4 -4 -12.5 -12 t-12.5 -10q-2 -2 -4 -2h-6q-12 0 -33 24.5t-42.5 57t-41 62.5t-31.5 40zM522 164q-8 0 -12 -7t-4 -16.5t4 -16.5t12 -7t12.5 7t4.5 16.5t-4.5 16.5t-12.5 7zM797 346q-4 -10 -11.5 -10t-11.5 10t11.5 10t11.5 -10zM909 459q16 0 16.5 -22.5t-16.5 -22.5q-16 0 -16 22.5 t16 22.5zM340 756q8 0 13 -7.5t5 -16.5t-5 -16t-13 -7t-12 7t-4 16t4 16.5t12 7.5zM637 936q-6 2 -8 -5t-2 -16.5t2 -17.5t8 -6q10 6 10 23.5t-10 21.5zM727 913q-4 2 -7 -2t-3 -9t3 -9t7 -2q10 4 10 11t-10 11zM614 1006q-6 2 -8 -6.5t-2 -17.5t2 -17.5t8 -3.5 q10 4 10 21.5t-10 23.5zM727 1006q-16 0 -16 -22.5t16 -22.5t16 22.5t-16 22.5zM455 1118q-16 0 -16.5 -22.5t16.5 -22.5q16 0 16 22.5t-16 22.5zM637 1233q2 0 10 1t12 1q14 0 26.5 -3t19.5 -22h-68v23zM614 1733q8 29 -3 46t-29.5 27.5t-42 14.5t-39.5 4t-18.5 -11.5 t-7.5 -24.5t-22.5 -24.5t-64.5 -11.5q-4 0 -17.5 -1t-29.5 0t-29.5 7t-15.5 21l45 45l-23 22l93 138h6q4 0 7 1t7 1q12 0 18.5 -4.5t12.5 -10.5t12 -10t16 -4h7q2 0 4 2l12 12t10 13h240q0 -27 9 -42.5t20.5 -30t20.5 -31.5t9 -44q0 -29 -3 -58.5t-34 -45.5v-158 q-4 -4 -17 -12.5t-17 -12.5q-2 -2 -2 -4v-6q0 -12 5 -19.5t11 -14.5t11 -16t5 -26q-29 0 -52 -5t-46 -21l45 -45l-45 -47q12 -16 30.5 -26.5t37.5 -19.5q-4 -23 -29 -23.5t-39 -0.5q-4 0 -22.5 1t-22.5 1q-2 6 -6 22.5t-7 35t-6.5 34.5t-3.5 23q0 18 -1 67t-1 103.5t1 103 t1 66.5zM705 1550q-16 0 -16.5 -22.5t16.5 -22.5q16 0 16 22.5t-16 22.5zM774 1847q-18 0 -18 -22.5t18 -22.5q16 0 16 22.5t-16 22.5z" />
<glyph unicode="&#xc4;" horiz-adv-x="1339" d="M305 430q0 8 -3 30.5t-6 49.5t-6 49.5t-1 30.5q0 4 7 14t15 21.5t15.5 20.5t7.5 11q2 8 3 28t1 41.5t-1 40.5t-3 28q33 4 50 49t26.5 100t11.5 105.5t4 64.5q12 16 30.5 26.5t37.5 18.5q-23 10 -40.5 34t-17.5 50q18 0 44 26.5t56.5 61.5t65.5 71t74 52q6 2 22.5 9 t35 14.5t34.5 13.5t23 10q-2 -4 11 -54t34.5 -124t47 -162t48 -168t40 -141t23.5 -80q4 -16 11.5 -44t14.5 -57.5t13 -52t6 -28.5q2 -16 2 -44t4.5 -53.5t17.5 -44t44 -18.5v-113q31 0 38 -9t9 -23.5t3 -29.5t20 -30q33 -27 55 -27.5t35.5 -2.5t18.5 -14.5t5 -59.5 q0 -31 -3 -59.5t-44 -41.5q-2 4 -10 12.5t-12 10.5q-4 0 -6 2h-5q-2 0 -2 2q-18 0 -29.5 -11t-22.5 -25.5t-24.5 -26t-33.5 -11.5q-29 0 -48.5 12.5t-45.5 12.5h-11q-4 0 -21.5 -4t-35.5 -7t-35.5 -7.5t-21.5 -4.5h-25q-25 0 -50.5 7.5t-51 16.5t-51 16.5t-52.5 7.5 q-2 0 -5 -1.5t-7 -1.5h-8q-6 -2 -25.5 -11t-43 -21.5t-43 -22.5t-25.5 -12q-2 -2 -5 -2h-6h-6q-2 0 -6 2q-2 2 -8 9t-13.5 14.5l-14.5 14.5t-9 7t-12.5 -3t-21.5 -7t-21.5 -8.5t-12.5 -4.5h-12h-12q-4 2 -22.5 13.5t-22.5 9.5q-8 -2 -25.5 -18.5t-19.5 -26.5 q-4 18 -20.5 24.5t-39 5.5t-48 -4.5t-47 -2.5t-36 10.5t-14.5 33.5v183q0 35 26.5 46t62.5 26.5t69.5 47t46.5 107.5h61zM676 113q-16 0 -16.5 -22.5t16.5 -22.5q16 0 16 22.5t-16 22.5zM106 225q-16 0 -16 -22.5t16 -22.5t16 22.5t-16 22.5zM631 272q-8 0 -12.5 -7 t-4.5 -16t4.5 -16.5t12.5 -7.5t12 7.5t4 16.5t-4 16t-12 7zM532 281q43 0 66 -6.5t38 -13.5t29.5 -13t43.5 -6q0 25 12 51t47 24v-73q16 0 30.5 10t14.5 29v12q-16 47 -45 57t-80 10q-12 0 -38.5 -4t-52.5 -13t-45.5 -25t-19.5 -39zM881 317q-16 0 -16.5 -22.5t16.5 -22.5 q16 0 16 22.5t-16 22.5zM244 500q8 0 12 -7.5t4 -16.5t-4 -16t-12 -7t-12.5 7t-4.5 16t4.5 16.5t12.5 7.5zM586 612q8 2 36.5 -1t57.5 -11t44 -22.5t-3 -32.5q27 14 42 37.5t15 52.5h-47q0 2 -6 11t-4 11t13 9.5t23.5 14.5t23 13t10.5 11q2 6 -0.5 22t-6.5 34.5t-8 34 t-8 21.5q-8 0 -33.5 1t-36.5 1q-2 0 -16 2t-29.5 1t-29 -7t-15.5 -20q4 -2 12.5 -10.5t10.5 -12.5v-12q0 -35 -12.5 -76t-32.5 -72zM645 991q0 -4 1 -15t2 -25.5t3 -26t2 -15.5q2 -6 10.5 -14t12.5 -8t22.5 8t22.5 14v4q0 2 1 2t1 3q0 39 -21.5 56t-56.5 17zM358 954 q16 0 16.5 -22.5t-16.5 -22.5q-18 0 -18 22.5t18 22.5zM631 1022q-16 0 -16.5 -22.5t16.5 -22.5q16 0 16 22.5t-16 22.5zM358 1319q-4 -10 -12 -10t-12 10q-2 10 12 10t12 -10zM266 1454q-6 0 -23.5 -8t-21.5 -14l23 57h-90q27 20 53 54t54 65.5t58.5 54.5t67.5 23 q68 0 89.5 -11.5t28.5 -29t14 -38t44 -38.5q-37 -43 -50 -74t-26.5 -53.5t-39 -41t-89.5 -36.5q-4 2 -18 16.5t-31 30.5zM836 1546q20 61 42.5 89t45 34t44 0t40 -9t33 4t22.5 42q6 -4 16.5 -13.5t20.5 -19.5t19 -20.5t11 -16.5q2 -4 -11 -22.5t-11 -22.5q0 -2 7 -8 t15.5 -14t15.5 -14.5t7 -8.5q0 -4 2 -8q0 -4 1 -8t1 -6q0 -41 -29.5 -54.5t-66.5 -22.5t-71 -24.5t-42 -58.5q-12 8 -31.5 30.5t-37 49t-30.5 51.5t-13 39v12zM471 1501q-8 0 -12 -7t-4 -16.5t4 -16.5t12 -7t12 7t4 16.5t-4 16.5t-12 7zM1018 1614q-16 0 -16.5 -22.5 t16.5 -22.5q16 0 16 22.5t-16 22.5zM563 1659q16 0 16.5 -22.5t-16.5 -22.5q-18 0 -18 22.5t18 22.5zM358 1751q16 0 16.5 -22.5t-16.5 -22.5q-18 0 -18 22.5t18 22.5zM1040 1751q16 0 16.5 -22.5t-16.5 -22.5q-16 0 -16 22.5t16 22.5z" />
<glyph unicode="&#xc5;" horiz-adv-x="1298" d="M653 43q-53 0 -107 -7t-108.5 -15.5t-109 -15.5t-109.5 -7q-12 0 -42 4t-60.5 12.5t-54 21.5t-23.5 32v139q66 0 102.5 27.5t57 69.5t30 91t20.5 91t28.5 70t54.5 28q0 2 1 14t1 14q0 6 -3 22.5t-6 35t-7.5 35t-6.5 22.5q27 10 38 50t13.5 86t-1 86t-3.5 50 q39 31 56.5 69t24.5 80t11.5 86t20.5 85q4 8 29.5 30.5t54.5 45t53 41.5l23 18q43 -35 100 -63.5t105 -49.5v-96q4 0 11 2t11 2q4 -2 22.5 -10t22.5 -12q-2 -8 -3 -27.5t-1 -41t1 -40t3 -26.5q0 -4 7.5 -13.5t15.5 -20.5t15 -21.5t7 -14.5q14 -78 17.5 -137.5t10.5 -112.5 t24.5 -106.5t62.5 -120.5v-10v-13q0 -4 -4 -21.5t-8 -36t-7.5 -35.5t-3.5 -21q0 -2 7.5 -8.5t15.5 -14.5t15 -14t7 -9v-12v-21.5v-21.5v-12q6 -27 24.5 -25l37 4t33 -11t14.5 -68q43 0 48 -26t5 -69q0 -41 -36.5 -65.5t-89 -37.5t-106.5 -17.5t-91 -4.5q-29 0 -64 10.5 t-70.5 24t-70.5 23.5t-66 10zM608 113h68l-23 45zM563 131q12 0 24.5 6t20.5 21h-45v-27zM526 305q0 -31 21.5 -54.5t50.5 -39.5t60.5 -24.5t52.5 -8.5h6q2 0 4 2q20 8 35.5 21.5t30 25t29.5 19.5t38 8q0 18 -13.5 33.5t-31.5 27t-36.5 17.5t-29.5 8q-4 0 -22.5 -11.5 t-22.5 -11.5t-13 7.5t-20.5 15.5t-21.5 15t-12 7t-8.5 -7t-14.5 -15t-14 -15.5t-8 -7.5q-6 -2 -31 -7t-29 -5zM653 682q16 -23 21.5 -46.5t5.5 -51.5q29 0 48.5 10t19.5 39q0 25 -11.5 65.5t-25 82.5t-24.5 75t-11 41v12q2 4 12 22.5t10 22.5t-9 13.5t-13 9.5 q-8 -4 -27.5 -30.5t-39 -58.5t-35 -59.5t-15.5 -31.5q0 -31 14.5 -52.5t14.5 -52.5q0 -16 -2 -33.5t-23 -23.5l45 -45zM791 657q-6 2 -8.5 -5t-2.5 -16t2 -17.5t9 -6.5q10 6 10 23.5t-10 21.5zM653 1067q-6 2 -8 -2t-2 -9t2 -9.5t8 -2.5q10 4 10 11.5t-10 11.5zM858 1182 q-16 0 -16 -22.5t16 -22.5t16 22.5t-16 22.5zM403 1204q16 0 16.5 -22.5t-16.5 -22.5q-16 0 -16 22.5t16 22.5zM403 1659q-6 -6 -17 3t-23.5 22.5t-25.5 27.5t-26 17q4 6 14.5 21t21.5 33.5t20.5 35t13.5 22.5l22 45q4 8 11.5 19.5t14.5 22.5t13 20l7 8h432q27 0 48 -29 t36.5 -66.5t23.5 -77.5t8 -61q0 -20 -12 -41.5t-28.5 -44t-32 -48t-21.5 -54.5h-135v-80q-35 0 -48 11.5t-19.5 24.5t-11.5 24.5t-23 11.5q-2 0 -4.5 -1t-4.5 -1h-4q-6 -4 -23.5 -21.5t-21.5 -25.5l-69 69q6 -10 7 -27.5t-4 -33t-16.5 -25.5t-31.5 -6q-12 51 -40 108.5 t-51 96.5zM381 1614q16 0 16 -22.5t-16 -22.5t-16 22.5t16 22.5zM743 1681q-16 0 -16 -22.5t16 -22.5q18 0 18 22.5t-18 22.5zM608 1729q0 -10 17.5 -29t27.5 -19q2 0 12.5 6.5t21.5 14.5t21.5 16t12.5 11q2 2 11 3t11 1v86q-35 -12 -73.5 -33.5t-61.5 -56.5z" />
<glyph unicode="&#xd6;" horiz-adv-x="1263" d="M66 717v24.5t1 38t1 38v24.5q43 31 60 63.5t23.5 67.5t10.5 76t20 90q14 45 47 76.5t68 61.5t66.5 60.5t46.5 73.5q2 4 10 12.5t12 10.5h4q2 0 3 1t3 1t4.5 -1t4.5 -1h4q4 -4 11 -22.5t11 -22.5l6 -3h6h7q2 0 4 3q4 2 14 12t21.5 20.5t20.5 20.5t13 14q4 -6 20.5 -23.5 t24.5 -21.5h11h12q4 2 22.5 13.5t22.5 9.5q10 -2 26.5 -19.5t18.5 -25.5q8 18 16 32q8 12 15.5 23.5t15.5 11.5q6 0 23.5 -9t21.5 -13q-10 20 -7 41.5t13.5 40t27.5 33t34 22.5q-4 2 -12.5 10t-10.5 12q-4 8 -4 13q35 0 54.5 6t37 14t40 14.5t61.5 6.5q0 -4 -2 -27t-4 -27 q0 -2 -11.5 -11t-11.5 -11q0 -4 10 -23.5t13 -23.5v-11q0 -23 -14.5 -30.5t-34 -13t-39 -12.5t-27.5 -23h119q0 -31 -18.5 -37t-41 -6t-41 -2.5t-18.5 -22.5v-201q29 0 36 13.5t9 31t6 30.5t29 13q2 0 6 -1t6 -1q23 -39 39 -78.5t32.5 -77.5t37 -73t51.5 -66v-6v-4 q0 -2 2 -2q0 -2 -1 -3t-1 -3v-4q-8 -6 -34 -15.5t-36 -9.5q8 -18 18.5 -36.5t26.5 -30.5l-22 -23l69 -90l-47 -47q39 -10 45 -35.5t6 -54.5q0 -10 -2 -26.5t-2 -18.5q-2 -6 -22.5 -23.5t-24.5 -23.5q-20 -55 -23 -104.5t-12.5 -85.5t-36 -56.5t-94.5 -20.5q0 -57 -15 -88.5 t-41 -53t-61.5 -41t-78.5 -50.5h-387l-26 16q-26 17 -58.5 36.5t-61 38t-37.5 24.5q-23 14 -33 36.5t-14 47t-7 50t-13 46.5q-4 4 -12.5 12t-12.5 12q-37 18 -52 67.5t-19.5 109t-1 120t3.5 101.5zM1047 182q16 0 16 -22.5t-16 -22.5t-16 22.5t16 22.5zM293 750q0 -47 8 -84 t22.5 -71t31 -67.5t32.5 -72.5q31 -74 38 -110t21.5 -58.5t53.5 -43t137 -61.5q2 -2 4 -2h6h8q2 0 4 2q4 4 11.5 23.5t11.5 21.5q2 0 12.5 -3t21.5 -7t21.5 -8t12.5 -4q41 0 81.5 27.5t73.5 69.5t53.5 89t20.5 86v502q-4 4 -12.5 22.5t-12.5 22.5q0 4 2 23.5t-2 21.5 q-20 20 -60 45t-80 52.5t-66.5 60.5t-20.5 69h-127q0 -10 -1 -25.5t-5 -30.5t-13.5 -25.5t-25.5 -10.5h-6q-2 0 -4 2t-5 12.5t-6.5 21.5t-6.5 21.5t-5 12.5q0 2 -4 3t-6 1t-7 -1t-5 -3q-2 -2 -9.5 -19.5t-15.5 -39t-14 -41t-6 -25.5v-10q2 -4 10 -12.5t12 -12.5 q-2 -10 -12 -16t-22.5 -9.5t-24.5 -4.5t-19 -1q0 -31 -16 -64.5t-36.5 -73.5t-37 -88t-16.5 -107zM569 295q16 0 16.5 -22.5t-16.5 -22.5q-18 0 -18 22.5t18 22.5zM797 387q16 0 16 -22.5t-16 -22.5t-16 22.5t16 22.5zM909 477q16 0 16.5 -22.5t-16.5 -22.5q-16 0 -16 22.5 t16 22.5zM909 547q8 0 12.5 -7.5t4.5 -16.5t-4 -16t-13 -7q-8 0 -12 7t-4 16t4 16.5t12 7.5zM340 956q-8 0 -12 -7t-4 -16t4 -16.5t12 -7.5t13 7.5t5 16.5t-5 16t-13 7zM887 956q8 0 12 -7t4 -16t-4 -16.5t-12 -7.5t-12.5 7.5t-4.5 16.5t4.5 16t12.5 7zM410 1161 q-8 0 -12.5 -7t-4.5 -16.5t4 -16.5t13 -7q8 0 12 7t4 16.5t-4 16.5t-12 7zM659 1251q16 0 16.5 -22.5t-16.5 -22.5q-16 0 -16 22.5t16 22.5zM387 1296q-16 0 -16 -22.5t16 -22.5t16 22.5t-16 22.5zM229 1448q0 12 -4 20.5t-9 14.5t-9 12t-4 18v7q0 2 2 4q2 4 11 12t11 12 q6 6 18.5 21.5t27 34t27.5 35t17 22.5l93 -23v-4q0 -2 2 -4q0 -4 -1 -8t-1 -6l-23 -45q-2 -4 1 -11.5t3 -11.5h86q-10 -31 -19 -44t-22.5 -16t-32 -1t-49.5 2v-69.5t-9 -46t-33.5 -26t-73.5 -8.5q-4 0 -16.5 2t-16.5 2q16 31 20 52.5t4 52.5zM932 1501q-16 0 -16.5 -22.5 t16.5 -22.5q16 0 16 22.5t-16 22.5zM432 1593q16 0 16.5 -22.5t-16.5 -22.5q-16 0 -16 22.5t16 22.5z" />
<glyph unicode="&#xe4;" horiz-adv-x="1284" d="M850 96q-41 0 -52.5 -11t-11.5 -60q-12 0 -18 10t-12 23.5t-12.5 25.5t-18.5 18q-8 2 -20 -2q-6 -2 -13 -6v-84q0 -2 -16.5 -5t-40 -7t-49 -7t-43.5 -3q-4 0 -34 -1t-46 -1q-8 0 -39 1t-39 1q0 2 -24.5 9t-60.5 21.5t-77 36t-75.5 50t-58 64.5t-23.5 79q0 25 7 65.5 t19 82.5t28.5 80t35.5 59q27 25 50 30.5t39.5 13t23.5 25t1 66.5q0 4 -7 17t-15 28.5t-15.5 29t-7.5 17.5q0 2 -1 17.5t-1 25.5q0 29 8.5 55.5t17.5 52t17 52t8 57.5q16 0 27.5 -24.5t13.5 -30.5q43 29 97.5 47t113 27.5t116.5 12.5t108 3h20q66 -33 120 -70t94 -84 t62.5 -106.5t22.5 -137.5q0 -49 -12.5 -92t-12.5 -90v-12q0 -2 4.5 -12.5t8.5 -21.5t7 -21.5t3 -12.5t-3 -11t-6 -20.5t-7 -21.5t-7 -14q-2 -2 -12 -11.5t-10 -11.5q0 -14 6 -34.5t15.5 -41t21.5 -38t25 -23.5q6 18 18 21.5t27 3.5q14 0 31.5 -14.5t30.5 -35t22.5 -41 t9.5 -34.5q0 -18 -3 -40t-10.5 -42.5t-21.5 -33.5t-35 -13q-39 0 -92 8t-101 26.5t-82 48t-34 72.5zM66 170q16 0 16 -22.5t-16 -22.5t-16 22.5t16 22.5zM268 295q0 -10 23.5 -28.5t54.5 -36t61.5 -30t45.5 -7.5q6 2 16 10t21.5 19t19.5 21.5t10 16.5q4 -6 21.5 -23.5 t23.5 -21.5q4 -2 6 -2h7q20 0 48.5 18.5t57.5 45t52.5 53t33.5 45.5q-6 0 -22.5 9t-22.5 13q-2 2 -2 4v9v6q0 2 2 4q2 4 10 12t13 10q-39 -6 -74 8.5t-76 14.5h-8q-4 -2 -13.5 -12.5t-21.5 -21.5t-22.5 -21.5l-12.5 -12.5t-4 -2h-6h-6q-2 0 -6 2q-2 2 -8.5 12.5t-14.5 22.5 t-14 21.5t-8 11.5t-8.5 -2t-14.5 -8t-14 -8.5t-8 -4.5q-4 0 -23.5 10.5t-24.5 12.5q-4 4 -14 5t-14 1q0 -10 -2 -27.5t-8.5 -34t-18.5 -27.5t-33 -7q4 -4 13.5 -21.5t9.5 -23.5q0 -2 -10.5 -11.5t-12.5 -11.5q-2 -4 -2 -6v-6zM315 575q2 0 11.5 2.5t11.5 2.5q8 4 25.5 11 t21.5 11v6q0 2 1 3t1 3q-2 0 -2 2v5v4q-4 8 -21.5 24.5t-25.5 20.5q-2 0 -4 2h-4q-2 0 -2 2q-2 0 -6.5 -2t-6.5 -2v-95zM532 674q16 0 26.5 -12.5t18 -28t15.5 -30.5t20 -23q12 2 18.5 15t7.5 27.5t0 28t-3 19.5l45 -45q2 -4 14.5 3t27.5 17t28.5 23.5t19.5 25.5q4 2 5 17.5 t1 25.5q0 59 -37 90t-94 31q-6 0 -27.5 -2t-27.5 -4q2 -6 -7.5 -23.5t-17.5 -21.5q-39 -16 -60.5 -19.5t-32.5 -3.5t-14 -1t-5 -14t-6.5 -41t-16.5 -81q0 -4 -1 -14t-1 -12q2 0 12.5 1t12.5 3l67 45q4 0 6 2q2 0 3 1t3 1zM635 739q16 0 16 -22.5t-16 -22.5t-16 22.5t16 22.5 zM657 829q-2 -10 -11 -10t-11 10t11 10t11 -10zM868 971q-33 0 -48 -22.5t-25 -49.5q2 0 5 -2t5 -2h2q2 0 4 2q2 0 6 2q18 12 34.5 30.5t16.5 41.5zM907 1104q-4 -10 -22.5 -10t-22.5 10q-2 4 5 6t17.5 2t17.5 -2t5 -6zM770 1284q53 59 109.5 88t134.5 29q25 0 47 -22.5 t38.5 -55.5t26 -66.5t9.5 -54.5q0 -18 -13.5 -32.5t-33 -24.5t-41 -15.5t-35.5 -5.5q-63 0 -98 8.5t-53.5 21.5t-25 30.5t-12.5 35t-17 35t-36 29.5zM203 1284q25 35 40 64.5t35.5 51t52 34t89.5 12.5q18 0 23.5 -10.5t11.5 -21.5t18 -21.5t47 -10.5v-6h-18q0 -4 -3 -11 t-1 -11t8 -13.5t14 -21.5t14.5 -22.5t8.5 -12.5v-4v-4q0 -2 2 -2q0 -6 -22.5 -26.5t-52.5 -43t-59.5 -41t-45.5 -18.5q-53 0 -73 15.5t-28 37t-18 46t-43 40.5zM520 1194q10 -4 10 -11t-10 -12q-10 -4 -10 11.5t10 11.5zM862 1489q16 0 16.5 -22.5t-16.5 -22.5 q-16 0 -16 22.5t16 22.5z" />
<glyph unicode="&#xe5;" horiz-adv-x="1261" d="M1083 -66q-70 2 -111.5 29t-71.5 55.5t-51.5 53t-51.5 24.5q-2 0 -2 -1t-2 -1h-5l-47 -92q-6 20 -17 23.5t-26 3.5q-41 0 -72.5 -14.5t-56 -31t-44 -31.5t-33.5 -18q-4 0 -13.5 6.5t-21 14.5t-21.5 16.5t-12 8.5t-18.5 3t-38 7t-44 7t-36.5 5h-11h-12q-4 -2 -22.5 -10 t-22.5 -12q18 37 -8.5 70.5t-65.5 67.5t-73.5 68.5t-34.5 75.5v14q0 6 4 33t7 57.5t7 58.5t4 34q2 16 24.5 43.5t51.5 53.5t55.5 44t38.5 18q23 0 40.5 -13t39.5 -13q4 0 12.5 1t10.5 1q-6 43 -32 63.5t-54.5 32.5t-51 24.5t-22.5 37.5q0 31 8 57.5t18.5 52t18.5 50t8 51.5 q4 0 9.5 -1t7.5 -4l22 -22q4 -2 6 -2h6q27 0 31 18.5t5 41t6.5 41t33.5 18.5q18 0 29.5 -4.5t22 -10.5t23.5 -10t36 -4q16 0 33.5 1t32 7t23.5 20.5t9 43.5q0 6 -5 16t-13 21.5t-15.5 19.5t-13.5 10q-6 -18 -18.5 -21t-26.5 -3q-4 0 -12 1t-11 1q-10 47 -21 103t-24 102 q-4 14 -15 20t-23.5 10t-22.5 11.5t-10 25.5q0 66 41 121t99 95t123.5 61.5t115.5 21.5q20 0 29.5 -15.5t14.5 -35t11 -38.5t24 -28q-2 31 11.5 39t31.5 8q27 0 50.5 -29.5t46 -68.5t44 -76.5t44.5 -54.5q-16 -8 -46 -27.5t-46 -39.5q14 -27 47 -27v-37q-23 0 -33 -13.5 t-18.5 -30.5t-16.5 -32.5t-24 -19.5h-17.5h-29h-28.5h-16q-20 -8 -25 -20.5t-8 -22.5t-11.5 -18.5t-36.5 -8.5q-20 0 -41 6t-15 41q-6 -6 -15 -32.5t-7 -34.5q0 -6 6 -17.5t13 -21.5t14.5 -19.5t11.5 -11.5t17.5 -2t28.5 1t28.5 1h17.5q27 -4 76 -34.5t98 -72.5t85 -87.5 t36 -77.5q0 -4 -9.5 -13.5t-13.5 -9.5v-514q66 0 114 -52t48 -130q0 -23 -12 -37t-27.5 -29.5t-31 -34t-23.5 -45.5zM127 72q-4 -10 -11 -10.5t-12 10.5q-2 4 2.5 6t9.5 2t9 -2t2 -6zM1198 184q10 -2 10 -11t-10 -11t-10 11t10 11zM356 299q14 0 25.5 -12.5t18 -28.5 t9.5 -33.5t3 -25.5q2 0 6 3t6 5q6 8 23.5 33.5t21.5 35.5q4 -8 21.5 -25.5t23.5 -21.5q4 -2 6 -2h6h6q2 0 5 2q4 4 12 23.5t12 23.5q2 4 11.5 12.5t11.5 10.5q2 0 12 3t22.5 7t21.5 7t11 6q0 2 3 13t7.5 25.5t7.5 28.5t5 23v22v25q-20 -23 -43 -25t-47 -2q-14 0 -39 1 t-31 26q-14 -16 -18 -28.5t-3 -25t4 -26.5t3 -35h-54v74q-4 0 -22 -2t-23 -4q-4 -2 -22.5 -12.5t-22.5 -10.5t-23.5 10.5t-23.5 12.5h-10h-12q-4 -2 -12.5 -10.5t-10.5 -12.5q4 0 13.5 -9t9.5 -13q0 -2 -3 -12.5t-8.5 -21.5t-8.5 -21.5t-3 -12.5q0 -8 9.5 -24.5t13.5 -20.5 q2 4 12 12t20.5 15.5t20.5 12.5t16 5zM1106 276h-23v23zM739 440q0 -2 2 -6q4 -4 12.5 -12t12.5 -10l22 22l-47 25q0 -4 -1 -7t-1 -6v-6zM424 645q31 0 53.5 -15.5t50.5 -15.5h4q2 0 5 2q2 2 5 13.5l6 23t6 21.5t7 12q8 4 32.5 -9t35.5 -13v-25q4 6 21.5 15.5t23.5 9.5 q2 0 11 -12.5t11 -12.5q12 0 32 13.5t37 29.5t30.5 30.5t15.5 18.5q2 8 -7 22.5t-22.5 29t-26 25.5t-14.5 13q6 -16 3 -38.5t-25 -28.5q0 6 -5 24.5t-12.5 39t-17.5 36.5t-20 16q-2 0 -4.5 -1t-4.5 -1h-4q-2 -2 -8 -9t-13 -15t-14.5 -15.5t-9.5 -7.5q-18 -4 -31.5 6.5 t-22.5 27.5t-17.5 33.5t-20.5 24.5q-16 -12 -26.5 -30.5t-18.5 -38.5q-12 29 -45 28v-227zM946 981q18 0 18.5 -22.5t-18.5 -22.5q-16 0 -16 22.5t16 22.5zM834 1073q10 -4 10 -12t-10 -12t-10 12t10 12zM356 1231q16 0 16.5 -22.5t-16.5 -22.5q-18 0 -18 22.5t18 22.5z M1016 1323q10 -4 10 -11t-10 -12q-10 -4 -10 10.5t10 12.5zM629 1323l22 45h-22v-45zM584 1368q-16 0 -16.5 -22.5t16.5 -22.5q16 0 16 22.5t-16 22.5zM1083 1368q16 0 16.5 -22.5t-16.5 -22.5q-16 0 -16 22.5t16 22.5zM1151 1483q8 0 13 -7.5t5 -16.5t-5 -16t-13 -7t-12 7 t-4 16t4 16.5t12 7.5zM651 1505q-8 0 -12 -7t-4 -16t4 -16.5t12 -7.5t12.5 7.5t4.5 16.5t-4.5 16t-12.5 7z" />
<glyph unicode="&#xf6;" horiz-adv-x="1163" d="M217 39q-18 43 -46 93t-53.5 102.5t-44 103.5t-18.5 98q0 8 1 20.5t1 14.5q0 4 11.5 22.5t11.5 22.5v25.5t-1 43t-1 43t2 25.5q6 18 22.5 38t35 40.5t34.5 41t23 40.5q12 35 33.5 57.5t48 43t53 44t47.5 60.5l22 -45q33 55 72 62t92 7q55 0 112.5 -13t110.5 -34 q2 -2 10.5 -10t12.5 -12q2 -4 10 -24.5t12 -22.5q2 -2 15.5 -5t29 -6.5t29 -6.5t17.5 -5q43 -20 68.5 -59t42 -84t26.5 -92t22 -82q2 -4 10.5 -12.5t12.5 -10.5q0 -10 1 -40.5t1 -39.5q0 -49 -17.5 -114.5t-46 -131t-65.5 -120t-78 -78.5q-2 -2 -12 -1t-21.5 1t-21.5 1 t-13 -1q-4 -2 -10 -12.5t-13 -21.5t-13.5 -21.5t-8.5 -12.5q-4 -4 -20 -7t-35.5 -6t-37 -5t-21.5 -4q-4 -4 -22.5 -23.5t-22.5 -23.5h-13q-37 0 -99 23.5t-124.5 51t-112 48t-61.5 14.5zM125 199q16 0 16 -22.5t-16 -22.5t-16 22.5t16 22.5zM330 311q8 2 39.5 -15 t71.5 -38.5t82 -41t69 -19.5q8 0 20.5 1t14.5 1q63 18 103 35.5t62.5 43t30.5 65.5t8 103q0 61 -6 109.5t-16 120.5q-8 25 -23.5 25.5t-33 2t-32.5 16.5t-26 71h-137q6 -25 4 -39.5t-10 -21.5t-20.5 -9t-24.5 -2q-31 0 -41 14.5t-33 14.5q-47 0 -69.5 -36t-35 -80t-24.5 -85 t-41 -53q4 -2 12.5 -10.5t10.5 -12.5q4 -8 11 -30.5t14 -48t12.5 -48.5t7.5 -33zM762 358l-23 -24v24h23zM377 403q16 0 16 -22.5t-16 -22.5q-18 0 -18 22.5t18 22.5zM762 563q8 0 13 -7t5 -16.5t-5 -16.5t-13 -7t-12.5 7t-4.5 16.5t4.5 16.5t12.5 7zM399 653 q16 0 16.5 -22.5t-16.5 -22.5q-16 0 -16 22.5t16 22.5zM125 768q10 -4 10 -12t-10 -13q-4 -2 -7 2.5t-3 10.5t3 10t7 2zM240 973q8 0 12 -7.5t4 -16.5t-4 -16t-12 -7t-12.5 7t-4.5 16t4.5 16.5t12.5 7.5zM100 1188q0 25 17.5 61.5t42 72.5t54.5 60.5t54 24.5q88 0 124 -36 t52 -103q2 -16 15.5 -22.5t29 -11.5t26.5 -13.5t11 -26.5q-43 0 -78.5 -23.5t-68.5 -50t-66.5 -46t-72.5 -11.5q-4 0 -17.5 13.5t-29 29.5t-28.5 29.5t-18 17.5q-4 4 -22.5 12.5t-22.5 12.5q-2 2 -2 4v6zM786 1108q-12 25 -24 34t-23.5 18t-17.5 26.5t-6 58.5 q0 49 16.5 68.5t39 32t46 26.5t37.5 55q20 -6 45 -20t49.5 -31.5t47 -35t40.5 -27.5q4 -4 13.5 -12.5t9.5 -10.5q0 -41 -7.5 -63.5t-21.5 -37.5t-35.5 -27.5t-50.5 -31.5l-12 -12l-21.5 -21.5l-21.5 -21.5l-12 -12q-4 -2 -22.5 10t-23.5 12q-10 2 -34.5 2t-34.5 -2z M991 1108q16 0 16.5 -22.5t-16.5 -22.5q-18 0 -18 22.5t18 22.5zM512 1130q16 0 16 -22.5t-16 -22.5t-16 22.5t16 22.5zM489 1153q16 0 16.5 -22.5t-16.5 -22.5q-16 0 -16 22.5t16 22.5z" />
<glyph unicode="&#x2000;" horiz-adv-x="993" />
<glyph unicode="&#x2001;" horiz-adv-x="1987" />
<glyph unicode="&#x2002;" horiz-adv-x="993" />
<glyph unicode="&#x2003;" horiz-adv-x="1987" />
<glyph unicode="&#x2004;" horiz-adv-x="662" />
<glyph unicode="&#x2005;" horiz-adv-x="496" />
<glyph unicode="&#x2006;" horiz-adv-x="331" />
<glyph unicode="&#x2007;" horiz-adv-x="331" />
<glyph unicode="&#x2008;" horiz-adv-x="248" />
<glyph unicode="&#x2009;" horiz-adv-x="397" />
<glyph unicode="&#x200a;" horiz-adv-x="110" />
<glyph unicode="&#x2010;" d="M236 866q8 -6 25.5 -23.5t25.5 -21.5l37 51q10 -18 31.5 -26t46 -9t50 2t42.5 7q20 2 31.5 11t20.5 20.5t19 20.5t29 13l6 -22q14 4 19.5 12t7.5 16.5t8 14.5t24 6q27 4 43.5 -6t34.5 -33q4 20 10.5 39.5t26.5 36.5q16 -10 27.5 -28.5t29.5 -35.5l185 -67l-70 -10 l21 -154q2 -10 -12.5 -27.5t-36 -38t-43 -39t-29.5 -32.5q-12 25 -60.5 35t-116 13t-147.5 0t-152.5 -7t-130 -6.5t-83.5 2.5q-2 4 -2 8v10q-4 6 -18.5 17.5t-31 23.5t-32 22.5t-21.5 16.5q35 61 79 98t83 82h12zM526 897q2 -6 -4 -11t-14 -7t-16.5 2t-10.5 14q0 8 6.5 13 t15.5 5t16 -4t7 -12zM885 963q4 -14 -16.5 -18.5t-28.5 13.5q0 8 8 14.5t16 7.5t14.5 -3t6.5 -14z" />
<glyph unicode="&#x2011;" d="M236 866q8 -6 25.5 -23.5t25.5 -21.5l37 51q10 -18 31.5 -26t46 -9t50 2t42.5 7q20 2 31.5 11t20.5 20.5t19 20.5t29 13l6 -22q14 4 19.5 12t7.5 16.5t8 14.5t24 6q27 4 43.5 -6t34.5 -33q4 20 10.5 39.5t26.5 36.5q16 -10 27.5 -28.5t29.5 -35.5l185 -67l-70 -10 l21 -154q2 -10 -12.5 -27.5t-36 -38t-43 -39t-29.5 -32.5q-12 25 -60.5 35t-116 13t-147.5 0t-152.5 -7t-130 -6.5t-83.5 2.5q-2 4 -2 8v10q-4 6 -18.5 17.5t-31 23.5t-32 22.5t-21.5 16.5q35 61 79 98t83 82h12zM526 897q2 -6 -4 -11t-14 -7t-16.5 2t-10.5 14q0 8 6.5 13 t15.5 5t16 -4t7 -12zM885 963q4 -14 -16.5 -18.5t-28.5 13.5q0 8 8 14.5t16 7.5t14.5 -3t6.5 -14z" />
<glyph unicode="&#x2012;" d="M236 866q8 -6 25.5 -23.5t25.5 -21.5l37 51q10 -18 31.5 -26t46 -9t50 2t42.5 7q20 2 31.5 11t20.5 20.5t19 20.5t29 13l6 -22q14 4 19.5 12t7.5 16.5t8 14.5t24 6q27 4 43.5 -6t34.5 -33q4 20 10.5 39.5t26.5 36.5q16 -10 27.5 -28.5t29.5 -35.5l185 -67l-70 -10 l21 -154q2 -10 -12.5 -27.5t-36 -38t-43 -39t-29.5 -32.5q-12 25 -60.5 35t-116 13t-147.5 0t-152.5 -7t-130 -6.5t-83.5 2.5q-2 4 -2 8v10q-4 6 -18.5 17.5t-31 23.5t-32 22.5t-21.5 16.5q35 61 79 98t83 82h12zM526 897q2 -6 -4 -11t-14 -7t-16.5 2t-10.5 14q0 8 6.5 13 t15.5 5t16 -4t7 -12zM885 963q4 -14 -16.5 -18.5t-28.5 13.5q0 8 8 14.5t16 7.5t14.5 -3t6.5 -14z" />
<glyph unicode="&#x2013;" horiz-adv-x="1179" d="M247 866q9 -6 27.5 -23.5t26.5 -21.5l40 51q10 -18 33 -26t49 -9t53 2t45 7q21 2 33.5 11t22 20.5t20 20.5t30.5 13l7 -22q14 4 20 12t8 16.5t8.5 14.5t25.5 6q29 4 46.5 -6t36.5 -33q4 20 11 39.5t28 36.5q17 -10 29.5 -28.5t31.5 -35.5l196 -67l-74 -10l22 -154 q2 -10 -13.5 -27.5t-38 -38t-45.5 -39t-31 -32.5q-13 25 -64.5 35t-123 13t-156.5 0t-162 -7t-138 -6.5t-89 2.5q-2 4 -2 8v10q-4 6 -19.5 17.5t-33 23.5t-34 22.5t-22.5 16.5q37 61 84 98t88 82h13zM555 897q2 -6 -4.5 -11t-15 -7t-17.5 2t-11 14q0 8 7 13t16.5 5t17 -4 t7.5 -12zM936 963q4 -14 -17.5 -18.5t-30.5 13.5q0 8 8.5 14.5t17 7.5t15.5 -3t7 -14z" />
<glyph unicode="&#x2014;" horiz-adv-x="2203" d="M444 866q17 -6 54 -23.5t54 -21.5l78 51q22 -18 67.5 -26t97.5 -9t106 2t90 7q43 2 67 11t43.5 20.5t40.5 20.5t61 13l13 -22q30 4 41.5 12t16 16.5t17 14.5t50.5 6q58 4 93 -6t73 -33q8 20 22 39.5t56 36.5q34 -10 58.5 -28.5t62.5 -35.5l393 -67l-149 -10l45 -154 q4 -10 -26.5 -27.5t-76.5 -38t-91.5 -39t-62.5 -32.5q-25 25 -128 35t-246.5 13t-313 0t-323.5 -7t-276 -6.5t-177 2.5q-4 4 -4 8v10q-9 6 -39.5 17.5t-65.5 23.5t-68 22.5t-46 16.5q74 61 167.5 98t176.5 82h25zM1059 897q4 -6 -8.5 -11t-29.5 -7t-35 2t-22 14q0 8 13.5 13 t32.5 5t34 -4t15 -12zM1821 963q8 -14 -35.5 -18.5t-60.5 13.5q0 8 17 14.5t34 7.5t31 -3t14 -14z" />
<glyph unicode="&#x202f;" horiz-adv-x="397" />
<glyph unicode="&#x205f;" horiz-adv-x="496" />
<glyph unicode="&#x25fc;" horiz-adv-x="1095" d="M0 1096h1096v-1096h-1096v1096z" />
</font>
</defs>
</svg>
